<svg width="436" height="35" viewBox="0 0 436 35" fill="none" xmlns="http://www.w3.org/2000/svg">
<path d="M28.5 0H436L413.5 35H0.5L28.5 0Z" fill="white"/>
<path d="M179.875 15.5469H176.765C176.708 15.1444 176.592 14.7869 176.417 14.4744C176.241 14.1572 176.016 13.8873 175.742 13.6648C175.467 13.4422 175.15 13.2718 174.79 13.1534C174.435 13.035 174.049 12.9759 173.632 12.9759C172.88 12.9759 172.224 13.1629 171.665 13.5369C171.106 13.9062 170.673 14.446 170.365 15.1562C170.058 15.8617 169.904 16.7187 169.904 17.7273C169.904 18.7642 170.058 19.6354 170.365 20.3409C170.678 21.0464 171.114 21.5791 171.672 21.9389C172.231 22.2988 172.877 22.4787 173.611 22.4787C174.023 22.4787 174.404 22.4242 174.755 22.3153C175.11 22.2064 175.425 22.0478 175.699 21.8395C175.974 21.6264 176.201 21.3684 176.381 21.0653C176.566 20.7623 176.694 20.4167 176.765 20.0284L179.875 20.0426C179.795 20.7102 179.594 21.3542 179.272 21.9744C178.954 22.59 178.526 23.1416 177.986 23.6293C177.451 24.1122 176.812 24.4957 176.069 24.7798C175.33 25.0592 174.494 25.1989 173.561 25.1989C172.264 25.1989 171.104 24.9053 170.081 24.3182C169.063 23.7311 168.258 22.8812 167.667 21.7685C167.079 20.6558 166.786 19.3087 166.786 17.7273C166.786 16.1411 167.084 14.7917 167.681 13.679C168.277 12.5663 169.087 11.7187 170.11 11.1364C171.132 10.5492 172.283 10.2557 173.561 10.2557C174.404 10.2557 175.185 10.3741 175.905 10.6108C176.63 10.8475 177.271 11.1932 177.83 11.6477C178.389 12.0975 178.843 12.6491 179.194 13.3026C179.549 13.956 179.776 14.7041 179.875 15.5469ZM186.953 25.2131C185.85 25.2131 184.895 24.9787 184.091 24.5099C183.29 24.0365 182.672 23.3783 182.237 22.5355C181.801 21.688 181.583 20.7055 181.583 19.5881C181.583 18.4612 181.801 17.4763 182.237 16.6335C182.672 15.786 183.29 15.1278 184.091 14.6591C184.895 14.1856 185.85 13.9489 186.953 13.9489C188.056 13.9489 189.008 14.1856 189.808 14.6591C190.613 15.1278 191.233 15.786 191.669 16.6335C192.104 17.4763 192.322 18.4612 192.322 19.5881C192.322 20.7055 192.104 21.688 191.669 22.5355C191.233 23.3783 190.613 24.0365 189.808 24.5099C189.008 24.9787 188.056 25.2131 186.953 25.2131ZM186.967 22.8693C187.469 22.8693 187.888 22.7273 188.224 22.4432C188.56 22.1544 188.814 21.7614 188.984 21.2642C189.159 20.767 189.247 20.2012 189.247 19.5668C189.247 18.9323 189.159 18.3665 188.984 17.8693C188.814 17.3722 188.56 16.9792 188.224 16.6903C187.888 16.4015 187.469 16.2571 186.967 16.2571C186.46 16.2571 186.034 16.4015 185.689 16.6903C185.348 16.9792 185.09 17.3722 184.914 17.8693C184.744 18.3665 184.659 18.9323 184.659 19.5668C184.659 20.2012 184.744 20.767 184.914 21.2642C185.09 21.7614 185.348 22.1544 185.689 22.4432C186.034 22.7273 186.46 22.8693 186.967 22.8693ZM194.289 25V14.0909H197.173V16.0156H197.301C197.528 15.3764 197.907 14.8722 198.437 14.5028C198.967 14.1335 199.602 13.9489 200.341 13.9489C201.089 13.9489 201.725 14.1359 202.251 14.5099C202.777 14.8793 203.127 15.3812 203.302 16.0156H203.416C203.638 15.3906 204.041 14.8911 204.623 14.517C205.21 14.1383 205.904 13.9489 206.704 13.9489C207.722 13.9489 208.548 14.2732 209.183 14.9219C209.822 15.5658 210.142 16.4796 210.142 17.6634V25H207.123V18.2599C207.123 17.6539 206.962 17.1993 206.64 16.8963C206.318 16.5933 205.916 16.4418 205.433 16.4418C204.884 16.4418 204.455 16.617 204.147 16.9673C203.84 17.313 203.686 17.7699 203.686 18.3381V25H200.752V18.196C200.752 17.661 200.599 17.2348 200.291 16.9176C199.988 16.6004 199.588 16.4418 199.091 16.4418C198.754 16.4418 198.451 16.527 198.181 16.6974C197.916 16.8632 197.706 17.0975 197.549 17.4006C197.393 17.6989 197.315 18.0492 197.315 18.4517V25H194.289ZM217.503 25.2131C216.381 25.2131 215.415 24.9858 214.605 24.5312C213.801 24.072 213.18 23.4233 212.745 22.5852C212.309 21.7424 212.091 20.7457 212.091 19.5952C212.091 18.473 212.309 17.4882 212.745 16.6406C213.18 15.7931 213.793 15.1326 214.584 14.6591C215.38 14.1856 216.312 13.9489 217.382 13.9489C218.102 13.9489 218.772 14.0649 219.392 14.2969C220.017 14.5241 220.562 14.8674 221.026 15.3267C221.495 15.786 221.859 16.3636 222.12 17.0597C222.38 17.7509 222.51 18.5606 222.51 19.4886V20.3196H213.299V18.4446H219.662C219.662 18.009 219.568 17.6231 219.378 17.2869C219.189 16.9508 218.926 16.688 218.59 16.4986C218.258 16.3045 217.873 16.2074 217.432 16.2074C216.973 16.2074 216.566 16.3139 216.211 16.527C215.86 16.7353 215.586 17.017 215.387 17.3722C215.188 17.7225 215.086 18.1132 215.081 18.544V20.3267C215.081 20.8665 215.181 21.3329 215.38 21.7259C215.583 22.1188 215.87 22.4219 216.239 22.6349C216.608 22.848 217.046 22.9545 217.553 22.9545C217.889 22.9545 218.197 22.9072 218.476 22.8125C218.756 22.7178 218.995 22.5758 219.194 22.3864C219.392 22.197 219.544 21.965 219.648 21.6903L222.446 21.875C222.304 22.5473 222.013 23.1345 221.573 23.6364C221.137 24.1335 220.574 24.5218 219.882 24.8011C219.196 25.0758 218.403 25.2131 217.503 25.2131ZM227.51 18.6932V25H224.485V14.0909H227.368V16.0156H227.496C227.738 15.3812 228.142 14.8793 228.711 14.5099C229.279 14.1359 229.968 13.9489 230.777 13.9489C231.535 13.9489 232.195 14.1146 232.759 14.446C233.322 14.7775 233.76 15.2509 234.073 15.8665C234.385 16.4773 234.542 17.2064 234.542 18.054V25H231.516V18.5938C231.521 17.9261 231.35 17.4053 231.005 17.0312C230.659 16.6525 230.183 16.4631 229.577 16.4631C229.17 16.4631 228.81 16.5507 228.498 16.7259C228.19 16.901 227.948 17.1567 227.773 17.4929C227.603 17.8243 227.515 18.2244 227.51 18.6932ZM242.729 14.0909V16.3636H236.159V14.0909H242.729ZM237.651 11.4773H240.676V21.6477C240.676 21.9271 240.719 22.1449 240.804 22.3011C240.889 22.4527 241.008 22.5592 241.159 22.6207C241.315 22.6823 241.495 22.7131 241.699 22.7131C241.841 22.7131 241.983 22.7012 242.125 22.6776C242.267 22.6491 242.376 22.6278 242.452 22.6136L242.928 24.8651C242.776 24.9124 242.563 24.9669 242.288 25.0284C242.014 25.0947 241.68 25.1349 241.287 25.1491C240.558 25.1776 239.919 25.0805 239.369 24.858C238.825 24.6354 238.401 24.2898 238.098 23.821C237.795 23.3523 237.646 22.7604 237.651 22.0455V11.4773ZM247.81 25.206C247.114 25.206 246.494 25.0852 245.95 24.8438C245.405 24.5975 244.974 24.2353 244.657 23.7571C244.344 23.2741 244.188 22.6728 244.188 21.9531C244.188 21.3471 244.299 20.8381 244.522 20.4261C244.745 20.0142 245.048 19.6828 245.431 19.4318C245.815 19.1809 246.25 18.9915 246.738 18.8636C247.23 18.7358 247.746 18.6458 248.286 18.5938C248.921 18.5275 249.432 18.4659 249.82 18.4091C250.209 18.3475 250.49 18.2576 250.665 18.1392C250.841 18.0208 250.928 17.8456 250.928 17.6136V17.571C250.928 17.1212 250.786 16.7732 250.502 16.527C250.223 16.2808 249.825 16.1577 249.309 16.1577C248.764 16.1577 248.331 16.2784 248.009 16.5199C247.687 16.7566 247.474 17.0549 247.37 17.4148L244.572 17.1875C244.714 16.5246 244.993 15.9517 245.41 15.4688C245.826 14.9811 246.364 14.607 247.022 14.3466C247.685 14.0814 248.452 13.9489 249.323 13.9489C249.929 13.9489 250.509 14.0199 251.063 14.1619C251.622 14.304 252.117 14.5241 252.548 14.8224C252.983 15.1207 253.326 15.5043 253.577 15.973C253.828 16.437 253.954 16.9934 253.954 17.642V25H251.085V23.4872H250.999C250.824 23.8281 250.59 24.1288 250.296 24.3892C250.003 24.6449 249.65 24.8461 249.238 24.9929C248.826 25.1349 248.35 25.206 247.81 25.206ZM248.677 23.1179C249.122 23.1179 249.515 23.0303 249.856 22.8551C250.197 22.6752 250.464 22.4337 250.658 22.1307C250.853 21.8277 250.95 21.4844 250.95 21.1009V19.9432C250.855 20.0047 250.725 20.0616 250.559 20.1136C250.398 20.161 250.216 20.206 250.012 20.2486C249.808 20.2865 249.605 20.322 249.401 20.3551C249.198 20.3835 249.013 20.4096 248.847 20.4332C248.492 20.4853 248.182 20.5682 247.917 20.6818C247.652 20.7955 247.446 20.9493 247.299 21.1435C247.152 21.3329 247.079 21.5696 247.079 21.8537C247.079 22.2656 247.228 22.5805 247.526 22.7983C247.829 23.0114 248.213 23.1179 248.677 23.1179ZM256.301 25V14.0909H259.234V15.9943H259.348C259.547 15.3172 259.881 14.8059 260.349 14.4602C260.818 14.1098 261.358 13.9347 261.969 13.9347C262.12 13.9347 262.284 13.9441 262.459 13.9631C262.634 13.982 262.788 14.008 262.92 14.0412V16.7259C262.778 16.6832 262.582 16.6454 262.331 16.6122C262.08 16.5791 261.85 16.5625 261.642 16.5625C261.197 16.5625 260.799 16.6596 260.449 16.8537C260.103 17.0431 259.829 17.3082 259.625 17.6491C259.426 17.9901 259.327 18.383 259.327 18.8281V25H256.301ZM264.485 25V14.0909H267.51V25H264.485ZM266.005 12.6847C265.555 12.6847 265.169 12.5355 264.847 12.2372C264.53 11.9342 264.371 11.572 264.371 11.1506C264.371 10.7339 264.53 10.3764 264.847 10.0781C265.169 9.77509 265.555 9.62358 266.005 9.62358C266.454 9.62358 266.838 9.77509 267.155 10.0781C267.477 10.3764 267.638 10.7339 267.638 11.1506C267.638 11.572 267.477 11.9342 267.155 12.2372C266.838 12.5355 266.454 12.6847 266.005 12.6847ZM274.863 25.2131C273.76 25.2131 272.806 24.9787 272.001 24.5099C271.201 24.0365 270.583 23.3783 270.147 22.5355C269.711 21.688 269.494 20.7055 269.494 19.5881C269.494 18.4612 269.711 17.4763 270.147 16.6335C270.583 15.786 271.201 15.1278 272.001 14.6591C272.806 14.1856 273.76 13.9489 274.863 13.9489C275.966 13.9489 276.918 14.1856 277.718 14.6591C278.523 15.1278 279.143 15.786 279.579 16.6335C280.014 17.4763 280.232 18.4612 280.232 19.5881C280.232 20.7055 280.014 21.688 279.579 22.5355C279.143 23.3783 278.523 24.0365 277.718 24.5099C276.918 24.9787 275.966 25.2131 274.863 25.2131ZM274.877 22.8693C275.379 22.8693 275.798 22.7273 276.134 22.4432C276.47 22.1544 276.724 21.7614 276.894 21.2642C277.069 20.767 277.157 20.2012 277.157 19.5668C277.157 18.9323 277.069 18.3665 276.894 17.8693C276.724 17.3722 276.47 16.9792 276.134 16.6903C275.798 16.4015 275.379 16.2571 274.877 16.2571C274.371 16.2571 273.944 16.4015 273.599 16.6903C273.258 16.9792 273 17.3722 272.825 17.8693C272.654 18.3665 272.569 18.9323 272.569 19.5668C272.569 20.2012 272.654 20.767 272.825 21.2642C273 21.7614 273.258 22.1544 273.599 22.4432C273.944 22.7273 274.371 22.8693 274.877 22.8693ZM291.276 17.2017L288.506 17.3722C288.459 17.1354 288.357 16.9223 288.201 16.733C288.045 16.5388 287.839 16.3849 287.583 16.2713C287.332 16.1529 287.031 16.0938 286.681 16.0938C286.212 16.0938 285.817 16.1932 285.495 16.392C285.173 16.5862 285.012 16.8466 285.012 17.1733C285.012 17.4337 285.116 17.6539 285.325 17.8338C285.533 18.0137 285.89 18.1581 286.397 18.267L288.371 18.6648C289.432 18.8826 290.223 19.233 290.744 19.7159C291.264 20.1989 291.525 20.8333 291.525 21.6193C291.525 22.3343 291.314 22.9616 290.893 23.5014C290.476 24.0412 289.903 24.4626 289.174 24.7656C288.45 25.0639 287.614 25.2131 286.667 25.2131C285.223 25.2131 284.072 24.9124 283.215 24.3111C282.363 23.705 281.863 22.8812 281.717 21.8395L284.692 21.6832C284.782 22.1236 285 22.4598 285.346 22.6918C285.692 22.919 286.134 23.0327 286.674 23.0327C287.204 23.0327 287.63 22.9309 287.952 22.7273C288.279 22.5189 288.445 22.2514 288.45 21.9247C288.445 21.6501 288.329 21.4252 288.102 21.25C287.874 21.0701 287.524 20.9328 287.05 20.8381L285.161 20.4616C284.096 20.2486 283.303 19.8793 282.782 19.3537C282.266 18.8281 282.008 18.1581 282.008 17.3438C282.008 16.643 282.197 16.0393 282.576 15.5327C282.96 15.026 283.497 14.6354 284.188 14.3608C284.884 14.0862 285.699 13.9489 286.631 13.9489C288.009 13.9489 289.094 14.2401 289.884 14.8224C290.68 15.4048 291.144 16.1979 291.276 17.2017Z" fill="#D80D1C"/>
</svg>
