<svg width="436" height="35" viewBox="0 0 436 35" fill="none" xmlns="http://www.w3.org/2000/svg">
<path d="M28 0H435.5L413 35H0L28 0Z" fill="#D80D1C"/>
<path d="M179.375 15.5469H176.265C176.208 15.1444 176.092 14.7869 175.917 14.4744C175.741 14.1572 175.516 13.8873 175.242 13.6648C174.967 13.4422 174.65 13.2718 174.29 13.1534C173.935 13.035 173.549 12.9759 173.132 12.9759C172.38 12.9759 171.724 13.1629 171.165 13.5369C170.606 13.9062 170.173 14.446 169.865 15.1562C169.558 15.8617 169.404 16.7187 169.404 17.7273C169.404 18.7642 169.558 19.6354 169.865 20.3409C170.178 21.0464 170.614 21.5791 171.172 21.9389C171.731 22.2988 172.377 22.4787 173.111 22.4787C173.523 22.4787 173.904 22.4242 174.255 22.3153C174.61 22.2064 174.925 22.0478 175.199 21.8395C175.474 21.6264 175.701 21.3684 175.881 21.0653C176.066 20.7623 176.194 20.4167 176.265 20.0284L179.375 20.0426C179.295 20.7102 179.094 21.3542 178.772 21.9744C178.454 22.59 178.026 23.1416 177.486 23.6293C176.951 24.1122 176.312 24.4957 175.569 24.7798C174.83 25.0592 173.994 25.1989 173.061 25.1989C171.764 25.1989 170.604 24.9053 169.581 24.3182C168.563 23.7311 167.758 22.8812 167.167 21.7685C166.579 20.6558 166.286 19.3087 166.286 17.7273C166.286 16.1411 166.584 14.7917 167.181 13.679C167.777 12.5663 168.587 11.7187 169.61 11.1364C170.632 10.5492 171.783 10.2557 173.061 10.2557C173.904 10.2557 174.685 10.3741 175.405 10.6108C176.13 10.8475 176.771 11.1932 177.33 11.6477C177.889 12.0975 178.343 12.6491 178.694 13.3026C179.049 13.956 179.276 14.7041 179.375 15.5469ZM186.453 25.2131C185.35 25.2131 184.395 24.9787 183.591 24.5099C182.79 24.0365 182.172 23.3783 181.737 22.5355C181.301 21.688 181.083 20.7055 181.083 19.5881C181.083 18.4612 181.301 17.4763 181.737 16.6335C182.172 15.786 182.79 15.1278 183.591 14.6591C184.395 14.1856 185.35 13.9489 186.453 13.9489C187.556 13.9489 188.508 14.1856 189.308 14.6591C190.113 15.1278 190.733 15.786 191.169 16.6335C191.604 17.4763 191.822 18.4612 191.822 19.5881C191.822 20.7055 191.604 21.688 191.169 22.5355C190.733 23.3783 190.113 24.0365 189.308 24.5099C188.508 24.9787 187.556 25.2131 186.453 25.2131ZM186.467 22.8693C186.969 22.8693 187.388 22.7273 187.724 22.4432C188.06 22.1544 188.314 21.7614 188.484 21.2642C188.659 20.767 188.747 20.2012 188.747 19.5668C188.747 18.9323 188.659 18.3665 188.484 17.8693C188.314 17.3722 188.06 16.9792 187.724 16.6903C187.388 16.4015 186.969 16.2571 186.467 16.2571C185.96 16.2571 185.534 16.4015 185.189 16.6903C184.848 16.9792 184.59 17.3722 184.414 17.8693C184.244 18.3665 184.159 18.9323 184.159 19.5668C184.159 20.2012 184.244 20.767 184.414 21.2642C184.59 21.7614 184.848 22.1544 185.189 22.4432C185.534 22.7273 185.96 22.8693 186.467 22.8693ZM193.789 25V14.0909H196.673V16.0156H196.801C197.028 15.3764 197.407 14.8722 197.937 14.5028C198.467 14.1335 199.102 13.9489 199.841 13.9489C200.589 13.9489 201.225 14.1359 201.751 14.5099C202.277 14.8793 202.627 15.3812 202.802 16.0156H202.916C203.138 15.3906 203.541 14.8911 204.123 14.517C204.71 14.1383 205.404 13.9489 206.204 13.9489C207.222 13.9489 208.048 14.2732 208.683 14.9219C209.322 15.5658 209.642 16.4796 209.642 17.6634V25H206.623V18.2599C206.623 17.6539 206.462 17.1993 206.14 16.8963C205.818 16.5933 205.416 16.4418 204.933 16.4418C204.384 16.4418 203.955 16.617 203.647 16.9673C203.34 17.313 203.186 17.7699 203.186 18.3381V25H200.252V18.196C200.252 17.661 200.099 17.2348 199.791 16.9176C199.488 16.6004 199.088 16.4418 198.591 16.4418C198.254 16.4418 197.951 16.527 197.681 16.6974C197.416 16.8632 197.206 17.0975 197.049 17.4006C196.893 17.6989 196.815 18.0492 196.815 18.4517V25H193.789ZM217.003 25.2131C215.881 25.2131 214.915 24.9858 214.105 24.5312C213.301 24.072 212.68 23.4233 212.245 22.5852C211.809 21.7424 211.591 20.7457 211.591 19.5952C211.591 18.473 211.809 17.4882 212.245 16.6406C212.68 15.7931 213.293 15.1326 214.084 14.6591C214.88 14.1856 215.812 13.9489 216.882 13.9489C217.602 13.9489 218.272 14.0649 218.892 14.2969C219.517 14.5241 220.062 14.8674 220.526 15.3267C220.995 15.786 221.359 16.3636 221.62 17.0597C221.88 17.7509 222.01 18.5606 222.01 19.4886V20.3196H212.799V18.4446H219.162C219.162 18.009 219.068 17.6231 218.878 17.2869C218.689 16.9508 218.426 16.688 218.09 16.4986C217.758 16.3045 217.373 16.2074 216.932 16.2074C216.473 16.2074 216.066 16.3139 215.711 16.527C215.36 16.7353 215.086 17.017 214.887 17.3722C214.688 17.7225 214.586 18.1132 214.581 18.544V20.3267C214.581 20.8665 214.681 21.3329 214.88 21.7259C215.083 22.1188 215.37 22.4219 215.739 22.6349C216.108 22.848 216.546 22.9545 217.053 22.9545C217.389 22.9545 217.697 22.9072 217.976 22.8125C218.256 22.7178 218.495 22.5758 218.694 22.3864C218.892 22.197 219.044 21.965 219.148 21.6903L221.946 21.875C221.804 22.5473 221.513 23.1345 221.073 23.6364C220.637 24.1335 220.074 24.5218 219.382 24.8011C218.696 25.0758 217.903 25.2131 217.003 25.2131ZM227.01 18.6932V25H223.985V14.0909H226.868V16.0156H226.996C227.238 15.3812 227.642 14.8793 228.211 14.5099C228.779 14.1359 229.468 13.9489 230.277 13.9489C231.035 13.9489 231.695 14.1146 232.259 14.446C232.822 14.7775 233.26 15.2509 233.573 15.8665C233.885 16.4773 234.042 17.2064 234.042 18.054V25H231.016V18.5938C231.021 17.9261 230.85 17.4053 230.505 17.0312C230.159 16.6525 229.683 16.4631 229.077 16.4631C228.67 16.4631 228.31 16.5507 227.998 16.7259C227.69 16.901 227.448 17.1567 227.273 17.4929C227.103 17.8243 227.015 18.2244 227.01 18.6932ZM242.229 14.0909V16.3636H235.659V14.0909H242.229ZM237.151 11.4773H240.176V21.6477C240.176 21.9271 240.219 22.1449 240.304 22.3011C240.389 22.4527 240.508 22.5592 240.659 22.6207C240.815 22.6823 240.995 22.7131 241.199 22.7131C241.341 22.7131 241.483 22.7012 241.625 22.6776C241.767 22.6491 241.876 22.6278 241.952 22.6136L242.428 24.8651C242.276 24.9124 242.063 24.9669 241.788 25.0284C241.514 25.0947 241.18 25.1349 240.787 25.1491C240.058 25.1776 239.419 25.0805 238.869 24.858C238.325 24.6354 237.901 24.2898 237.598 23.821C237.295 23.3523 237.146 22.7604 237.151 22.0455V11.4773ZM247.31 25.206C246.614 25.206 245.994 25.0852 245.45 24.8438C244.905 24.5975 244.474 24.2353 244.157 23.7571C243.844 23.2741 243.688 22.6728 243.688 21.9531C243.688 21.3471 243.799 20.8381 244.022 20.4261C244.245 20.0142 244.548 19.6828 244.931 19.4318C245.315 19.1809 245.75 18.9915 246.238 18.8636C246.73 18.7358 247.246 18.6458 247.786 18.5938C248.421 18.5275 248.932 18.4659 249.32 18.4091C249.709 18.3475 249.99 18.2576 250.165 18.1392C250.341 18.0208 250.428 17.8456 250.428 17.6136V17.571C250.428 17.1212 250.286 16.7732 250.002 16.527C249.723 16.2808 249.325 16.1577 248.809 16.1577C248.264 16.1577 247.831 16.2784 247.509 16.5199C247.187 16.7566 246.974 17.0549 246.87 17.4148L244.072 17.1875C244.214 16.5246 244.493 15.9517 244.91 15.4688C245.326 14.9811 245.864 14.607 246.522 14.3466C247.185 14.0814 247.952 13.9489 248.823 13.9489C249.429 13.9489 250.009 14.0199 250.563 14.1619C251.122 14.304 251.617 14.5241 252.048 14.8224C252.483 15.1207 252.826 15.5043 253.077 15.973C253.328 16.437 253.454 16.9934 253.454 17.642V25H250.585V23.4872H250.499C250.324 23.8281 250.09 24.1288 249.796 24.3892C249.503 24.6449 249.15 24.8461 248.738 24.9929C248.326 25.1349 247.85 25.206 247.31 25.206ZM248.177 23.1179C248.622 23.1179 249.015 23.0303 249.356 22.8551C249.697 22.6752 249.964 22.4337 250.158 22.1307C250.353 21.8277 250.45 21.4844 250.45 21.1009V19.9432C250.355 20.0047 250.225 20.0616 250.059 20.1136C249.898 20.161 249.716 20.206 249.512 20.2486C249.308 20.2865 249.105 20.322 248.901 20.3551C248.698 20.3835 248.513 20.4096 248.347 20.4332C247.992 20.4853 247.682 20.5682 247.417 20.6818C247.152 20.7955 246.946 20.9493 246.799 21.1435C246.652 21.3329 246.579 21.5696 246.579 21.8537C246.579 22.2656 246.728 22.5805 247.026 22.7983C247.329 23.0114 247.713 23.1179 248.177 23.1179ZM255.801 25V14.0909H258.734V15.9943H258.848C259.047 15.3172 259.381 14.8059 259.849 14.4602C260.318 14.1098 260.858 13.9347 261.469 13.9347C261.62 13.9347 261.784 13.9441 261.959 13.9631C262.134 13.982 262.288 14.008 262.42 14.0412V16.7259C262.278 16.6832 262.082 16.6454 261.831 16.6122C261.58 16.5791 261.35 16.5625 261.142 16.5625C260.697 16.5625 260.299 16.6596 259.949 16.8537C259.603 17.0431 259.329 17.3082 259.125 17.6491C258.926 17.9901 258.827 18.383 258.827 18.8281V25H255.801ZM263.985 25V14.0909H267.01V25H263.985ZM265.505 12.6847C265.055 12.6847 264.669 12.5355 264.347 12.2372C264.03 11.9342 263.871 11.572 263.871 11.1506C263.871 10.7339 264.03 10.3764 264.347 10.0781C264.669 9.77509 265.055 9.62358 265.505 9.62358C265.954 9.62358 266.338 9.77509 266.655 10.0781C266.977 10.3764 267.138 10.7339 267.138 11.1506C267.138 11.572 266.977 11.9342 266.655 12.2372C266.338 12.5355 265.954 12.6847 265.505 12.6847ZM274.363 25.2131C273.26 25.2131 272.306 24.9787 271.501 24.5099C270.701 24.0365 270.083 23.3783 269.647 22.5355C269.211 21.688 268.994 20.7055 268.994 19.5881C268.994 18.4612 269.211 17.4763 269.647 16.6335C270.083 15.786 270.701 15.1278 271.501 14.6591C272.306 14.1856 273.26 13.9489 274.363 13.9489C275.466 13.9489 276.418 14.1856 277.218 14.6591C278.023 15.1278 278.643 15.786 279.079 16.6335C279.514 17.4763 279.732 18.4612 279.732 19.5881C279.732 20.7055 279.514 21.688 279.079 22.5355C278.643 23.3783 278.023 24.0365 277.218 24.5099C276.418 24.9787 275.466 25.2131 274.363 25.2131ZM274.377 22.8693C274.879 22.8693 275.298 22.7273 275.634 22.4432C275.97 22.1544 276.224 21.7614 276.394 21.2642C276.569 20.767 276.657 20.2012 276.657 19.5668C276.657 18.9323 276.569 18.3665 276.394 17.8693C276.224 17.3722 275.97 16.9792 275.634 16.6903C275.298 16.4015 274.879 16.2571 274.377 16.2571C273.871 16.2571 273.444 16.4015 273.099 16.6903C272.758 16.9792 272.5 17.3722 272.325 17.8693C272.154 18.3665 272.069 18.9323 272.069 19.5668C272.069 20.2012 272.154 20.767 272.325 21.2642C272.5 21.7614 272.758 22.1544 273.099 22.4432C273.444 22.7273 273.871 22.8693 274.377 22.8693ZM290.776 17.2017L288.006 17.3722C287.959 17.1354 287.857 16.9223 287.701 16.733C287.545 16.5388 287.339 16.3849 287.083 16.2713C286.832 16.1529 286.531 16.0938 286.181 16.0938C285.712 16.0938 285.317 16.1932 284.995 16.392C284.673 16.5862 284.512 16.8466 284.512 17.1733C284.512 17.4337 284.616 17.6539 284.825 17.8338C285.033 18.0137 285.39 18.1581 285.897 18.267L287.871 18.6648C288.932 18.8826 289.723 19.233 290.244 19.7159C290.764 20.1989 291.025 20.8333 291.025 21.6193C291.025 22.3343 290.814 22.9616 290.393 23.5014C289.976 24.0412 289.403 24.4626 288.674 24.7656C287.95 25.0639 287.114 25.2131 286.167 25.2131C284.723 25.2131 283.572 24.9124 282.715 24.3111C281.863 23.705 281.363 22.8812 281.217 21.8395L284.192 21.6832C284.282 22.1236 284.5 22.4598 284.846 22.6918C285.192 22.919 285.634 23.0327 286.174 23.0327C286.704 23.0327 287.13 22.9309 287.452 22.7273C287.779 22.5189 287.945 22.2514 287.95 21.9247C287.945 21.6501 287.829 21.4252 287.602 21.25C287.374 21.0701 287.024 20.9328 286.55 20.8381L284.661 20.4616C283.596 20.2486 282.803 19.8793 282.282 19.3537C281.766 18.8281 281.508 18.1581 281.508 17.3438C281.508 16.643 281.697 16.0393 282.076 15.5327C282.46 15.026 282.997 14.6354 283.688 14.3608C284.384 14.0862 285.199 13.9489 286.131 13.9489C287.509 13.9489 288.594 14.2401 289.384 14.8224C290.18 15.4048 290.644 16.1979 290.776 17.2017Z" fill="white"/>
</svg>
