<svg width="90" height="23" viewBox="0 0 90 23" fill="none" xmlns="http://www.w3.org/2000/svg">
<path d="M90 0.00878906H17.7373L0.36116 22.0818H90V0.00878906Z" fill="#9747FF"/>
<path d="M29.5483 16.0205H27.2812L30.2259 7.29323H33.0341L35.9787 16.0205H33.7116L31.6619 9.4921H31.5938L29.5483 16.0205ZM29.2457 12.5858H33.9844V14.1881H29.2457V12.5858ZM39.5636 16.1441C38.8732 16.1441 38.2809 16.002 37.7866 15.718C37.2951 15.4339 36.9173 15.039 36.6531 14.5333C36.3888 14.0248 36.2567 13.4367 36.2567 12.7691C36.2567 12.0986 36.3888 11.5106 36.6531 11.0049C36.9201 10.4964 37.2994 10.1001 37.7908 9.81596C38.2852 9.53187 38.8746 9.38983 39.5593 9.38983C40.1644 9.38983 40.6914 9.4992 41.1403 9.71795C41.592 9.9367 41.9442 10.2464 42.1971 10.6469C42.4528 11.0447 42.5877 11.512 42.6019 12.0489H40.6545C40.6147 11.7137 40.5011 11.4509 40.3136 11.2606C40.1289 11.0702 39.8874 10.9751 39.5891 10.9751C39.3477 10.9751 39.136 11.0432 38.9542 11.1796C38.7724 11.3131 38.6303 11.512 38.5281 11.7762C38.4286 12.0376 38.3789 12.3614 38.3789 12.7478C38.3789 13.1341 38.4286 13.4608 38.5281 13.7279C38.6303 13.9921 38.7724 14.1924 38.9542 14.3287C39.136 14.4623 39.3477 14.529 39.5891 14.529C39.7823 14.529 39.9528 14.4878 40.1005 14.4055C40.2511 14.3231 40.3746 14.2023 40.4712 14.0432C40.5678 13.8813 40.6289 13.6853 40.6545 13.4552H42.6019C42.582 13.9949 42.4471 14.4665 42.1971 14.8699C41.9499 15.2733 41.6019 15.5873 41.1531 15.8117C40.707 16.0333 40.1772 16.1441 39.5636 16.1441ZM46.7237 16.1441C46.0334 16.1441 45.4411 16.002 44.9467 15.718C44.4553 15.4339 44.0774 15.039 43.8132 14.5333C43.549 14.0248 43.4169 13.4367 43.4169 12.7691C43.4169 12.0986 43.549 11.5106 43.8132 11.0049C44.0803 10.4964 44.4595 10.1001 44.951 9.81596C45.4453 9.53187 46.0348 9.38983 46.7195 9.38983C47.3246 9.38983 47.8516 9.4992 48.3004 9.71795C48.7521 9.9367 49.1044 10.2464 49.3572 10.6469C49.6129 11.0447 49.7479 11.512 49.7621 12.0489H47.8146C47.7749 11.7137 47.6612 11.4509 47.4737 11.2606C47.2891 11.0702 47.0476 10.9751 46.7493 10.9751C46.5078 10.9751 46.2962 11.0432 46.1143 11.1796C45.9325 11.3131 45.7905 11.512 45.6882 11.7762C45.5888 12.0376 45.5391 12.3614 45.5391 12.7478C45.5391 13.1341 45.5888 13.4608 45.6882 13.7279C45.7905 13.9921 45.9325 14.1924 46.1143 14.3287C46.2962 14.4623 46.5078 14.529 46.7493 14.529C46.9425 14.529 47.1129 14.4878 47.2607 14.4055C47.4112 14.3231 47.5348 14.2023 47.6314 14.0432C47.728 13.8813 47.7891 13.6853 47.8146 13.4552H49.7621C49.7422 13.9949 49.6072 14.4665 49.3572 14.8699C49.1101 15.2733 48.7621 15.5873 48.3132 15.8117C47.8672 16.0333 47.3374 16.1441 46.7237 16.1441ZM50.8285 16.0205V9.47505H52.9123V16.0205H50.8285ZM51.8725 8.71227C51.5799 8.71227 51.3285 8.61568 51.1183 8.4225C50.908 8.22647 50.8029 7.99068 50.8029 7.71511C50.8029 7.44238 50.908 7.20943 51.1183 7.01625C51.3285 6.82022 51.5799 6.72221 51.8725 6.72221C52.168 6.72221 52.4194 6.82022 52.6268 7.01625C52.837 7.20943 52.9421 7.44238 52.9421 7.71511C52.9421 7.99068 52.837 8.22647 52.6268 8.4225C52.4194 8.61568 52.168 8.71227 51.8725 8.71227ZM57.294 16.1441C56.6065 16.1441 56.0156 16.0035 55.5213 15.7222C55.0298 15.4381 54.6506 15.0432 54.3835 14.5376C54.1193 14.029 53.9872 13.4395 53.9872 12.7691C53.9872 12.0958 54.1193 11.5063 54.3835 11.0006C54.6506 10.4921 55.0298 10.0972 55.5213 9.81596C56.0156 9.53187 56.6065 9.38983 57.294 9.38983C57.9815 9.38983 58.571 9.53187 59.0625 9.81596C59.5568 10.0972 59.9361 10.4921 60.2003 11.0006C60.4673 11.5063 60.6009 12.0958 60.6009 12.7691C60.6009 13.4395 60.4673 14.029 60.2003 14.5376C59.9361 15.0432 59.5568 15.4381 59.0625 15.7222C58.571 16.0035 57.9815 16.1441 57.294 16.1441ZM57.3068 14.5716C57.5568 14.5716 57.7685 14.4949 57.9418 14.3415C58.1151 14.1881 58.2472 13.9751 58.3381 13.7023C58.4318 13.4296 58.4787 13.1143 58.4787 12.7563C58.4787 12.3927 58.4318 12.0745 58.3381 11.8018C58.2472 11.529 58.1151 11.316 57.9418 11.1626C57.7685 11.0091 57.5568 10.9324 57.3068 10.9324C57.0483 10.9324 56.8295 11.0091 56.6506 11.1626C56.4744 11.316 56.3395 11.529 56.2457 11.8018C56.1548 12.0745 56.1094 12.3927 56.1094 12.7563C56.1094 13.1143 56.1548 13.4296 56.2457 13.7023C56.3395 13.9751 56.4744 14.1881 56.6506 14.3415C56.8295 14.4949 57.0483 14.5716 57.3068 14.5716ZM56.5739 8.64409L57.4347 6.72221H59.2798L57.9929 8.64409H56.5739ZM63.7521 12.2876V16.0205H61.6683V9.47505H63.6499V10.6768H63.7223C63.8672 10.2762 64.1143 9.96227 64.4638 9.735C64.8132 9.50488 65.2294 9.38983 65.7124 9.38983C66.1726 9.38983 66.5717 9.49352 66.9098 9.70091C67.2507 9.90545 67.5149 10.1924 67.7024 10.5617C67.8928 10.9282 67.9865 11.3572 67.9837 11.8486V16.0205H65.8999V12.2577C65.9027 11.8941 65.8104 11.61 65.6229 11.4055C65.4382 11.2009 65.1811 11.0986 64.8516 11.0986C64.6328 11.0986 64.4396 11.1469 64.272 11.2435C64.1072 11.3373 63.9794 11.4722 63.8885 11.6483C63.8004 11.8245 63.755 12.0376 63.7521 12.2876Z" fill="white"/>
</svg>
