<svg width="149" height="23" viewBox="0 0 149 23" fill="none" xmlns="http://www.w3.org/2000/svg">
<path d="M133.366 0.00878906L18.0426 0.00878906L0.00325513 22.0829L148.828 22.0829L133.366 0.00878906Z" fill="#9747FF"/>
<path d="M31.6605 15.0186L31.6605 6.29128L33.7699 6.29128L33.7699 9.79412L37.2088 9.79412L37.2088 6.29128L39.3139 6.29128L39.3139 15.0186L37.2088 15.0186L37.2088 11.5115L33.7699 11.5115L33.7699 15.0186L31.6605 15.0186ZM42.4822 15.1293C42.0646 15.1293 41.6939 15.0597 41.37 14.9205C41.049 14.7785 40.7947 14.5654 40.6072 14.2813C40.4226 13.9944 40.3303 13.635 40.3303 13.2032C40.3303 12.8396 40.3942 12.5328 40.522 12.2828C40.6499 12.0328 40.826 11.8296 41.0504 11.6734C41.2749 11.5171 41.5334 11.3992 41.826 11.3197C42.1186 11.2373 42.4311 11.1819 42.7635 11.1535C43.1357 11.1194 43.4354 11.0839 43.6626 11.047C43.8899 11.0072 44.0547 10.9518 44.157 10.8808C44.2621 10.8069 44.3146 10.7032 44.3146 10.5697L44.3146 10.5484C44.3146 10.3296 44.2393 10.1606 44.0888 10.0413C43.9382 9.92196 43.7351 9.8623 43.4794 9.8623C43.2038 9.8623 42.9822 9.92196 42.8146 10.0413C42.647 10.1606 42.5405 10.3254 42.495 10.5356L40.5732 10.4674C40.63 10.0697 40.7763 9.71458 41.0121 9.40208C41.2507 9.08674 41.5774 8.83958 41.9922 8.6606C42.4098 8.47878 42.9112 8.38787 43.4964 8.38787C43.9141 8.38787 44.299 8.43759 44.6513 8.53702C45.0036 8.63361 45.3104 8.77565 45.5717 8.96315C45.8331 9.14781 46.0348 9.37509 46.1768 9.64497C46.3217 9.91486 46.3942 10.2231 46.3942 10.5697L46.3942 15.0186L44.434 15.0186L44.434 14.1066L44.3828 14.1066C44.2663 14.3282 44.1172 14.5157 43.9354 14.6691C43.7564 14.8225 43.5447 14.9376 43.3004 15.0143C43.059 15.091 42.7862 15.1293 42.4822 15.1293ZM43.1257 13.7657C43.3501 13.7657 43.5518 13.7203 43.7308 13.6293C43.9126 13.5384 44.0575 13.4134 44.1655 13.2543C44.2734 13.0924 44.3274 12.9049 44.3274 12.6918L44.3274 12.0697C44.2678 12.1009 44.1953 12.1293 44.1101 12.1549C44.0277 12.1805 43.9368 12.2046 43.8374 12.2274C43.7379 12.2501 43.6357 12.27 43.5305 12.287C43.4254 12.3041 43.3246 12.3197 43.228 12.3339C43.032 12.3651 42.8643 12.4134 42.7251 12.4788C42.5888 12.5441 42.4837 12.6293 42.4098 12.7345C42.3388 12.8367 42.3033 12.9589 42.3033 13.1009C42.3033 13.3168 42.38 13.4816 42.5334 13.5953C42.6896 13.7089 42.8871 13.7657 43.1257 13.7657ZM50.7237 15.1421C50.0334 15.1421 49.4411 15.0001 48.9467 14.716C48.4553 14.4319 48.0774 14.037 47.8132 13.5313C47.549 13.0228 47.4169 12.4347 47.4169 11.7671C47.4169 11.0967 47.549 10.5086 47.8132 10.0029C48.0803 9.4944 48.4595 9.0981 48.951 8.81401C49.4453 8.52992 50.0348 8.38787 50.7195 8.38787C51.3246 8.38787 51.8516 8.49724 52.3004 8.71599C52.7521 8.93474 53.1044 9.2444 53.3572 9.64497C53.6129 10.0427 53.7479 10.51 53.7621 11.047L51.8146 11.047C51.7749 10.7117 51.6612 10.4489 51.4737 10.2586C51.2891 10.0683 51.0476 9.9731 50.7493 9.9731C50.5078 9.9731 50.2962 10.0413 50.1143 10.1776C49.9325 10.3112 49.7905 10.51 49.6882 10.7742C49.5888 11.0356 49.5391 11.3595 49.5391 11.7458C49.5391 12.1322 49.5888 12.4589 49.6882 12.7259C49.7905 12.9901 49.9325 13.1904 50.1143 13.3268C50.2962 13.4603 50.5078 13.5271 50.7493 13.5271C50.9425 13.5271 51.1129 13.4859 51.2607 13.4035C51.4112 13.3211 51.5348 13.2004 51.6314 13.0413C51.728 12.8793 51.7891 12.6833 51.8146 12.4532L53.7621 12.4532C53.7422 12.993 53.6072 13.4646 53.3572 13.868C53.1101 14.2714 52.7621 14.5853 52.3132 14.8097C51.8672 15.0313 51.3374 15.1421 50.7237 15.1421ZM56.7077 13.3012L56.7163 10.8168L57.006 10.8168L58.8469 8.4731L61.2077 8.4731L58.4719 11.8311L57.9222 11.8311L56.7077 13.3012ZM54.8285 15.0186L54.8285 6.29128L56.9123 6.29128L56.9123 15.0186L54.8285 15.0186ZM58.8938 15.0186L57.1808 12.2998L58.5529 10.8211L61.3015 15.0186L58.8938 15.0186ZM66.3768 15.1293C65.9592 15.1293 65.5884 15.0597 65.2646 14.9205C64.9435 14.7785 64.6893 14.5654 64.5018 14.2813C64.3171 13.9944 64.2248 13.635 64.2248 13.2032C64.2248 12.8396 64.2887 12.5328 64.4165 12.2828C64.5444 12.0328 64.7205 11.8296 64.945 11.6734C65.1694 11.5171 65.4279 11.3992 65.7205 11.3197C66.0131 11.2373 66.3256 11.1819 66.658 11.1535C67.0302 11.1194 67.3299 11.0839 67.5572 11.047C67.7844 11.0072 67.9492 10.9518 68.0515 10.8808C68.1566 10.8069 68.2092 10.7032 68.2092 10.5697L68.2092 10.5484C68.2092 10.3296 68.1339 10.1606 67.9833 10.0413C67.8327 9.92196 67.6296 9.8623 67.3739 9.8623C67.0984 9.8623 66.8768 9.92196 66.7092 10.0413C66.5415 10.1606 66.435 10.3254 66.3896 10.5356L64.4677 10.4674C64.5245 10.0697 64.6708 9.71457 64.9066 9.40207C65.1452 9.08673 65.4719 8.83957 65.8867 8.66059C66.3043 8.47878 66.8058 8.38787 67.391 8.38787C67.8086 8.38787 68.1935 8.43758 68.5458 8.53701C68.8981 8.63361 69.2049 8.77565 69.4663 8.96315C69.7276 9.14781 69.9293 9.37508 70.0714 9.64497C70.2163 9.91486 70.2887 10.2231 70.2887 10.5697L70.2887 15.0185L68.3285 15.0185L68.3285 14.1066L68.2773 14.1066C68.1609 14.3282 68.0117 14.5157 67.8299 14.6691C67.6509 14.8225 67.4393 14.9376 67.195 15.0143C66.9535 15.091 66.6808 15.1293 66.3768 15.1293ZM67.0202 13.7657C67.2447 13.7657 67.4464 13.7203 67.6254 13.6293C67.8072 13.5384 67.9521 13.4134 68.06 13.2543C68.168 13.0924 68.2219 12.9049 68.2219 12.6918L68.2219 12.0697C68.1623 12.1009 68.0898 12.1293 68.0046 12.1549C67.9222 12.1805 67.8313 12.2046 67.7319 12.2274C67.6325 12.2501 67.5302 12.27 67.4251 12.287C67.32 12.3041 67.2191 12.3197 67.1225 12.3339C66.9265 12.3651 66.7589 12.4134 66.6197 12.4788C66.4833 12.5441 66.3782 12.6293 66.3043 12.7345C66.2333 12.8367 66.1978 12.9589 66.1978 13.1009C66.1978 13.3168 66.2745 13.4816 66.4279 13.5953C66.5842 13.7089 66.7816 13.7657 67.0202 13.7657ZM73.6467 11.2856L73.6467 15.0185L71.5629 15.0185L71.5629 8.47309L73.5444 8.47309L73.5444 9.6748L73.6168 9.6748C73.7617 9.27423 74.0089 8.96031 74.3583 8.73304C74.7077 8.50292 75.1239 8.38787 75.6069 8.38787C76.0671 8.38787 76.4663 8.49156 76.8043 8.69895C77.1452 8.90349 77.4094 9.19042 77.5969 9.55974C77.7873 9.92622 77.881 10.3552 77.8782 10.8467L77.8782 15.0185L75.7944 15.0185L75.7944 11.2558C75.7972 10.8921 75.7049 10.608 75.5174 10.4035C75.3327 10.1989 75.0756 10.0967 74.7461 10.0967C74.5273 10.0967 74.3342 10.145 74.1665 10.2416C74.0018 10.3353 73.8739 10.4703 73.783 10.6464C73.695 10.8225 73.6495 11.0356 73.6467 11.2856ZM81.559 15.1123C81.076 15.1123 80.6371 14.9873 80.2422 14.7373C79.8473 14.4873 79.532 14.1123 79.2962 13.6123C79.0604 13.1123 78.9425 12.4916 78.9425 11.7501C78.9425 10.9802 79.0646 10.3467 79.3089 9.84951C79.5533 9.35235 79.8729 8.98446 80.2678 8.74582C80.6655 8.50718 81.093 8.38787 81.5504 8.38787C81.8942 8.38787 82.1882 8.44752 82.4325 8.56684C82.6768 8.68332 82.8786 8.83389 83.0376 9.01855C83.1967 9.20321 83.3175 9.39497 83.3999 9.59383L83.4425 9.59383L83.4425 6.29127L85.5263 6.29127L85.5263 15.0185L83.4638 15.0185L83.4638 13.9575L83.3999 13.9575C83.3118 14.1592 83.1868 14.3481 83.0249 14.5242C82.8629 14.7004 82.6598 14.8424 82.4155 14.9504C82.174 15.0583 81.8885 15.1123 81.559 15.1123ZM82.2834 13.4887C82.5362 13.4887 82.7521 13.4177 82.9311 13.2756C83.1101 13.1308 83.2479 12.9276 83.3445 12.6663C83.4411 12.4049 83.4893 12.0981 83.4893 11.7458C83.4893 11.3879 83.4411 11.0796 83.3445 10.8211C83.2507 10.5626 83.1129 10.3637 82.9311 10.2245C82.7521 10.0853 82.5362 10.0157 82.2834 10.0157C82.0249 10.0157 81.8061 10.0867 81.6271 10.2288C81.4482 10.3708 81.3118 10.5711 81.218 10.8296C81.1271 11.0881 81.0817 11.3935 81.0817 11.7458C81.0817 12.0981 81.1286 12.4049 81.2223 12.6663C81.3161 12.9276 81.451 13.1308 81.6271 13.2756C81.8061 13.4177 82.0249 13.4887 82.2834 13.4887ZM95.1367 10.4717L93.2234 10.5228C93.2035 10.3864 93.1495 10.2657 93.0614 10.1606C92.9734 10.0526 92.8583 9.96883 92.7163 9.90917C92.5771 9.84667 92.4151 9.81542 92.2305 9.81542C91.989 9.81542 91.783 9.86372 91.6126 9.96031C91.445 10.0569 91.3626 10.1876 91.3654 10.3524C91.3626 10.4802 91.4137 10.591 91.5188 10.6847C91.6268 10.7785 91.8185 10.8538 92.0941 10.9106L93.3555 11.1492C94.0089 11.2742 94.4947 11.4816 94.8129 11.7714C95.1339 12.0612 95.2958 12.4447 95.2987 12.922C95.2958 13.3708 95.1623 13.7614 94.8981 14.0938C94.6367 14.4262 94.2788 14.6847 93.8242 14.8694C93.3697 15.0512 92.8498 15.1421 92.2646 15.1421C91.3299 15.1421 90.5927 14.9504 90.0529 14.5668C89.516 14.1805 89.2092 13.6634 89.1325 13.0157L91.1907 12.9646C91.2362 13.2032 91.354 13.385 91.5444 13.51C91.7347 13.635 91.9776 13.6975 92.2731 13.6975C92.5401 13.6975 92.7575 13.6478 92.9251 13.5484C93.0927 13.4489 93.1779 13.3168 93.1808 13.1521C93.1779 13.0043 93.1126 12.8864 92.9847 12.7984C92.8569 12.7075 92.6566 12.6364 92.3839 12.5853L91.2418 12.368C90.5856 12.2487 90.0969 12.0285 89.7759 11.7075C89.4549 11.3836 89.2958 10.9717 89.2987 10.4717C89.2958 10.0342 89.4123 9.66059 89.6481 9.35093C89.8839 9.03843 90.2191 8.7998 90.6538 8.63502C91.0884 8.47025 91.6012 8.38786 92.1921 8.38786C93.0785 8.38786 93.7773 8.57394 94.2887 8.9461C94.8001 9.31542 95.0827 9.82394 95.1367 10.4717ZM98.4084 6.29127L98.4084 15.0185L96.3246 15.0185L96.3246 6.29127L98.4084 6.29127ZM101.58 15.1293C101.162 15.1293 100.792 15.0597 100.468 14.9205C100.147 14.7785 99.8924 14.5654 99.7049 14.2813C99.5202 13.9944 99.4279 13.635 99.4279 13.2032C99.4279 12.8396 99.4918 12.5327 99.6197 12.2827C99.7475 12.0327 99.9237 11.8296 100.148 11.6734C100.373 11.5171 100.631 11.3992 100.924 11.3197C101.216 11.2373 101.529 11.1819 101.861 11.1535C102.233 11.1194 102.533 11.0839 102.76 11.047C102.988 11.0072 103.152 10.9518 103.255 10.8808C103.36 10.8069 103.412 10.7032 103.412 10.5697L103.412 10.5484C103.412 10.3296 103.337 10.1606 103.186 10.0413C103.036 9.92195 102.833 9.86229 102.577 9.86229C102.301 9.86229 102.08 9.92195 101.912 10.0413C101.745 10.1606 101.638 10.3254 101.593 10.5356L99.6708 10.4674C99.7276 10.0697 99.8739 9.71457 100.11 9.40207C100.348 9.08673 100.675 8.83957 101.09 8.66059C101.507 8.47877 102.009 8.38786 102.594 8.38786C103.012 8.38786 103.397 8.43758 103.749 8.53701C104.101 8.6336 104.408 8.77565 104.669 8.96315C104.931 9.1478 105.132 9.37508 105.275 9.64496C105.419 9.91485 105.492 10.2231 105.492 10.5697L105.492 15.0185L103.532 15.0185L103.532 14.1066L103.48 14.1066C103.364 14.3282 103.215 14.5157 103.033 14.6691C102.854 14.8225 102.642 14.9376 102.398 15.0143C102.157 15.091 101.884 15.1293 101.58 15.1293ZM102.223 13.7657C102.448 13.7657 102.65 13.7202 102.828 13.6293C103.01 13.5384 103.155 13.4134 103.263 13.2543C103.371 13.0924 103.425 12.9049 103.425 12.6918L103.425 12.0697C103.365 12.1009 103.293 12.1293 103.208 12.1549C103.125 12.1805 103.034 12.2046 102.935 12.2274C102.836 12.2501 102.733 12.27 102.628 12.287C102.523 12.3041 102.422 12.3197 102.326 12.3339C102.13 12.3651 101.962 12.4134 101.823 12.4788C101.686 12.5441 101.581 12.6293 101.507 12.7345C101.436 12.8367 101.401 12.9589 101.401 13.1009C101.401 13.3168 101.478 13.4816 101.631 13.5952C101.787 13.7089 101.985 13.7657 102.223 13.7657ZM112.48 10.4717L110.567 10.5228C110.547 10.3864 110.493 10.2657 110.405 10.1606C110.317 10.0526 110.202 9.96883 110.06 9.90917C109.921 9.84667 109.759 9.81542 109.574 9.81542C109.333 9.81542 109.127 9.86371 108.956 9.9603C108.789 10.0569 108.706 10.1876 108.709 10.3523C108.706 10.4802 108.757 10.591 108.863 10.6847C108.971 10.7785 109.162 10.8538 109.438 10.9106L110.699 11.1492C111.353 11.2742 111.838 11.4816 112.157 11.7714C112.478 12.0612 112.64 12.4447 112.642 12.922C112.64 13.3708 112.506 13.7614 112.242 14.0938C111.98 14.4262 111.623 14.6847 111.168 14.8694C110.713 15.0512 110.194 15.1421 109.608 15.1421C108.674 15.1421 107.936 14.9504 107.397 14.5668C106.86 14.1805 106.553 13.6634 106.476 13.0157L108.534 12.9646C108.58 13.2032 108.698 13.385 108.888 13.51C109.078 13.635 109.321 13.6975 109.617 13.6975C109.884 13.6975 110.101 13.6478 110.269 13.5484C110.436 13.4489 110.522 13.3168 110.525 13.1521C110.522 13.0043 110.456 12.8864 110.328 12.7984C110.201 12.7075 110 12.6364 109.728 12.5853L108.586 12.368C107.929 12.2487 107.441 12.0285 107.12 11.7075C106.799 11.3836 106.64 10.9717 106.642 10.4717C106.64 10.0342 106.756 9.66059 106.992 9.35093C107.228 9.03843 107.563 8.79979 107.998 8.63502C108.432 8.47025 108.945 8.38786 109.536 8.38786C110.422 8.38786 111.121 8.57394 111.632 8.9461C112.144 9.31542 112.426 9.82394 112.48 10.4717ZM115.752 11.2856L115.752 15.0185L113.668 15.0185L113.668 6.29127L115.684 6.29127L115.684 9.67479L115.756 9.67479C115.904 9.27138 116.146 8.95604 116.481 8.72877C116.819 8.5015 117.232 8.38786 117.721 8.38786C118.181 8.38786 118.582 8.49013 118.923 8.69468C119.263 8.89638 119.528 9.18189 119.715 9.55121C119.906 9.92053 119.999 10.3523 119.996 10.8467L119.996 15.0185L117.913 15.0185L117.913 11.2558C117.915 10.8921 117.825 10.608 117.64 10.4035C117.455 10.1989 117.195 10.0967 116.86 10.0967C116.641 10.0967 116.448 10.145 116.281 10.2416C116.116 10.3353 115.987 10.4702 115.893 10.6464C115.802 10.8225 115.755 11.0356 115.752 11.2856Z" fill="white"/>
</svg>
