<svg width="117" height="20" viewBox="0 0 117 20" fill="none" xmlns="http://www.w3.org/2000/svg">
<path d="M12.0775 0L102.156 0L116.246 20L0 20L12.0775 0Z" fill="#FAFAFA"/>
<path d="M19.6715 13L19.6715 5.72727L21.4293 5.72727L21.4293 8.64631L24.2951 8.64631L24.2951 5.72727L26.0494 5.72727L26.0494 13L24.2951 13L24.2951 10.0774L21.4293 10.0774L21.4293 13L19.6715 13ZM28.6896 13.0923C28.3416 13.0923 28.0327 13.0343 27.7628 12.9183C27.4953 12.8 27.2834 12.6224 27.1271 12.3857C26.9732 12.1465 26.8963 11.8471 26.8963 11.4872C26.8963 11.1842 26.9496 10.9285 27.0561 10.7202C27.1626 10.5118 27.3094 10.3426 27.4964 10.2124C27.6835 10.0821 27.8989 9.9839 28.1428 9.91761C28.3866 9.84896 28.647 9.80279 28.924 9.77912C29.2341 9.75071 29.4839 9.72112 29.6733 9.69034C29.8627 9.6572 30 9.61103 30.0852 9.55184C30.1728 9.49029 30.2166 9.40388 30.2166 9.29261L30.2166 9.27486C30.2166 9.09256 30.1539 8.9517 30.0284 8.85227C29.9029 8.75284 29.7337 8.70312 29.5206 8.70312C29.291 8.70312 29.1063 8.75284 28.9666 8.85227C28.8269 8.9517 28.7382 9.08901 28.7003 9.2642L27.0987 9.20738C27.1461 8.87595 27.268 8.58002 27.4645 8.3196C27.6634 8.05682 27.9356 7.85085 28.2813 7.7017C28.6293 7.55019 29.0471 7.47443 29.5348 7.47443C29.8828 7.47443 30.2036 7.51586 30.4972 7.59872C30.7907 7.67921 31.0464 7.79758 31.2642 7.95383C31.482 8.10772 31.6501 8.29711 31.7685 8.52201C31.8892 8.74692 31.9496 9.00379 31.9496 9.29261L31.9496 13L30.3161 13L30.3161 12.2401L30.2734 12.2401C30.1764 12.4247 30.0521 12.581 29.9006 12.7088C29.7514 12.8366 29.575 12.9325 29.3715 12.9964C29.1702 13.0604 28.9429 13.0923 28.6896 13.0923ZM29.2259 11.956C29.4129 11.956 29.581 11.9181 29.7301 11.8423C29.8816 11.7666 30.0024 11.6624 30.0923 11.5298C30.1823 11.3949 30.2273 11.2386 30.2273 11.0611L30.2273 10.5426C30.1776 10.5687 30.1172 10.5923 30.0462 10.6136C29.9775 10.6349 29.9018 10.6551 29.8189 10.674C29.736 10.6929 29.6508 10.7095 29.5632 10.7237C29.4756 10.7379 29.3916 10.7509 29.3111 10.7628C29.1477 10.7888 29.0081 10.8291 28.892 10.8835C28.7784 10.938 28.6908 11.009 28.6293 11.0966C28.5701 11.1818 28.5405 11.2836 28.5405 11.402C28.5405 11.5819 28.6044 11.7192 28.7322 11.8139C28.8625 11.9086 29.027 11.956 29.2259 11.956ZM35.5575 13.103C34.9822 13.103 34.4886 12.9846 34.0767 12.7479C33.6671 12.5111 33.3523 12.1821 33.1321 11.7607C32.9119 11.3369 32.8018 10.8468 32.8018 10.2905C32.8018 9.73177 32.9119 9.24171 33.1321 8.82031C33.3546 8.39654 33.6707 8.06629 34.0803 7.82954C34.4922 7.5928 34.9834 7.47443 35.554 7.47443C36.0582 7.47443 36.4974 7.56557 36.8714 7.74787C37.2479 7.93016 37.5414 8.18821 37.7521 8.52201C37.9652 8.85345 38.0777 9.24289 38.0895 9.69034L36.4666 9.69034C36.4335 9.41098 36.3388 9.19199 36.1825 9.03338C36.0286 8.87476 35.8274 8.79545 35.5788 8.79545C35.3776 8.79545 35.2012 8.85227 35.0497 8.96591C34.8982 9.07718 34.7798 9.24289 34.6946 9.46307C34.6117 9.68087 34.5703 9.95075 34.5703 10.2727C34.5703 10.5947 34.6117 10.8669 34.6946 11.0895C34.7798 11.3097 34.8982 11.4766 35.0497 11.5902C35.2012 11.7015 35.3776 11.7571 35.5788 11.7571C35.7398 11.7571 35.8819 11.7228 36.005 11.6541C36.1304 11.5855 36.2334 11.4848 36.3139 11.3523C36.3944 11.2173 36.4453 11.054 36.4666 10.8622L38.0895 10.8622C38.0729 11.312 37.9605 11.705 37.7521 12.0412C37.5462 12.3774 37.2562 12.639 36.8821 12.826C36.5104 13.0107 36.0689 13.103 35.5575 13.103ZM40.5442 11.5689L40.5513 9.49858L40.7928 9.49858L42.3269 7.54545L44.2942 7.54545L42.0144 10.3437L41.5563 10.3437L40.5442 11.5689ZM38.9782 13L38.9782 5.72727L40.7147 5.72727L40.7147 13L38.9782 13ZM42.3659 13L40.9384 10.7344L42.0819 9.50213L44.3723 13L42.3659 13ZM48.6017 13.0923C48.2537 13.0923 47.9448 13.0343 47.6749 12.9183C47.4074 12.7999 47.1955 12.6224 47.0392 12.3856C46.8854 12.1465 46.8084 11.8471 46.8084 11.4872C46.8084 11.1842 46.8617 10.9285 46.9682 10.7202C47.0748 10.5118 47.2215 10.3426 47.4086 10.2124C47.5956 10.0821 47.811 9.9839 48.0549 9.91761C48.2987 9.84895 48.5591 9.80279 48.8361 9.77911C49.1462 9.7507 49.396 9.72111 49.5854 9.69034C49.7748 9.65719 49.9121 9.61103 49.9973 9.55184C50.0849 9.49029 50.1287 9.40388 50.1287 9.29261L50.1287 9.27485C50.1287 9.09256 50.066 8.9517 49.9405 8.85227C49.815 8.75284 49.6458 8.70312 49.4327 8.70312C49.2031 8.70312 49.0184 8.75284 48.8787 8.85227C48.7391 8.9517 48.6503 9.08901 48.6124 9.2642L47.0108 9.20738C47.0582 8.87594 47.1801 8.58001 47.3766 8.3196C47.5755 8.05681 47.8477 7.85085 48.1934 7.7017C48.5414 7.55018 48.9592 7.47443 49.4469 7.47443C49.7949 7.47443 50.1157 7.51586 50.4093 7.59872C50.7028 7.67921 50.9585 7.79758 51.1763 7.95383C51.3941 8.10771 51.5622 8.29711 51.6806 8.52201C51.8013 8.74692 51.8617 9.00378 51.8617 9.29261L51.8617 13L50.2282 13L50.2282 12.2401L50.1855 12.2401C50.0885 12.4247 49.9642 12.581 49.8127 12.7088C49.6635 12.8366 49.4872 12.9325 49.2836 12.9964C49.0823 13.0604 48.8551 13.0923 48.6017 13.0923ZM49.138 11.956C49.325 11.956 49.4931 11.9181 49.6422 11.8423C49.7937 11.7666 49.9145 11.6624 50.0044 11.5298C50.0944 11.3949 50.1394 11.2386 50.1394 11.0611L50.1394 10.5426C50.0897 10.5686 50.0293 10.5923 49.9583 10.6136C49.8896 10.6349 49.8139 10.6551 49.731 10.674C49.6481 10.6929 49.5629 10.7095 49.4753 10.7237C49.3877 10.7379 49.3037 10.7509 49.2232 10.7628C49.0598 10.7888 48.9202 10.8291 48.8042 10.8835C48.6905 10.938 48.6029 11.009 48.5414 11.0966C48.4822 11.1818 48.4526 11.2836 48.4526 11.402C48.4526 11.5819 48.5165 11.7192 48.6444 11.8139C48.7746 11.9086 48.9391 11.956 49.138 11.956ZM54.66 9.8892L54.66 13L52.9235 13L52.9235 7.54545L54.5748 7.54545L54.5748 8.54687L54.6351 8.54687C54.7559 8.21306 54.9618 7.95146 55.253 7.76207C55.5442 7.57031 55.891 7.47443 56.2935 7.47443C56.677 7.47443 57.0096 7.56084 57.2914 7.73366C57.5755 7.90411 57.7956 8.14322 57.9519 8.45099C58.1105 8.75639 58.1886 9.11387 58.1863 9.52343L58.1863 13L56.4498 13L56.4498 9.86434C56.4521 9.56131 56.3752 9.32457 56.2189 9.15411C56.065 8.98366 55.8508 8.89843 55.5762 8.89843C55.3939 8.89843 55.2329 8.93868 55.0932 9.01917C54.9559 9.09729 54.8494 9.20975 54.7736 9.35653C54.7002 9.50331 54.6623 9.68086 54.66 9.8892ZM61.2536 13.0781C60.8511 13.0781 60.4853 12.974 60.1563 12.7656C59.8272 12.5573 59.5644 12.2448 59.3679 11.8281C59.1714 11.4115 59.0732 10.8942 59.0732 10.2763C59.0732 9.6347 59.175 9.10676 59.3786 8.69246C59.5822 8.27817 59.8485 7.97158 60.1776 7.77272C60.509 7.57386 60.8653 7.47442 61.2464 7.47442C61.5329 7.47442 61.7779 7.52414 61.9815 7.62357C62.1851 7.72064 62.3532 7.84611 62.4858 7.99999C62.6184 8.15387 62.719 8.31368 62.7876 8.4794L62.8232 8.4794L62.8232 5.72726L64.5597 5.72726L64.5597 13L62.8409 13L62.8409 12.1158L62.7876 12.1158C62.7143 12.2838 62.6101 12.4413 62.4751 12.5881C62.3402 12.7348 62.1709 12.8532 61.9673 12.9432C61.7661 13.0331 61.5282 13.0781 61.2536 13.0781ZM61.8572 11.7251C62.0679 11.7251 62.2479 11.6659 62.397 11.5476C62.5462 11.4268 62.661 11.2576 62.7415 11.0398C62.822 10.822 62.8622 10.5663 62.8622 10.2727C62.8622 9.97442 62.822 9.71756 62.7415 9.50212C62.6634 9.28669 62.5485 9.12097 62.397 9.00496C62.2479 8.88896 62.0679 8.83096 61.8572 8.83096C61.6418 8.83096 61.4595 8.89014 61.3104 9.00852C61.1612 9.12689 61.0476 9.29379 60.9695 9.50923C60.8937 9.72466 60.8558 9.97916 60.8558 10.2727C60.8558 10.5663 60.8949 10.822 60.973 11.0398C61.0511 11.2576 61.1636 11.4268 61.3104 11.5476C61.4595 11.6659 61.6418 11.7251 61.8572 11.7251ZM72.5684 9.21093L70.9739 9.25354C70.9573 9.13991 70.9123 9.03929 70.839 8.9517C70.7656 8.86173 70.6697 8.79189 70.5513 8.74218C70.4353 8.6901 70.3004 8.66405 70.1465 8.66405C69.9453 8.66405 69.7736 8.7043 69.6316 8.78479C69.4919 8.86528 69.4232 8.97419 69.4256 9.1115C69.4232 9.21803 69.4659 9.31036 69.5534 9.38849C69.6434 9.46661 69.8032 9.52935 70.0328 9.5767L71.084 9.77556C71.6285 9.87973 72.0333 10.0525 72.2985 10.294C72.566 10.5355 72.7009 10.8551 72.7033 11.2528C72.7009 11.6269 72.5897 11.9524 72.3695 12.2294C72.1517 12.5064 71.8534 12.7218 71.4746 12.8757C71.0958 13.0272 70.6626 13.103 70.1749 13.103C69.396 13.103 68.7817 12.9432 68.3319 12.6236C67.8844 12.3016 67.6287 11.8707 67.5648 11.331L69.28 11.2883C69.3179 11.4872 69.4161 11.6387 69.5748 11.7429C69.7334 11.8471 69.9358 11.8991 70.182 11.8991C70.4045 11.8991 70.5856 11.8577 70.7253 11.7748C70.865 11.692 70.936 11.5819 70.9384 11.4446C70.936 11.3215 70.8816 11.2232 70.775 11.1498C70.6685 11.0741 70.5016 11.0149 70.2743 10.9723L69.3226 10.7912C68.7757 10.6918 68.3685 10.5083 68.101 10.2408C67.8335 9.97087 67.7009 9.6276 67.7033 9.21093C67.7009 8.84635 67.798 8.53503 67.9945 8.27698C68.191 8.01656 68.4703 7.8177 68.8326 7.68039C69.1948 7.54308 69.6221 7.47442 70.1145 7.47442C70.8532 7.47442 71.4355 7.62949 71.8617 7.93962C72.2878 8.24739 72.5234 8.67116 72.5684 9.21093ZM75.2947 5.72726L75.2947 13L73.5582 13L73.5582 5.72726L75.2947 5.72726ZM77.9377 13.0923C77.5897 13.0923 77.2807 13.0343 77.0108 12.9183C76.7433 12.7999 76.5314 12.6224 76.3752 12.3856C76.2213 12.1465 76.1444 11.8471 76.1444 11.4872C76.1444 11.1842 76.1976 10.9285 76.3042 10.7202C76.4107 10.5118 76.5575 10.3426 76.7445 10.2123C76.9315 10.0821 77.147 9.98389 77.3908 9.9176C77.6346 9.84895 77.8951 9.80278 78.1721 9.77911C78.4822 9.7507 78.7319 9.72111 78.9213 9.69033C79.1107 9.65719 79.248 9.61102 79.3333 9.55184C79.4209 9.49028 79.4647 9.40387 79.4647 9.2926L79.4647 9.27485C79.4647 9.09256 79.4019 8.95169 79.2765 8.85226C79.151 8.75283 78.9817 8.70311 78.7686 8.70311C78.539 8.70311 78.3543 8.75283 78.2147 8.85226C78.075 8.95169 77.9862 9.089 77.9483 9.26419L76.3468 9.20738C76.3941 8.87594 76.516 8.58001 76.7125 8.31959C76.9114 8.05681 77.1837 7.85084 77.5293 7.70169C77.8773 7.55018 78.2952 7.47442 78.7828 7.47442C79.1309 7.47442 79.4516 7.51585 79.7452 7.59871C80.0388 7.6792 80.2944 7.79757 80.5123 7.95382C80.7301 8.10771 80.8981 8.2971 81.0165 8.52201C81.1373 8.74691 81.1976 9.00378 81.1976 9.2926L81.1976 13L79.5641 13L79.5641 12.24L79.5215 12.24C79.4244 12.4247 79.3001 12.581 79.1486 12.7088C78.9995 12.8366 78.8231 12.9325 78.6195 12.9964C78.4183 13.0604 78.191 13.0923 77.9377 13.0923ZM78.4739 11.956C78.6609 11.956 78.829 11.9181 78.9782 11.8423C79.1297 11.7666 79.2504 11.6624 79.3404 11.5298C79.4303 11.3949 79.4753 11.2386 79.4753 11.0611L79.4753 10.5426C79.4256 10.5686 79.3652 10.5923 79.2942 10.6136C79.2256 10.6349 79.1498 10.6551 79.0669 10.674C78.9841 10.6929 78.8989 10.7095 78.8113 10.7237C78.7237 10.7379 78.6396 10.7509 78.5591 10.7628C78.3958 10.7888 78.2561 10.8291 78.1401 10.8835C78.0265 10.938 77.9389 11.009 77.8773 11.0966C77.8181 11.1818 77.7885 11.2836 77.7885 11.402C77.7885 11.5819 77.8525 11.7192 77.9803 11.8139C78.1105 11.9086 78.275 11.956 78.4739 11.956ZM87.0215 9.21093L85.427 9.25354C85.4105 9.1399 85.3655 9.03929 85.2921 8.95169C85.2187 8.86173 85.1228 8.79189 85.0044 8.74218C84.8884 8.69009 84.7535 8.66405 84.5996 8.66405C84.3984 8.66405 84.2267 8.7043 84.0847 8.78479C83.945 8.86528 83.8764 8.97418 83.8787 9.11149C83.8764 9.21803 83.919 9.31036 84.0066 9.38848C84.0965 9.46661 84.2563 9.52934 84.486 9.57669L85.5371 9.77556C86.0816 9.87972 86.4864 10.0525 86.7516 10.294C87.0191 10.5355 87.1541 10.8551 87.1564 11.2528C87.1541 11.6269 87.0428 11.9524 86.8226 12.2294C86.6048 12.5064 86.3065 12.7218 85.9277 12.8757C85.5489 13.0272 85.1157 13.103 84.628 13.103C83.8491 13.103 83.2348 12.9432 82.785 12.6236C82.3375 12.3016 82.0819 11.8707 82.0179 11.331L83.7331 11.2883C83.771 11.4872 83.8693 11.6387 84.0279 11.7429C84.1865 11.8471 84.3889 11.8991 84.6351 11.8991C84.8577 11.8991 85.0388 11.8577 85.1784 11.7748C85.3181 11.692 85.3891 11.5819 85.3915 11.4446C85.3891 11.3215 85.3347 11.2232 85.2282 11.1498C85.1216 11.0741 84.9547 11.0149 84.7275 10.9723L83.7757 10.7912C83.2289 10.6918 82.8217 10.5083 82.5542 10.2408C82.2866 9.97087 82.1541 9.62759 82.1564 9.21093C82.1541 8.84634 82.2511 8.53503 82.4476 8.27698C82.6441 8.01656 82.9235 7.8177 83.2857 7.68039C83.6479 7.54308 84.0752 7.47442 84.5676 7.47442C85.3063 7.47442 85.8887 7.62949 86.3148 7.93962C86.7409 8.24738 86.9765 8.67115 87.0215 9.21093ZM89.7479 9.88919L89.7479 13L88.0114 13L88.0114 5.72726L89.6911 5.72726L89.6911 8.54686L89.7514 8.54686C89.8745 8.21069 90.0758 7.9479 90.3551 7.75851C90.6368 7.56912 90.9813 7.47442 91.3885 7.47442C91.772 7.47442 92.1058 7.55965 92.3899 7.7301C92.674 7.89819 92.8942 8.13611 93.0504 8.44388C93.209 8.75164 93.2872 9.11149 93.2848 9.52342L93.2848 13L91.5483 13L91.5483 9.86433C91.5507 9.5613 91.4749 9.32456 91.321 9.15411C91.1671 8.98365 90.9505 8.89843 90.6712 8.89843C90.4889 8.89843 90.3279 8.93867 90.1882 9.01916C90.0509 9.09729 89.9432 9.20974 89.8651 9.35652C89.7893 9.5033 89.7502 9.68086 89.7479 9.88919Z" fill="#414141"/>
</svg>
