<svg width="64" height="17" viewBox="0 0 64 17" fill="none" xmlns="http://www.w3.org/2000/svg">
<path d="M0 0H51.5938L64 16.233H0V0Z" fill="black"/>
<path d="M18.7861 12.4355V5.16282H21.7904C22.3349 5.16282 22.8049 5.26107 23.2002 5.45756C23.5979 5.65169 23.9045 5.93105 24.12 6.29563C24.3354 6.65785 24.4431 7.08754 24.4431 7.58469C24.4431 8.08896 24.333 8.51746 24.1129 8.87021C23.8927 9.22058 23.5802 9.4881 23.1754 9.67276C22.7705 9.85505 22.2911 9.9462 21.7371 9.9462H19.8373V8.56126H21.4104C21.6756 8.56126 21.8969 8.52693 22.0745 8.45827C22.2544 8.38725 22.3906 8.28072 22.4829 8.13867C22.5752 7.99426 22.6214 7.8096 22.6214 7.58469C22.6214 7.35979 22.5752 7.17395 22.4829 7.02717C22.3906 6.87802 22.2544 6.76675 22.0745 6.69336C21.8946 6.6176 21.6732 6.57972 21.4104 6.57972H20.544V12.4355H18.7861ZM22.8806 9.11168L24.6917 12.4355H22.7741L20.9985 9.11168H22.8806ZM27.846 12.5385C27.2731 12.5385 26.7806 12.4213 26.3687 12.187C25.9591 11.9502 25.6431 11.6212 25.4206 11.1998C25.2004 10.776 25.0903 10.2847 25.0903 9.72603C25.0903 9.16495 25.2004 8.67371 25.4206 8.25231C25.6431 7.82854 25.9591 7.49947 26.3687 7.26509C26.7806 7.02835 27.2731 6.90998 27.846 6.90998C28.4189 6.90998 28.9101 7.02835 29.3197 7.26509C29.7316 7.49947 30.0477 7.82854 30.2679 8.25231C30.4904 8.67371 30.6017 9.16495 30.6017 9.72603C30.6017 10.2847 30.4904 10.776 30.2679 11.1998C30.0477 11.6212 29.7316 11.9502 29.3197 12.187C28.9101 12.4213 28.4189 12.5385 27.846 12.5385ZM27.8566 11.2282C28.065 11.2282 28.2413 11.1642 28.3858 11.0364C28.5302 10.9086 28.6403 10.731 28.716 10.5037C28.7941 10.2765 28.8332 10.0137 28.8332 9.71538C28.8332 9.41235 28.7941 9.14719 28.716 8.91992C28.6403 8.69265 28.5302 8.51509 28.3858 8.38725C28.2413 8.25941 28.065 8.19549 27.8566 8.19549C27.6412 8.19549 27.4589 8.25941 27.3098 8.38725C27.163 8.51509 27.0505 8.69265 26.9724 8.91992C26.8966 9.14719 26.8588 9.41235 26.8588 9.71538C26.8588 10.0137 26.8966 10.2765 26.9724 10.5037C27.0505 10.731 27.163 10.9086 27.3098 11.0364C27.4589 11.1642 27.6412 11.2282 27.8566 11.2282ZM33.2277 5.16282V12.4355H31.4912V5.16282H33.2277ZM36.0695 5.16282V12.4355H34.333V5.16282H36.0695Z" fill="white"/>
</svg>
