<svg width="64" height="17" viewBox="0 0 64 17" fill="none" xmlns="http://www.w3.org/2000/svg">
<path d="M0 0.232422H51.5938L64 16.4654H0V0.232422Z" fill="#9747FF"/>
<path d="M18.7861 12.668V5.39524H21.7904C22.3349 5.39524 22.8049 5.49349 23.2002 5.68999C23.5979 5.88411 23.9045 6.16347 24.12 6.52805C24.3354 6.89027 24.4431 7.31996 24.4431 7.81712C24.4431 8.32138 24.333 8.74988 24.1129 9.10263C23.8927 9.45301 23.5802 9.72053 23.1754 9.90518C22.7705 10.0875 22.2911 10.1786 21.7371 10.1786H19.8373V8.79368H21.4104C21.6756 8.79368 21.8969 8.75935 22.0745 8.6907C22.2544 8.61967 22.3906 8.51314 22.4829 8.37109C22.5752 8.22668 22.6214 8.04202 22.6214 7.81712C22.6214 7.59221 22.5752 7.40637 22.4829 7.25959C22.3906 7.11044 22.2544 6.99917 22.0745 6.92578C21.8946 6.85002 21.6732 6.81214 21.4104 6.81214H20.544V12.668H18.7861ZM22.8806 9.34411L24.6917 12.668H22.7741L20.9985 9.34411H22.8806ZM27.846 12.771C27.2731 12.771 26.7806 12.6538 26.3687 12.4194C25.9591 12.1826 25.6431 11.8536 25.4206 11.4322C25.2004 11.0084 25.0903 10.5172 25.0903 9.95845C25.0903 9.39737 25.2004 8.90613 25.4206 8.48473C25.6431 8.06096 25.9591 7.73189 26.3687 7.49751C26.7806 7.26077 27.2731 7.1424 27.846 7.1424C28.4189 7.1424 28.9101 7.26077 29.3197 7.49751C29.7316 7.73189 30.0477 8.06096 30.2679 8.48473C30.4904 8.90613 30.6017 9.39737 30.6017 9.95845C30.6017 10.5172 30.4904 11.0084 30.2679 11.4322C30.0477 11.8536 29.7316 12.1826 29.3197 12.4194C28.9101 12.6538 28.4189 12.771 27.846 12.771ZM27.8566 11.4606C28.065 11.4606 28.2413 11.3967 28.3858 11.2688C28.5302 11.141 28.6403 10.9634 28.716 10.7362C28.7941 10.5089 28.8332 10.2461 28.8332 9.9478C28.8332 9.64477 28.7941 9.37962 28.716 9.15234C28.6403 8.92507 28.5302 8.74751 28.3858 8.61967C28.2413 8.49183 28.065 8.42791 27.8566 8.42791C27.6412 8.42791 27.4589 8.49183 27.3098 8.61967C27.163 8.74751 27.0505 8.92507 26.9724 9.15234C26.8966 9.37962 26.8588 9.64477 26.8588 9.9478C26.8588 10.2461 26.8966 10.5089 26.9724 10.7362C27.0505 10.9634 27.163 11.141 27.3098 11.2688C27.4589 11.3967 27.6412 11.4606 27.8566 11.4606ZM33.2277 5.39524V12.668H31.4912V5.39524H33.2277ZM36.0695 5.39524V12.668H34.333V5.39524H36.0695Z" fill="white"/>
</svg>
