<svg width="65" height="20" viewBox="0 0 65 20" fill="none" xmlns="http://www.w3.org/2000/svg">
<path d="M0 0H51.9272L64.4136 19.999H0V0Z" fill="white"/>
<path d="M12.0923 13H10.2031L12.657 5.72727H14.9972L17.451 13H15.5618L13.8537 7.55966H13.7969L12.0923 13ZM11.8402 10.1378H15.7891V11.473H11.8402V10.1378ZM20.4384 13.103C19.8631 13.103 19.3695 12.9846 18.9576 12.7479C18.548 12.5111 18.2331 12.1821 18.013 11.7607C17.7928 11.3369 17.6827 10.8468 17.6827 10.2905C17.6827 9.73177 17.7928 9.24171 18.013 8.82031C18.2355 8.39654 18.5516 8.06629 18.9611 7.82955C19.373 7.5928 19.8643 7.47443 20.4348 7.47443C20.9391 7.47443 21.3783 7.56558 21.7523 7.74787C22.1287 7.93016 22.4223 8.18821 22.633 8.52202C22.8461 8.85346 22.9585 9.2429 22.9703 9.69034H21.3475C21.3143 9.41098 21.2196 9.192 21.0634 9.03338C20.9095 8.87476 20.7083 8.79545 20.4597 8.79545C20.2585 8.79545 20.0821 8.85227 19.9306 8.96591C19.7791 9.07718 19.6607 9.2429 19.5755 9.46307C19.4926 9.68087 19.4512 9.95076 19.4512 10.2727C19.4512 10.5947 19.4926 10.867 19.5755 11.0895C19.6607 11.3097 19.7791 11.4766 19.9306 11.5902C20.0821 11.7015 20.2585 11.7571 20.4597 11.7571C20.6207 11.7571 20.7627 11.7228 20.8858 11.6541C21.0113 11.5855 21.1143 11.4848 21.1948 11.3523C21.2753 11.2173 21.3262 11.054 21.3475 10.8622H22.9703C22.9538 11.312 22.8413 11.705 22.633 12.0412C22.427 12.3774 22.137 12.639 21.763 12.826C21.3913 13.0107 20.9498 13.103 20.4384 13.103ZM26.4052 13.103C25.8299 13.103 25.3363 12.9846 24.9244 12.7479C24.5148 12.5111 24.1999 12.1821 23.9798 11.7607C23.7596 11.3369 23.6495 10.8468 23.6495 10.2905C23.6495 9.73177 23.7596 9.24171 23.9798 8.82031C24.2023 8.39654 24.5183 8.06629 24.9279 7.82955C25.3398 7.5928 25.8311 7.47443 26.4016 7.47443C26.9059 7.47443 27.3451 7.56558 27.7191 7.74787C28.0955 7.93016 28.3891 8.18821 28.5998 8.52202C28.8129 8.85346 28.9253 9.2429 28.9371 9.69034H27.3143C27.2811 9.41098 27.1864 9.192 27.0302 9.03338C26.8763 8.87476 26.6751 8.79545 26.4265 8.79545C26.2253 8.79545 26.0489 8.85227 25.8974 8.96591C25.7459 9.07718 25.6275 9.2429 25.5423 9.46307C25.4594 9.68087 25.418 9.95076 25.418 10.2727C25.418 10.5947 25.4594 10.867 25.5423 11.0895C25.6275 11.3097 25.7459 11.4766 25.8974 11.5902C26.0489 11.7015 26.2253 11.7571 26.4265 11.7571C26.5875 11.7571 26.7295 11.7228 26.8526 11.6541C26.9781 11.5855 27.0811 11.4848 27.1616 11.3523C27.2421 11.2173 27.293 11.054 27.3143 10.8622H28.9371C28.9206 11.312 28.8081 11.705 28.5998 12.0412C28.3938 12.3774 28.1038 12.639 27.7298 12.826C27.3581 13.0107 26.9165 13.103 26.4052 13.103ZM29.8258 13V7.54545H31.5623V13H29.8258ZM30.6958 6.9098C30.452 6.9098 30.2425 6.82931 30.0673 6.66832C29.8921 6.50497 29.8045 6.30848 29.8045 6.07884C29.8045 5.85156 29.8921 5.65743 30.0673 5.49645C30.2425 5.3331 30.452 5.25142 30.6958 5.25142C30.9421 5.25142 31.1516 5.3331 31.3244 5.49645C31.4996 5.65743 31.5872 5.85156 31.5872 6.07884C31.5872 6.30848 31.4996 6.50497 31.3244 6.66832C31.1516 6.82931 30.9421 6.9098 30.6958 6.9098ZM35.2138 13.103C34.6409 13.103 34.1484 12.9858 33.7365 12.7514C33.3269 12.5147 33.0109 12.1856 32.7884 11.7642C32.5682 11.3404 32.4581 10.8492 32.4581 10.2905C32.4581 9.7294 32.5682 9.23816 32.7884 8.81676C33.0109 8.39299 33.3269 8.06392 33.7365 7.82955C34.1484 7.5928 34.6409 7.47443 35.2138 7.47443C35.7867 7.47443 36.2779 7.5928 36.6875 7.82955C37.0994 8.06392 37.4155 8.39299 37.6357 8.81676C37.8582 9.23816 37.9695 9.7294 37.9695 10.2905C37.9695 10.8492 37.8582 11.3404 37.6357 11.7642C37.4155 12.1856 37.0994 12.5147 36.6875 12.7514C36.2779 12.9858 35.7867 13.103 35.2138 13.103ZM35.2244 11.7926C35.4328 11.7926 35.6091 11.7287 35.7536 11.6009C35.898 11.473 36.008 11.2955 36.0838 11.0682C36.1619 10.8409 36.201 10.5781 36.201 10.2798C36.201 9.9768 36.1619 9.71165 36.0838 9.48438C36.008 9.2571 35.898 9.07955 35.7536 8.9517C35.6091 8.82386 35.4328 8.75994 35.2244 8.75994C35.009 8.75994 34.8267 8.82386 34.6776 8.9517C34.5308 9.07955 34.4183 9.2571 34.3402 9.48438C34.2644 9.71165 34.2266 9.9768 34.2266 10.2798C34.2266 10.5781 34.2644 10.8409 34.3402 11.0682C34.4183 11.2955 34.5308 11.473 34.6776 11.6009C34.8267 11.7287 35.009 11.7926 35.2244 11.7926ZM34.6136 6.85298L35.331 5.25142H36.8686L35.7962 6.85298H34.6136ZM40.5955 9.8892V13H38.859V7.54545H40.5103V8.54688H40.5707C40.6914 8.21307 40.8974 7.95147 41.1886 7.76207C41.4798 7.57031 41.8266 7.47443 42.229 7.47443C42.6126 7.47443 42.9452 7.56084 43.2269 7.73366C43.511 7.90412 43.7312 8.14323 43.8874 8.45099C44.046 8.75639 44.1242 9.11387 44.1218 9.52344V13H42.3853V9.86435C42.3877 9.56132 42.3107 9.32457 42.1545 9.15412C42.0006 8.98366 41.7863 8.89844 41.5117 8.89844C41.3294 8.89844 41.1684 8.93868 41.0288 9.01918C40.8915 9.0973 40.7849 9.20975 40.7092 9.35653C40.6358 9.50331 40.5979 9.68087 40.5955 9.8892Z" fill="black"/>
</svg>
