<svg width="85" height="17" viewBox="0 0 85 17" fill="none" xmlns="http://www.w3.org/2000/svg">
<path d="M72.5 17L13.0007 17L0.000715415 0.767028L85 0.767029L72.5 17Z" fill="black"/>
<path d="M22.1236 12L20.2344 12L22.6882 4.72727L25.0284 4.72727L27.4822 12L25.593 12L23.8849 6.55966L23.8281 6.55966L22.1236 12ZM21.8714 9.13778L25.8203 9.13778L25.8203 10.473L21.8714 10.473L21.8714 9.13778ZM32.8729 6.54545L31.0014 12L29.0128 12L27.1449 6.54545L28.9737 6.54545L29.9787 10.3026L30.0355 10.3026L31.044 6.54545L32.8729 6.54545ZM35.9126 12.103C35.3421 12.103 34.8497 11.9905 34.4354 11.7656C34.0234 11.5384 33.7062 11.2152 33.4837 10.7962C33.2635 10.3748 33.1534 9.87405 33.1534 9.29403C33.1534 8.73059 33.2647 8.23816 33.4872 7.81676C33.7098 7.39299 34.0234 7.06392 34.4283 6.82954C34.8331 6.5928 35.3101 6.47443 35.8594 6.47443C36.2476 6.47443 36.6027 6.5348 36.9247 6.65554C37.2467 6.77628 37.5249 6.95502 37.7592 7.19176C37.9936 7.4285 38.1759 7.72088 38.3061 8.06889C38.4363 8.41454 38.5014 8.81108 38.5014 9.25852L38.5014 9.69176L33.7607 9.69176L33.7607 8.68324L36.8857 8.68324C36.8833 8.49858 36.8395 8.33404 36.7543 8.18963C36.669 8.04522 36.5518 7.93276 36.4027 7.85227C36.2559 7.76941 36.0866 7.72798 35.8949 7.72798C35.7008 7.72798 35.5268 7.77178 35.3729 7.85937C35.219 7.9446 35.0971 8.06179 35.0071 8.21094C34.9171 8.35772 34.8698 8.52462 34.8651 8.71165L34.8651 9.73793C34.8651 9.96046 34.9089 10.1558 34.9964 10.3239C35.084 10.4896 35.2083 10.6186 35.3693 10.7109C35.5303 10.8033 35.7221 10.8494 35.9446 10.8494C36.0985 10.8494 36.2382 10.8281 36.3636 10.7855C36.4891 10.7429 36.5968 10.6802 36.6868 10.5973C36.7768 10.5144 36.8442 10.4126 36.8892 10.2919L38.4837 10.3381C38.4174 10.6955 38.2718 11.0069 38.0469 11.272C37.8243 11.5348 37.532 11.7396 37.1697 11.8864C36.8075 12.0308 36.3885 12.103 35.9126 12.103ZM41.1248 8.8892L41.1248 12L39.3883 12L39.3883 6.54545L41.0396 6.54545L41.0396 7.54687L41.1 7.54687C41.2207 7.21307 41.4267 6.95147 41.7179 6.76207C42.0091 6.57031 42.3559 6.47443 42.7583 6.47443C43.1419 6.47443 43.4745 6.56084 43.7562 6.73366C44.0403 6.90412 44.2605 7.14323 44.4167 7.45099C44.5753 7.75639 44.6535 8.11387 44.6511 8.52344L44.6511 12L42.9146 12L42.9146 8.86435C42.917 8.56132 42.84 8.32457 42.6838 8.15412C42.5299 7.98366 42.3156 7.89844 42.041 7.89844C41.8587 7.89844 41.6977 7.93868 41.5581 8.01918C41.4208 8.0973 41.3142 8.20975 41.2385 8.35653C41.1651 8.50331 41.1272 8.68087 41.1248 8.8892ZM48.805 6.54545L48.805 7.82386L45.364 7.82386L45.364 6.54545L48.805 6.54545ZM46.0849 5.23864L47.8214 5.23864L47.8214 10.2848C47.8214 10.3913 47.8379 10.4777 47.8711 10.544C47.9066 10.608 47.9575 10.6541 48.0238 10.6825C48.0901 10.7086 48.1694 10.7216 48.2617 10.7216C48.328 10.7216 48.3978 10.7157 48.4712 10.7038C48.547 10.6896 48.6038 10.6778 48.6417 10.6683L48.9045 11.9219C48.8216 11.9455 48.7044 11.9751 48.5529 12.0107C48.4038 12.0462 48.225 12.0687 48.0167 12.0781C47.6095 12.0971 47.2603 12.0497 46.9691 11.9361C46.6803 11.8201 46.4589 11.6402 46.305 11.3963C46.1535 11.1525 46.0801 10.8459 46.0849 10.4766L46.0849 5.23864ZM53.2102 9.6456L53.2102 6.54545L54.9432 6.54545L54.9432 12L53.2884 12L53.2884 10.9844L53.2315 10.9844C53.1108 11.3182 52.9048 11.5833 52.6136 11.7798C52.3248 11.974 51.9756 12.071 51.5661 12.071C51.1944 12.071 50.8677 11.9858 50.5859 11.8153C50.3042 11.6449 50.0852 11.407 49.929 11.1016C49.7727 10.7938 49.6934 10.4339 49.6911 10.022L49.6911 6.54545L51.4276 6.54545L51.4276 9.68111C51.4299 9.97704 51.508 10.2102 51.6619 10.3807C51.8158 10.5511 52.0253 10.6364 52.2905 10.6364C52.4633 10.6364 52.6184 10.5985 52.7557 10.5227C52.8954 10.4446 53.0054 10.3321 53.0859 10.1854C53.1688 10.0362 53.2102 9.8563 53.2102 9.6456ZM56.0485 12L56.0485 6.54545L57.7353 6.54545L57.7353 7.53977L57.7921 7.53977C57.8915 7.17992 58.0537 6.9124 58.2786 6.73721C58.5035 6.55966 58.7651 6.47088 59.0634 6.47088C59.1439 6.47088 59.2267 6.4768 59.312 6.48864C59.3972 6.49811 59.4765 6.51349 59.5499 6.5348L59.5499 8.04403C59.467 8.01562 59.3581 7.99313 59.2232 7.97656C59.0906 7.95999 58.9722 7.9517 58.8681 7.9517C58.6621 7.9517 58.4763 7.99787 58.3105 8.0902C58.1472 8.18016 58.0182 8.30682 57.9235 8.47017C57.8311 8.63115 57.785 8.82055 57.785 9.03835L57.785 12L56.0485 12ZM61.59 12.0923C61.242 12.0923 60.9331 12.0343 60.6632 11.9183C60.3957 11.8 60.1838 11.6224 60.0275 11.3857C59.8736 11.1465 59.7967 10.8471 59.7967 10.4872C59.7967 10.1842 59.85 9.9285 59.9565 9.72017C60.063 9.51184 60.2098 9.34257 60.3968 9.21236C60.5839 9.08215 60.7993 8.9839 61.0431 8.91761C61.287 8.84896 61.5474 8.80279 61.8244 8.77912C62.1345 8.75071 62.3843 8.72112 62.5737 8.69034C62.7631 8.6572 62.9004 8.61103 62.9856 8.55185C63.0732 8.49029 63.117 8.40388 63.117 8.29261L63.117 8.27486C63.117 8.09257 63.0543 7.9517 62.9288 7.85227C62.8033 7.75284 62.6341 7.70312 62.421 7.70312C62.1913 7.70312 62.0067 7.75284 61.867 7.85227C61.7273 7.9517 61.6386 8.08901 61.6007 8.2642L59.9991 8.20739C60.0465 7.87595 60.1684 7.58002 60.3649 7.3196C60.5637 7.05682 60.836 6.85085 61.1816 6.7017C61.5297 6.55019 61.9475 6.47443 62.4352 6.47443C62.7832 6.47443 63.104 6.51586 63.3975 6.59872C63.6911 6.67921 63.9468 6.79758 64.1646 6.95383C64.3824 7.10772 64.5505 7.29711 64.6689 7.52202C64.7896 7.74692 64.85 8.00379 64.85 8.29261L64.85 12L63.2164 12L63.2164 11.2401L63.1738 11.2401C63.0768 11.4247 62.9525 11.581 62.801 11.7088C62.6518 11.8366 62.4754 11.9325 62.2718 11.9964C62.0706 12.0604 61.8433 12.0923 61.59 12.0923ZM62.1262 10.956C62.3133 10.956 62.4814 10.9181 62.6305 10.8423C62.782 10.7666 62.9028 10.6624 62.9927 10.5298C63.0827 10.3949 63.1277 10.2386 63.1277 10.0611L63.1277 9.54261C63.0779 9.56865 63.0176 9.59233 62.9466 9.61364C62.8779 9.63494 62.8021 9.65507 62.7193 9.674C62.6364 9.69294 62.5512 9.70952 62.4636 9.72372C62.376 9.73793 62.292 9.75095 62.2115 9.76278C62.0481 9.78882 61.9084 9.82907 61.7924 9.88352C61.6788 9.93797 61.5912 10.009 61.5297 10.0966C61.4705 10.1818 61.4409 10.2836 61.4409 10.402C61.4409 10.5819 61.5048 10.7192 61.6326 10.8139C61.7628 10.9086 61.9274 10.956 62.1262 10.956Z" fill="white"/>
</svg>
