<svg width="86" height="20" viewBox="0 0 86 20" fill="none" xmlns="http://www.w3.org/2000/svg">
<path d="M72.9661 19.999L13.0823 19.999L-0.00168322 -1.98521e-07L85.5469 1.90735e-06L72.9661 19.999Z" fill="#9747FF"/>
<path d="M22.2486 12.999L20.3594 12.999L22.8132 5.7263L25.1534 5.7263L27.6072 12.999L25.718 12.999L24.0099 7.55868L23.9531 7.55868L22.2486 12.999ZM21.9964 10.1368L25.9453 10.1368L25.9453 11.472L21.9964 11.472L21.9964 10.1368ZM32.9979 7.54448L31.1264 12.999L29.1378 12.999L27.2699 7.54448L29.0987 7.54448L30.1037 11.3016L30.1605 11.3016L31.169 7.54448L32.9979 7.54448ZM36.0376 13.102C35.4671 13.102 34.9747 12.9896 34.5604 12.7646C34.1484 12.5374 33.8312 12.2142 33.6087 11.7952C33.3885 11.3738 33.2784 10.8731 33.2784 10.2931C33.2784 9.72961 33.3897 9.23719 33.6122 8.81578C33.8348 8.39202 34.1484 8.06294 34.5533 7.82857C34.9581 7.59183 35.4351 7.47345 35.9844 7.47345C36.3726 7.47345 36.7277 7.53382 37.0497 7.65456C37.3717 7.7753 37.6499 7.95404 37.8842 8.19078C38.1186 8.42753 38.3009 8.7199 38.4311 9.06791C38.5613 9.41356 38.6264 9.8101 38.6264 10.2575L38.6264 10.6908L33.8857 10.6908L33.8857 9.68226L37.0107 9.68226C37.0083 9.4976 36.9645 9.33307 36.8793 9.18865C36.794 9.04424 36.6768 8.93179 36.5277 8.8513C36.3809 8.76844 36.2116 8.72701 36.0199 8.72701C35.8258 8.72701 35.6518 8.7708 35.4979 8.8584C35.344 8.94363 35.2221 9.06081 35.1321 9.20996C35.0421 9.35674 34.9948 9.52364 34.9901 9.71067L34.9901 10.7369C34.9901 10.9595 35.0339 11.1548 35.1214 11.3229C35.209 11.4886 35.3333 11.6176 35.4943 11.71C35.6553 11.8023 35.8471 11.8485 36.0696 11.8485C36.2235 11.8485 36.3632 11.8271 36.4886 11.7845C36.6141 11.7419 36.7218 11.6792 36.8118 11.5963C36.9018 11.5135 36.9692 11.4117 37.0142 11.2909L38.6087 11.3371C38.5424 11.6946 38.3968 12.0059 38.1719 12.271C37.9493 12.5338 37.657 12.7386 37.2947 12.8854C36.9325 13.0298 36.5135 13.102 36.0376 13.102ZM41.2498 9.88823L41.2498 12.999L39.5133 12.999L39.5133 7.54448L41.1646 7.54448L41.1646 8.5459L41.225 8.5459C41.3457 8.21209 41.5517 7.95049 41.8429 7.7611C42.1341 7.56934 42.4809 7.47345 42.8833 7.47345C43.2669 7.47345 43.5995 7.55987 43.8812 7.73269C44.1653 7.90314 44.3855 8.14225 44.5417 8.45002C44.7003 8.75541 44.7785 9.1129 44.7761 9.52246L44.7761 12.999L43.0396 12.999L43.0396 9.86337C43.042 9.56034 42.965 9.3236 42.8088 9.15314C42.6549 8.98269 42.4406 8.89746 42.166 8.89746C41.9837 8.89746 41.8227 8.93771 41.6831 9.0182C41.5458 9.09632 41.4392 9.20878 41.3635 9.35556C41.2901 9.50234 41.2522 9.67989 41.2498 9.88823ZM48.93 7.54448L48.93 8.82289L45.489 8.82289L45.489 7.54448L48.93 7.54448ZM46.2099 6.23766L47.9464 6.23766L47.9464 11.2838C47.9464 11.3904 47.9629 11.4768 47.9961 11.5431C48.0316 11.607 48.0825 11.6531 48.1488 11.6816C48.2151 11.7076 48.2944 11.7206 48.3867 11.7206C48.453 11.7206 48.5228 11.7147 48.5962 11.7029C48.672 11.6887 48.7288 11.6768 48.7667 11.6673L49.0295 12.9209C48.9466 12.9446 48.8294 12.9742 48.6779 13.0097C48.5288 13.0452 48.35 13.0677 48.1417 13.0771C47.7345 13.0961 47.3853 13.0487 47.0941 12.9351C46.8053 12.8191 46.5839 12.6392 46.43 12.3953C46.2785 12.1515 46.2051 11.8449 46.2099 11.4756L46.2099 6.23766ZM53.3352 10.6446L53.3352 7.54448L55.0682 7.54448L55.0682 12.999L53.4134 12.999L53.4134 11.9834L53.3565 11.9834C53.2358 12.3172 53.0298 12.5824 52.7386 12.7789C52.4498 12.973 52.1006 13.07 51.6911 13.07C51.3194 13.07 50.9927 12.9848 50.7109 12.8144C50.4292 12.6439 50.2102 12.406 50.054 12.1006C49.8977 11.7928 49.8184 11.433 49.8161 11.021L49.8161 7.54448L51.5526 7.54448L51.5526 10.6801C51.5549 10.9761 51.633 11.2092 51.7869 11.3797C51.9408 11.5502 52.1503 11.6354 52.4155 11.6354C52.5883 11.6354 52.7434 11.5975 52.8807 11.5217C53.0204 11.4436 53.1304 11.3312 53.2109 11.1844C53.2938 11.0352 53.3352 10.8553 53.3352 10.6446ZM56.1735 12.999L56.1735 7.54448L57.8603 7.54448L57.8603 8.53879L57.9171 8.53879C58.0165 8.17895 58.1787 7.91143 58.4036 7.73624C58.6285 7.55868 58.8901 7.4699 59.1884 7.4699C59.2689 7.4699 59.3517 7.47582 59.437 7.48766C59.5222 7.49713 59.6015 7.51252 59.6749 7.53382L59.6749 9.04306C59.592 9.01465 59.4831 8.99216 59.3482 8.97558C59.2156 8.95901 59.0972 8.95073 58.9931 8.95073C58.7871 8.95073 58.6013 8.99689 58.4355 9.08922C58.2722 9.17918 58.1432 9.30584 58.0485 9.46919C57.9561 9.63018 57.91 9.81957 57.91 10.0374L57.91 12.999L56.1735 12.999ZM61.715 13.0914C61.367 13.0914 61.0581 13.0334 60.7882 12.9173C60.5207 12.799 60.3088 12.6214 60.1525 12.3847C59.9986 12.1456 59.9217 11.8461 59.9217 11.4862C59.9217 11.1832 59.975 10.9275 60.0815 10.7192C60.188 10.5109 60.3348 10.3416 60.5218 10.2114C60.7089 10.0812 60.9243 9.98292 61.1681 9.91664C61.412 9.84798 61.6724 9.80182 61.9494 9.77814C62.2595 9.74973 62.5093 9.72014 62.6987 9.68936C62.8881 9.65622 63.0254 9.61005 63.1106 9.55087C63.1982 9.48932 63.242 9.4029 63.242 9.29164L63.242 9.27388C63.242 9.09159 63.1793 8.95073 63.0538 8.85129C62.9283 8.75186 62.7591 8.70215 62.546 8.70215C62.3163 8.70215 62.1317 8.75186 61.992 8.85129C61.8523 8.95073 61.7636 9.08804 61.7257 9.26323L60.1241 9.20641C60.1715 8.87497 60.2934 8.57904 60.4899 8.31862C60.6887 8.05584 60.961 7.84987 61.3066 7.70073C61.6547 7.54921 62.0725 7.47345 62.5602 7.47345C62.9082 7.47345 63.229 7.51488 63.5225 7.59774C63.8161 7.67824 64.0718 7.79661 64.2896 7.95286C64.5074 8.10674 64.6755 8.29613 64.7939 8.52104C64.9146 8.74594 64.975 9.00281 64.975 9.29164L64.975 12.999L63.3414 12.999L63.3414 12.2391L63.2988 12.2391C63.2018 12.4237 63.0775 12.58 62.926 12.7078C62.7768 12.8357 62.6004 12.9316 62.3968 12.9955C62.1956 13.0594 61.9683 13.0914 61.715 13.0914ZM62.2512 11.955C62.4383 11.955 62.6064 11.9171 62.7555 11.8414C62.907 11.7656 63.0278 11.6614 63.1177 11.5289C63.2077 11.3939 63.2527 11.2377 63.2527 11.0601L63.2527 10.5416C63.2029 10.5677 63.1426 10.5914 63.0716 10.6127C63.0029 10.634 62.9271 10.6541 62.8443 10.673C62.7614 10.692 62.6762 10.7085 62.5886 10.7227C62.501 10.7369 62.417 10.75 62.3365 10.7618C62.1731 10.7878 62.0334 10.8281 61.9174 10.8825C61.8038 10.937 61.7162 11.008 61.6547 11.0956C61.5955 11.1808 61.5659 11.2826 61.5659 11.401C61.5659 11.5809 61.6298 11.7182 61.7576 11.8129C61.8878 11.9076 62.0524 11.955 62.2512 11.955Z" fill="white"/>
</svg>
