<svg width="85" height="17" viewBox="0 0 85 17" fill="none" xmlns="http://www.w3.org/2000/svg">
<path d="M72.5 16.2324L13.0007 16.2324L0.000715415 -0.000550509L85 -0.000548799L72.5 16.2324Z" fill="#9747FF"/>
<path d="M22.1236 11.2324L20.2344 11.2324L22.6882 3.95969L25.0284 3.95969L27.4822 11.2324L25.593 11.2324L23.8849 5.79208L23.8281 5.79208L22.1236 11.2324ZM21.8714 8.37021L25.8203 8.37021L25.8203 9.70543L21.8714 9.70543L21.8714 8.37021ZM32.8729 5.77788L31.0014 11.2324L29.0128 11.2324L27.1449 5.77788L28.9737 5.77788L29.9787 9.53498L30.0355 9.53498L31.044 5.77788L32.8729 5.77788ZM35.9126 11.3354C35.3421 11.3354 34.8497 11.223 34.4354 10.998C34.0234 10.7708 33.7062 10.4476 33.4837 10.0286C33.2635 9.60718 33.1534 9.10647 33.1534 8.52646C33.1534 7.96301 33.2647 7.47058 33.4872 7.04918C33.7098 6.62541 34.0234 6.29634 34.4283 6.06197C34.8331 5.82522 35.3101 5.70685 35.8594 5.70685C36.2476 5.70685 36.6027 5.76722 36.9247 5.88796C37.2467 6.0087 37.5249 6.18744 37.7592 6.42418C37.9936 6.66093 38.1759 6.9533 38.3061 7.30131C38.4363 7.64696 38.5014 8.0435 38.5014 8.49094L38.5014 8.92418L33.7607 8.92418L33.7607 7.91566L36.8857 7.91566C36.8833 7.731 36.8395 7.56647 36.7543 7.42205C36.669 7.27764 36.5518 7.16519 36.4027 7.08469C36.2559 7.00183 36.0866 6.9604 35.8949 6.9604C35.7008 6.9604 35.5268 7.0042 35.3729 7.0918C35.219 7.17702 35.0971 7.29421 35.0071 7.44336C34.9171 7.59014 34.8698 7.75704 34.8651 7.94407L34.8651 8.97035C34.8651 9.19289 34.9089 9.3882 34.9964 9.55629C35.084 9.722 35.2083 9.85103 35.3693 9.94336C35.5303 10.0357 35.7221 10.0819 35.9446 10.0819C36.0985 10.0819 36.2382 10.0605 36.3636 10.0179C36.4891 9.97532 36.5968 9.91258 36.6868 9.82972C36.7768 9.74686 36.8442 9.64506 36.8892 9.52432L38.4837 9.57049C38.4174 9.92797 38.2718 10.2393 38.0469 10.5044C37.8243 10.7672 37.532 10.972 37.1697 11.1188C36.8075 11.2632 36.3885 11.3354 35.9126 11.3354ZM41.1248 8.12163L41.1248 11.2324L39.3883 11.2324L39.3883 5.77788L41.0396 5.77788L41.0396 6.7793L41.1 6.7793C41.2207 6.44549 41.4267 6.18389 41.7179 5.9945C42.0091 5.80273 42.3559 5.70685 42.7583 5.70685C43.1419 5.70685 43.4745 5.79326 43.7562 5.96609C44.0403 6.13654 44.2605 6.37565 44.4167 6.68342C44.5753 6.98881 44.6535 7.34629 44.6511 7.75586L44.6511 11.2324L42.9146 11.2324L42.9146 8.09677C42.917 7.79374 42.84 7.557 42.6838 7.38654C42.5299 7.21609 42.3156 7.13086 42.041 7.13086C41.8587 7.13086 41.6977 7.17111 41.5581 7.2516C41.4208 7.32972 41.3142 7.44218 41.2385 7.58896C41.1651 7.73574 41.1272 7.91329 41.1248 8.12163ZM48.805 5.77788L48.805 7.05628L45.364 7.05628L45.364 5.77788L48.805 5.77788ZM46.0849 4.47106L47.8214 4.47106L47.8214 9.51722C47.8214 9.62376 47.8379 9.71017 47.8711 9.77646C47.9066 9.84038 47.9575 9.88654 48.0238 9.91495C48.0901 9.94099 48.1694 9.95401 48.2617 9.95401C48.328 9.95401 48.3978 9.94809 48.4712 9.93626C48.547 9.92205 48.6038 9.91021 48.6417 9.90075L48.9045 11.1543C48.8216 11.178 48.7044 11.2076 48.5529 11.2431C48.4038 11.2786 48.225 11.3011 48.0167 11.3105C47.6095 11.3295 47.2603 11.2821 46.9691 11.1685C46.6803 11.0525 46.4589 10.8726 46.305 10.6287C46.1535 10.3849 46.0801 10.0783 46.0849 9.70898L46.0849 4.47106ZM53.2102 8.87802L53.2102 5.77788L54.9432 5.77788L54.9432 11.2324L53.2884 11.2324L53.2884 10.2168L53.2315 10.2168C53.1108 10.5506 52.9048 10.8158 52.6136 11.0123C52.3248 11.2064 51.9756 11.3034 51.5661 11.3034C51.1944 11.3034 50.8677 11.2182 50.5859 11.0478C50.3042 10.8773 50.0852 10.6394 49.929 10.334C49.7727 10.0262 49.6934 9.66637 49.6911 9.25444L49.6911 5.77788L51.4276 5.77788L51.4276 8.91353C51.4299 9.20946 51.508 9.44265 51.6619 9.6131C51.8158 9.78356 52.0253 9.86878 52.2905 9.86878C52.4633 9.86878 52.6184 9.83091 52.7557 9.75515C52.8954 9.67702 53.0054 9.56457 53.0859 9.41779C53.1688 9.26864 53.2102 9.08872 53.2102 8.87802ZM56.0485 11.2324L56.0485 5.77788L57.7353 5.77788L57.7353 6.77219L57.7921 6.77219C57.8915 6.41235 58.0537 6.14483 58.2786 5.96964C58.5035 5.79208 58.7651 5.7033 59.0634 5.7033C59.1439 5.7033 59.2267 5.70922 59.312 5.72106C59.3972 5.73053 59.4765 5.74592 59.5499 5.76722L59.5499 7.27646C59.467 7.24805 59.3581 7.22556 59.2232 7.20898C59.0906 7.19241 58.9722 7.18413 58.8681 7.18413C58.6621 7.18413 58.4763 7.23029 58.3105 7.32262C58.1472 7.41258 58.0182 7.53924 57.9235 7.70259C57.8311 7.86358 57.785 8.05297 57.785 8.27077L57.785 11.2324L56.0485 11.2324ZM61.59 11.3248C61.242 11.3248 60.9331 11.2667 60.6632 11.1507C60.3957 11.0324 60.1838 10.8548 60.0275 10.6181C59.8736 10.379 59.7967 10.0795 59.7967 9.71964C59.7967 9.41661 59.85 9.16092 59.9565 8.95259C60.063 8.74426 60.2098 8.57499 60.3968 8.44478C60.5839 8.31457 60.7993 8.21632 61.0431 8.15003C61.287 8.08138 61.5474 8.03521 61.8244 8.01154C62.1345 7.98313 62.3843 7.95354 62.5737 7.92276C62.7631 7.88962 62.9004 7.84345 62.9856 7.78427C63.0732 7.72271 63.117 7.6363 63.117 7.52503L63.117 7.50728C63.117 7.32499 63.0543 7.18413 62.9288 7.08469C62.8033 6.98526 62.6341 6.93555 62.421 6.93555C62.1913 6.93555 62.0067 6.98526 61.867 7.08469C61.7273 7.18413 61.6386 7.32144 61.6007 7.49663L59.9991 7.43981C60.0465 7.10837 60.1684 6.81244 60.3649 6.55202C60.5637 6.28924 60.836 6.08327 61.1816 5.93413C61.5297 5.78261 61.9475 5.70685 62.4352 5.70685C62.7832 5.70685 63.104 5.74828 63.3975 5.83114C63.6911 5.91163 63.9468 6.03001 64.1646 6.18626C64.3824 6.34014 64.5505 6.52953 64.6689 6.75444C64.7896 6.97934 64.85 7.23621 64.85 7.52503L64.85 11.2324L63.2164 11.2324L63.2164 10.4725L63.1738 10.4725C63.0768 10.6571 62.9525 10.8134 62.801 10.9412C62.6518 11.0691 62.4754 11.1649 62.2718 11.2289C62.0706 11.2928 61.8433 11.3248 61.59 11.3248ZM62.1262 10.1884C62.3133 10.1884 62.4814 10.1505 62.6305 10.0748C62.782 9.99899 62.9028 9.89483 62.9927 9.76225C63.0827 9.62731 63.1277 9.47106 63.1277 9.2935L63.1277 8.77503C63.0779 8.80108 63.0176 8.82475 62.9466 8.84606C62.8779 8.86736 62.8021 8.88749 62.7193 8.90643C62.6364 8.92537 62.5512 8.94194 62.4636 8.95614C62.376 8.97035 62.292 8.98337 62.2115 8.99521C62.0481 9.02125 61.9084 9.06149 61.7924 9.11594C61.6788 9.17039 61.5912 9.24142 61.5297 9.32901C61.4705 9.41424 61.4409 9.51604 61.4409 9.63441C61.4409 9.81433 61.5048 9.95164 61.6326 10.0463C61.7628 10.141 61.9274 10.1884 62.1262 10.1884Z" fill="white"/>
</svg>
