<svg width="139" height="18" viewBox="0 0 139 18" fill="none" xmlns="http://www.w3.org/2000/svg">
<path d="M0.5 0.5H51.3397L63.0161 16.5H0.5V0.5Z" stroke="white"/>
<path d="M18.7861 12.5498V5.27708H21.7904C22.3349 5.27708 22.8049 5.37533 23.2002 5.57182C23.5979 5.76595 23.9045 6.04531 24.12 6.40989C24.3354 6.77211 24.4431 7.20179 24.4431 7.69895C24.4431 8.20321 24.333 8.63172 24.1129 8.98446C23.8927 9.33484 23.5802 9.60236 23.1754 9.78702C22.7705 9.96931 22.2911 10.0605 21.7371 10.0605H19.8373V8.67551H21.4104C21.6756 8.67551 21.8969 8.64119 22.0745 8.57253C22.2544 8.50151 22.3906 8.39498 22.4829 8.25293C22.5752 8.10852 22.6214 7.92386 22.6214 7.69895C22.6214 7.47405 22.5752 7.2882 22.4829 7.14142C22.3906 6.99228 22.2544 6.88101 22.0745 6.80762C21.8946 6.73186 21.6732 6.69398 21.4104 6.69398H20.544V12.5498H18.7861ZM22.8806 9.22594L24.6917 12.5498H22.7741L20.9985 9.22594H22.8806ZM27.846 12.6528C27.2731 12.6528 26.7806 12.5356 26.3687 12.3012C25.9591 12.0645 25.6431 11.7354 25.4206 11.314C25.2004 10.8902 25.0903 10.399 25.0903 9.84029C25.0903 9.27921 25.2004 8.78797 25.4206 8.36657C25.6431 7.9428 25.9591 7.61372 26.3687 7.37935C26.7806 7.14261 27.2731 7.02424 27.846 7.02424C28.4189 7.02424 28.9101 7.14261 29.3197 7.37935C29.7316 7.61372 30.0477 7.9428 30.2679 8.36657C30.4904 8.78797 30.6017 9.27921 30.6017 9.84029C30.6017 10.399 30.4904 10.8902 30.2679 11.314C30.0477 11.7354 29.7316 12.0645 29.3197 12.3012C28.9101 12.5356 28.4189 12.6528 27.846 12.6528ZM27.8566 11.3424C28.065 11.3424 28.2413 11.2785 28.3858 11.1507C28.5302 11.0228 28.6403 10.8453 28.716 10.618C28.7941 10.3907 28.8332 10.1279 28.8332 9.82963C28.8332 9.5266 28.7941 9.26145 28.716 9.03418C28.6403 8.80691 28.5302 8.62935 28.3858 8.50151C28.2413 8.37367 28.065 8.30975 27.8566 8.30975C27.6412 8.30975 27.4589 8.37367 27.3098 8.50151C27.163 8.62935 27.0505 8.80691 26.9724 9.03418C26.8966 9.26145 26.8588 9.5266 26.8588 9.82963C26.8588 10.1279 26.8966 10.3907 26.9724 10.618C27.0505 10.8453 27.163 11.0228 27.3098 11.1507C27.4589 11.2785 27.6412 11.3424 27.8566 11.3424ZM33.2277 5.27708V12.5498H31.4912V5.27708H33.2277ZM36.0695 5.27708V12.5498H34.333V5.27708H36.0695Z" fill="white"/>
<path d="M138.059 1.5L127.264 17.5L73.1895 17.5L61.9617 1.5L138.059 1.5Z" stroke="white"/>
<path d="M86.8968 13.5488L85.0076 13.5488L87.4614 6.2761L89.8016 6.2761L92.2555 13.5488L90.3663 13.5488L88.6582 8.10849L88.6013 8.10849L86.8968 13.5488ZM86.6447 10.6866L90.5935 10.6866L90.5935 12.0218L86.6447 12.0218L86.6447 10.6866ZM95.2429 13.6518C94.6676 13.6518 94.174 13.5334 93.762 13.2967C93.3525 13.06 93.0376 12.7309 92.8174 12.3095C92.5973 11.8857 92.4872 11.3957 92.4872 10.8393C92.4872 10.2806 92.5973 9.79054 92.8174 9.36914C93.04 8.94537 93.356 8.61512 93.7656 8.37837C94.1775 8.14163 94.6688 8.02326 95.2393 8.02326C95.7436 8.02326 96.1827 8.11441 96.5568 8.2967C96.9332 8.47899 97.2268 8.73704 97.4375 9.07084C97.6505 9.40228 97.763 9.79173 97.7748 10.2392L96.152 10.2392C96.1188 9.95981 96.0241 9.74083 95.8679 9.58221C95.714 9.42359 95.5127 9.34428 95.2642 9.34428C95.0629 9.34428 94.8866 9.4011 94.735 9.51474C94.5835 9.62601 94.4652 9.79173 94.3799 10.0119C94.2971 10.2297 94.2556 10.4996 94.2556 10.8216C94.2556 11.1435 94.2971 11.4158 94.3799 11.6383C94.4652 11.8585 94.5835 12.0254 94.735 12.139C94.8866 12.2503 95.0629 12.3059 95.2642 12.3059C95.4252 12.3059 95.5672 12.2716 95.6903 12.2029C95.8158 12.1343 95.9188 12.0337 95.9993 11.9011C96.0797 11.7662 96.1306 11.6028 96.152 11.411L97.7748 11.411C97.7582 11.8609 97.6458 12.2538 97.4375 12.59C97.2315 12.9262 96.9415 13.1878 96.5674 13.3748C96.1957 13.5595 95.7542 13.6518 95.2429 13.6518ZM101.21 13.6518C100.634 13.6518 100.141 13.5334 99.7288 13.2967C99.3193 13.06 99.0044 12.7309 98.7842 12.3095C98.5641 11.8857 98.454 11.3957 98.454 10.8393C98.454 10.2806 98.5641 9.79054 98.7842 9.36914C99.0068 8.94537 99.3228 8.61512 99.7324 8.37837C100.144 8.14163 100.636 8.02326 101.206 8.02326C101.71 8.02326 102.15 8.11441 102.524 8.2967C102.9 8.47899 103.194 8.73704 103.404 9.07084C103.617 9.40228 103.73 9.79172 103.742 10.2392L102.119 10.2392C102.086 9.95981 101.991 9.74083 101.835 9.58221C101.681 9.42359 101.48 9.34428 101.231 9.34428C101.03 9.34428 100.853 9.4011 100.702 9.51474C100.55 9.62601 100.432 9.79173 100.347 10.0119C100.264 10.2297 100.222 10.4996 100.222 10.8216C100.222 11.1435 100.264 11.4158 100.347 11.6383C100.432 11.8585 100.55 12.0254 100.702 12.139C100.853 12.2503 101.03 12.3059 101.231 12.3059C101.392 12.3059 101.534 12.2716 101.657 12.2029C101.783 12.1343 101.886 12.0337 101.966 11.9011C102.047 11.7662 102.097 11.6028 102.119 11.411L103.742 11.411C103.725 11.8609 103.613 12.2538 103.404 12.59C103.198 12.9262 102.908 13.1878 102.534 13.3748C102.163 13.5595 101.721 13.6518 101.21 13.6518ZM104.63 13.5488L104.63 8.09428L106.367 8.09428L106.367 13.5488L104.63 13.5488ZM105.5 7.45863C105.256 7.45863 105.047 7.37814 104.872 7.21715C104.697 7.0538 104.609 6.8573 104.609 6.62766C104.609 6.40039 104.697 6.20626 104.872 6.04528C105.047 5.88192 105.256 5.80025 105.5 5.80025C105.747 5.80025 105.956 5.88192 106.129 6.04528C106.304 6.20626 106.392 6.40039 106.392 6.62766C106.392 6.8573 106.304 7.0538 106.129 7.21715C105.956 7.37814 105.747 7.45863 105.5 7.45863ZM110.018 13.6518C109.445 13.6518 108.953 13.5346 108.541 13.3002C108.131 13.0635 107.815 12.7344 107.593 12.313C107.373 11.8893 107.263 11.398 107.263 10.8393C107.263 10.2782 107.373 9.78699 107.593 9.36559C107.815 8.94182 108.131 8.61275 108.541 8.37837C108.953 8.14163 109.445 8.02326 110.018 8.02326C110.591 8.02326 111.082 8.14163 111.492 8.37837C111.904 8.61275 112.22 8.94182 112.44 9.36559C112.663 9.78699 112.774 10.2782 112.774 10.8393C112.774 11.398 112.663 11.8893 112.44 12.313C112.22 12.7344 111.904 13.0635 111.492 13.3002C111.082 13.5346 110.591 13.6518 110.018 13.6518ZM110.029 12.3414C110.237 12.3414 110.414 12.2775 110.558 12.1497C110.702 12.0218 110.813 11.8443 110.888 11.617C110.966 11.3897 111.005 11.127 111.005 10.8287C111.005 10.5256 110.966 10.2605 110.888 10.0332C110.813 9.80593 110.702 9.62837 110.558 9.50053C110.414 9.37269 110.237 9.30877 110.029 9.30877C109.813 9.30877 109.631 9.37269 109.482 9.50053C109.335 9.62837 109.223 9.80593 109.145 10.0332C109.069 10.2605 109.031 10.5256 109.031 10.8287C109.031 11.127 109.069 11.3897 109.145 11.617C109.223 11.8443 109.335 12.0218 109.482 12.1497C109.631 12.2775 109.813 12.3414 110.029 12.3414ZM109.418 7.40181L110.135 5.80025L111.673 5.80025L110.601 7.40181L109.418 7.40181ZM115.4 10.438L115.4 13.5488L113.663 13.5488L113.663 8.09428L115.315 8.09428L115.315 9.0957L115.375 9.0957C115.496 8.7619 115.702 8.50029 115.993 8.3109C116.284 8.11914 116.631 8.02326 117.034 8.02326C117.417 8.02326 117.75 8.10967 118.031 8.28249C118.315 8.45295 118.536 8.69206 118.692 8.99982C118.851 9.30522 118.929 9.6627 118.926 10.0723L118.926 13.5488L117.19 13.5488L117.19 10.4132C117.192 10.1101 117.115 9.8734 116.959 9.70295C116.805 9.53249 116.591 9.44726 116.316 9.44726C116.134 9.44726 115.973 9.48751 115.833 9.568C115.696 9.64613 115.589 9.75858 115.514 9.90536C115.44 10.0521 115.402 10.2297 115.4 10.438Z" fill="white"/>
</svg>
