<svg width="158" height="17" viewBox="0 0 158 17" fill="none" xmlns="http://www.w3.org/2000/svg">
<path d="M0.5 0.5H51.3397L63.0161 16.5H0.5V0.5Z" stroke="white"/>
<path d="M12.834 12.5498V5.27708H17.7985V6.70463H14.5918V8.19611H17.4824V9.62722H14.5918V12.5498H12.834ZM18.6836 12.5498V7.09526H20.4201V12.5498H18.6836ZM19.5536 6.45961C19.3098 6.45961 19.1003 6.37911 18.9251 6.21813C18.7499 6.05478 18.6623 5.85828 18.6623 5.62864C18.6623 5.40137 18.7499 5.20724 18.9251 5.04625C19.1003 4.8829 19.3098 4.80122 19.5536 4.80122C19.7999 4.80122 20.0094 4.8829 20.1822 5.04625C20.3574 5.20724 20.445 5.40137 20.445 5.62864C20.445 5.85828 20.3574 6.05478 20.1822 6.21813C20.0094 6.37911 19.7999 6.45961 19.5536 6.45961ZM24.0751 12.6528C23.5046 12.6528 23.0121 12.5403 22.5979 12.3154C22.1859 12.0882 21.8687 11.765 21.6461 11.346C21.426 10.9246 21.3159 10.4239 21.3159 9.84384C21.3159 9.28039 21.4272 8.78797 21.6497 8.36657C21.8722 7.9428 22.1859 7.61372 22.5907 7.37935C22.9956 7.14261 23.4726 7.02424 24.0219 7.02424C24.4101 7.02424 24.7652 7.08461 25.0872 7.20534C25.4092 7.32608 25.6873 7.50482 25.9217 7.74157C26.1561 7.97831 26.3384 8.27069 26.4686 8.6187C26.5988 8.96434 26.6639 9.36088 26.6639 9.80833V10.2416H21.9231V9.23304H25.0481C25.0458 9.04838 25.002 8.88385 24.9167 8.73944C24.8315 8.59502 24.7143 8.48257 24.5652 8.40208C24.4184 8.31922 24.2491 8.27779 24.0574 8.27779C23.8632 8.27779 23.6892 8.32158 23.5354 8.40918C23.3815 8.49441 23.2595 8.61159 23.1696 8.76074C23.0796 8.90752 23.0323 9.07443 23.0275 9.26145V10.2877C23.0275 10.5103 23.0713 10.7056 23.1589 10.8737C23.2465 11.0394 23.3708 11.1684 23.5318 11.2607C23.6928 11.3531 23.8845 11.3992 24.1071 11.3992C24.261 11.3992 24.4006 11.3779 24.5261 11.3353C24.6516 11.2927 24.7593 11.23 24.8493 11.1471C24.9392 11.0642 25.0067 10.9624 25.0517 10.8417L26.6461 10.8879C26.5799 11.2454 26.4343 11.5567 26.2094 11.8218C25.9868 12.0846 25.6944 12.2894 25.3322 12.4362C24.97 12.5806 24.551 12.6528 24.0751 12.6528ZM32.3129 8.76074L30.7184 8.80336C30.7018 8.68972 30.6569 8.5891 30.5835 8.50151C30.5101 8.41155 30.4142 8.34171 30.2958 8.29199C30.1798 8.23991 30.0449 8.21387 29.891 8.21387C29.6898 8.21387 29.5181 8.25411 29.3761 8.33461C29.2364 8.4151 29.1677 8.524 29.1701 8.66131C29.1677 8.76784 29.2104 8.86017 29.298 8.9383C29.3879 9.01642 29.5477 9.07916 29.7774 9.12651L30.8285 9.32537C31.373 9.42954 31.7778 9.60236 32.043 9.84384C32.3105 10.0853 32.4454 10.4049 32.4478 10.8026C32.4454 11.1767 32.3342 11.5022 32.114 11.7792C31.8962 12.0562 31.5979 12.2716 31.2191 12.4255C30.8403 12.577 30.4071 12.6528 29.9194 12.6528C29.1405 12.6528 28.5262 12.493 28.0764 12.1734C27.6289 11.8514 27.3732 11.4205 27.3093 10.8808L29.0245 10.8382C29.0624 11.037 29.1606 11.1885 29.3193 11.2927C29.4779 11.3969 29.6803 11.449 29.9265 11.449C30.149 11.449 30.3302 11.4075 30.4698 11.3247C30.6095 11.2418 30.6805 11.1317 30.6829 10.9944C30.6805 10.8713 30.6261 10.7731 30.5195 10.6997C30.413 10.6239 30.2461 10.5647 30.0188 10.5221L29.0671 10.341C28.5203 10.2416 28.1131 10.0581 27.8455 9.79057C27.578 9.52069 27.4454 9.17741 27.4478 8.76074C27.4454 8.39616 27.5425 8.08484 27.739 7.82679C27.9355 7.56638 28.2149 7.36751 28.5771 7.2302C28.9393 7.09289 29.3666 7.02424 29.859 7.02424C30.5977 7.02424 31.1801 7.1793 31.6062 7.48944C32.0323 7.7972 32.2679 8.22097 32.3129 8.76074ZM36.3816 7.09526V8.37367H32.9405V7.09526H36.3816ZM33.6614 5.78844H35.3979V10.8346C35.3979 10.9411 35.4145 11.0276 35.4476 11.0938C35.4831 11.1578 35.534 11.2039 35.6003 11.2323C35.6666 11.2584 35.7459 11.2714 35.8383 11.2714C35.9046 11.2714 35.9744 11.2655 36.0478 11.2536C36.1235 11.2394 36.1804 11.2276 36.2182 11.2181L36.481 12.4717C36.3982 12.4954 36.281 12.5249 36.1295 12.5605C35.9803 12.596 35.8016 12.6185 35.5932 12.6279C35.186 12.6469 34.8368 12.5995 34.5456 12.4859C34.2568 12.3699 34.0355 12.19 33.8816 11.9461C33.7301 11.7023 33.6567 11.3957 33.6614 11.0264V5.78844ZM38.8052 12.6421C38.4572 12.6421 38.1483 12.5841 37.8784 12.4681C37.6109 12.3498 37.399 12.1722 37.2427 11.9355C37.0889 11.6963 37.0119 11.3969 37.0119 11.037C37.0119 10.734 37.0652 10.4783 37.1717 10.27C37.2782 10.0616 37.425 9.89237 37.6121 9.76216C37.7991 9.63195 38.0145 9.53371 38.2584 9.46742C38.5022 9.39876 38.7626 9.3526 39.0396 9.32892C39.3497 9.30051 39.5995 9.27092 39.7889 9.24015C39.9783 9.207 40.1156 9.16084 40.2008 9.10165C40.2884 9.0401 40.3322 8.95369 40.3322 8.84242V8.82466C40.3322 8.64237 40.2695 8.50151 40.144 8.40208C40.0185 8.30265 39.8493 8.25293 39.6362 8.25293C39.4066 8.25293 39.2219 8.30265 39.0822 8.40208C38.9425 8.50151 38.8538 8.63882 38.8159 8.81401L37.2143 8.75719C37.2617 8.42575 37.3836 8.12982 37.5801 7.86941C37.779 7.60662 38.0512 7.40066 38.3969 7.25151C38.7449 7.09999 39.1627 7.02424 39.6504 7.02424C39.9984 7.02424 40.3192 7.06567 40.6128 7.14853C40.9063 7.22902 41.162 7.34739 41.3798 7.50364C41.5976 7.65752 41.7657 7.84692 41.8841 8.07182C42.0048 8.29673 42.0652 8.55359 42.0652 8.84242V12.5498H40.4317V11.7899H40.389C40.292 11.9745 40.1677 12.1308 40.0162 12.2586C39.867 12.3865 39.6907 12.4823 39.4871 12.5463C39.2858 12.6102 39.0586 12.6421 38.8052 12.6421ZM39.3415 11.5058C39.5285 11.5058 39.6966 11.4679 39.8457 11.3921C39.9972 11.3164 40.118 11.2122 40.2079 11.0796C40.2979 10.9447 40.3429 10.7884 40.3429 10.6109V10.0924C40.2932 10.1185 40.2328 10.1421 40.1618 10.1634C40.0931 10.1847 40.0174 10.2049 39.9345 10.2238C39.8516 10.2427 39.7664 10.2593 39.6788 10.2735C39.5912 10.2877 39.5072 10.3008 39.4267 10.3126C39.2633 10.3386 39.1237 10.3789 39.0077 10.4333C38.894 10.4878 38.8064 10.5588 38.7449 10.6464C38.6857 10.7316 38.6561 10.8334 38.6561 10.9518C38.6561 11.1317 38.72 11.269 38.8479 11.3637C38.9781 11.4584 39.1426 11.5058 39.3415 11.5058Z" fill="white"/>
<path d="M156.899 0.499998L142.92 16.5L72.6684 16.5L58.1299 0.499999L156.899 0.499998Z" stroke="white"/>
<path d="M81.3161 12.5488L81.3161 5.2761L84.3203 5.2761C84.8648 5.2761 85.3348 5.38263 85.7301 5.5957C86.1278 5.8064 86.4344 6.10115 86.6499 6.47994C86.8653 6.85636 86.973 7.29433 86.973 7.79386C86.973 8.29575 86.8629 8.73491 86.6428 9.11133C86.425 9.48538 86.1136 9.77539 85.7088 9.98136C85.304 10.1873 84.8234 10.2903 84.267 10.2903L82.4134 10.2903L82.4134 8.90536L83.9403 8.90536C84.2055 8.90536 84.4268 8.8592 84.6044 8.76687C84.7843 8.67454 84.9205 8.54551 85.0128 8.37979C85.1051 8.21171 85.1513 8.01639 85.1513 7.79386C85.1513 7.56895 85.1051 7.37482 85.0128 7.21147C84.9205 7.04575 84.7843 6.91791 84.6044 6.82795C84.4245 6.73799 84.2031 6.693 83.9403 6.693L83.0739 6.693L83.0739 12.5488L81.3161 12.5488ZM89.576 5.2761L89.576 12.5488L87.8395 12.5488L87.8395 5.2761L89.576 5.2761ZM92.2189 12.6412C91.8709 12.6412 91.562 12.5832 91.2921 12.4672C91.0246 12.3488 90.8127 12.1712 90.6564 11.9345C90.5025 11.6954 90.4256 11.3959 90.4256 11.036C90.4256 10.733 90.4789 10.4773 90.5854 10.269C90.6919 10.0607 90.8387 9.89139 91.0257 9.76119C91.2128 9.63098 91.4282 9.53273 91.6721 9.46644C91.9159 9.39779 92.1763 9.35162 92.4533 9.32795C92.7634 9.29954 93.0132 9.26994 93.2026 9.23917C93.392 9.20602 93.5293 9.15986 93.6145 9.10067C93.7021 9.03912 93.7459 8.95271 93.7459 8.84144L93.7459 8.82369C93.7459 8.64139 93.6832 8.50053 93.5577 8.4011C93.4322 8.30167 93.263 8.25195 93.0499 8.25195C92.8203 8.25195 92.6356 8.30167 92.4959 8.4011C92.3562 8.50053 92.2675 8.63784 92.2296 8.81303L90.628 8.75621C90.6754 8.42477 90.7973 8.12885 90.9938 7.86843C91.1926 7.60565 91.4649 7.39968 91.8105 7.25053C92.1586 7.09902 92.5764 7.02326 93.0641 7.02326C93.4121 7.02326 93.7329 7.06469 94.0265 7.14755C94.32 7.22804 94.5757 7.34641 94.7935 7.50266C95.0113 7.65655 95.1794 7.84594 95.2978 8.07084C95.4185 8.29575 95.4789 8.55262 95.4789 8.84144L95.4789 12.5488L93.8453 12.5488L93.8453 11.7889L93.8027 11.7889C93.7057 11.9735 93.5814 12.1298 93.4299 12.2576C93.2807 12.3855 93.1043 12.4814 92.9007 12.5453C92.6995 12.6092 92.4722 12.6412 92.2189 12.6412ZM92.7551 11.5048C92.9422 11.5048 93.1103 11.4669 93.2594 11.3912C93.4109 11.3154 93.5317 11.2112 93.6216 11.0787C93.7116 10.9437 93.7566 10.7875 93.7566 10.6099L93.7566 10.0914C93.7069 10.1175 93.6465 10.1412 93.5755 10.1625C93.5068 10.1838 93.431 10.2039 93.3482 10.2228C93.2653 10.2418 93.1801 10.2583 93.0925 10.2725C93.0049 10.2868 92.9209 10.2998 92.8404 10.3116C92.677 10.3377 92.5373 10.3779 92.4213 10.4324C92.3077 10.4868 92.2201 10.5578 92.1586 10.6454C92.0994 10.7306 92.0698 10.8324 92.0698 10.9508C92.0698 11.1307 92.1337 11.2681 92.2615 11.3627C92.3917 11.4574 92.5563 11.5048 92.7551 11.5048ZM99.6195 7.09428L99.6195 8.37269L96.1784 8.37269L96.1784 7.09428L99.6195 7.09428ZM96.8993 5.78746L98.6358 5.78746L98.6358 10.8336C98.6358 10.9402 98.6524 11.0266 98.6855 11.0929C98.7211 11.1568 98.772 11.2029 98.8382 11.2314C98.9045 11.2574 98.9838 11.2704 99.0762 11.2704C99.1425 11.2704 99.2123 11.2645 99.2857 11.2527C99.3614 11.2385 99.4183 11.2266 99.4561 11.2172L99.7189 12.4707C99.6361 12.4944 99.5189 12.524 99.3674 12.5595C99.2182 12.595 99.0395 12.6175 98.8311 12.627C98.4239 12.6459 98.0748 12.5985 97.7836 12.4849C97.4947 12.3689 97.2734 12.189 97.1195 11.9451C96.968 11.7013 96.8946 11.3947 96.8993 11.0254L96.8993 5.78746ZM102.043 12.6412C101.695 12.6412 101.386 12.5832 101.116 12.4672C100.849 12.3488 100.637 12.1712 100.481 11.9345C100.327 11.6954 100.25 11.3959 100.25 11.036C100.25 10.733 100.303 10.4773 100.41 10.269C100.516 10.0607 100.663 9.89139 100.85 9.76119C101.037 9.63098 101.252 9.53273 101.496 9.46644C101.74 9.39779 102.001 9.35162 102.278 9.32795C102.588 9.29954 102.837 9.26994 103.027 9.23917C103.216 9.20602 103.354 9.15986 103.439 9.10067C103.526 9.03912 103.57 8.95271 103.57 8.84144L103.57 8.82368C103.57 8.64139 103.507 8.50053 103.382 8.4011C103.256 8.30167 103.087 8.25195 102.874 8.25195C102.644 8.25195 102.46 8.30167 102.32 8.4011C102.18 8.50053 102.092 8.63784 102.054 8.81303L100.452 8.75621C100.5 8.42477 100.622 8.12885 100.818 7.86843C101.017 7.60565 101.289 7.39968 101.635 7.25053C101.983 7.09902 102.401 7.02326 102.888 7.02326C103.236 7.02326 103.557 7.06469 103.851 7.14755C104.144 7.22804 104.4 7.34641 104.618 7.50266C104.836 7.65654 105.004 7.84594 105.122 8.07084C105.243 8.29575 105.303 8.55261 105.303 8.84144L105.303 12.5488L103.67 12.5488L103.67 11.7889L103.627 11.7889C103.53 11.9735 103.406 12.1298 103.254 12.2576C103.105 12.3855 102.929 12.4814 102.725 12.5453C102.524 12.6092 102.296 12.6412 102.043 12.6412ZM102.579 11.5048C102.766 11.5048 102.934 11.4669 103.084 11.3912C103.235 11.3154 103.356 11.2112 103.446 11.0787C103.536 10.9437 103.581 10.7875 103.581 10.6099L103.581 10.0914C103.531 10.1175 103.471 10.1412 103.4 10.1625C103.331 10.1838 103.255 10.2039 103.172 10.2228C103.09 10.2418 103.004 10.2583 102.917 10.2725C102.829 10.2868 102.745 10.2998 102.665 10.3116C102.501 10.3377 102.362 10.3779 102.246 10.4323C102.132 10.4868 102.044 10.5578 101.983 10.6454C101.924 10.7306 101.894 10.8324 101.894 10.9508C101.894 11.1307 101.958 11.2681 102.086 11.3627C102.216 11.4574 102.381 11.5048 102.579 11.5048ZM109.465 7.09428L109.465 8.37269L105.956 8.37269L105.956 7.09428L109.465 7.09428ZM106.688 12.5488L106.688 6.81729C106.688 6.39589 106.767 6.0467 106.926 5.76971C107.085 5.49035 107.305 5.28202 107.586 5.14471C107.868 5.00503 108.194 4.93519 108.563 4.93519C108.805 4.93519 109.032 4.95413 109.245 4.99201C109.46 5.02752 109.62 5.05948 109.724 5.08789L109.447 6.3592C109.383 6.33789 109.305 6.32013 109.213 6.30593C109.123 6.29172 109.038 6.28462 108.957 6.28462C108.754 6.28462 108.614 6.3296 108.538 6.41957C108.462 6.50953 108.425 6.63263 108.425 6.78888L108.425 12.5488L106.688 12.5488ZM112.671 12.6518C112.098 12.6518 111.605 12.5346 111.194 12.3002C110.784 12.0635 110.468 11.7344 110.245 11.313C110.025 10.8893 109.915 10.398 109.915 9.83931C109.915 9.27823 110.025 8.78699 110.245 8.36559C110.468 7.94182 110.784 7.61275 111.194 7.37837C111.605 7.14163 112.098 7.02326 112.671 7.02326C113.244 7.02326 113.735 7.14163 114.145 7.37837C114.556 7.61275 114.873 7.94182 115.093 8.36559C115.315 8.78699 115.426 9.27823 115.426 9.83931C115.426 10.398 115.315 10.8893 115.093 11.313C114.873 11.7344 114.556 12.0635 114.145 12.3002C113.735 12.5346 113.244 12.6518 112.671 12.6518ZM112.681 11.3414C112.89 11.3414 113.066 11.2775 113.211 11.1497C113.355 11.0218 113.465 10.8443 113.541 10.617C113.619 10.3897 113.658 10.127 113.658 9.82866C113.658 9.52563 113.619 9.26047 113.541 9.0332C113.465 8.80593 113.355 8.62837 113.211 8.50053C113.066 8.37269 112.89 8.30877 112.681 8.30877C112.466 8.30877 112.284 8.37269 112.135 8.50053C111.988 8.62837 111.875 8.80593 111.797 9.0332C111.721 9.26047 111.684 9.52563 111.684 9.82866C111.684 10.127 111.721 10.3897 111.797 10.617C111.875 10.8443 111.988 11.0218 112.135 11.1497C112.284 11.2775 112.466 11.3414 112.681 11.3414ZM116.316 12.5488L116.316 7.09428L118.003 7.09428L118.003 8.0886L118.06 8.0886C118.159 7.72875 118.321 7.46123 118.546 7.28604C118.771 7.10849 119.033 7.01971 119.331 7.01971C119.411 7.01971 119.494 7.02563 119.58 7.03746C119.665 7.04693 119.744 7.06232 119.817 7.08363L119.817 8.59286C119.735 8.56445 119.626 8.54196 119.491 8.52539C119.358 8.50882 119.24 8.50053 119.136 8.50053C118.93 8.50053 118.744 8.5467 118.578 8.63903C118.415 8.72899 118.286 8.85564 118.191 9.019C118.099 9.17998 118.053 9.36938 118.053 9.58718L118.053 12.5488L116.316 12.5488ZM120.525 12.5488L120.525 7.09428L122.176 7.09428L122.176 8.0957L122.237 8.0957C122.35 7.76426 122.542 7.50266 122.812 7.3109C123.082 7.11914 123.404 7.02326 123.778 7.02326C124.157 7.02326 124.481 7.12032 124.751 7.31445C125.021 7.50858 125.192 7.769 125.266 8.0957L125.323 8.0957C125.424 7.77136 125.623 7.51213 125.919 7.318C126.215 7.12151 126.564 7.02326 126.967 7.02326C127.483 7.02326 127.902 7.18898 128.224 7.52042C128.546 7.84949 128.707 8.30167 128.707 8.87695L128.707 12.5488L126.97 12.5488L126.97 9.27468C126.97 9.00242 126.901 8.79527 126.761 8.65323C126.621 8.50882 126.44 8.43661 126.218 8.43661C125.978 8.43661 125.79 8.51474 125.653 8.67099C125.518 8.82487 125.45 9.03202 125.45 9.29243L125.45 12.5488L123.781 12.5488L123.781 9.25692C123.781 9.00361 123.713 8.80356 123.575 8.65678C123.438 8.51 123.257 8.43661 123.032 8.43661C122.881 8.43661 122.747 8.47331 122.631 8.5467C122.515 8.61772 122.424 8.71952 122.357 8.85209C122.294 8.98467 122.262 9.14092 122.262 9.32084L122.262 12.5488L120.525 12.5488Z" fill="white"/>
</svg>
