<svg width="90" height="23" viewBox="0 0 90 23" fill="none" xmlns="http://www.w3.org/2000/svg">
<path d="M89.6406 0H17.3779L0.00178528 22.073H89.6406V0Z" fill="white"/>
<path d="M29.1889 16.0117H26.9219L29.8665 7.28445H32.6747L35.6193 16.0117H33.3523L31.3026 9.48331H31.2344L29.1889 16.0117ZM28.8864 12.5771H33.625V14.1793H28.8864V12.5771ZM39.2042 16.1353C38.5138 16.1353 37.9215 15.9933 37.4272 15.7092C36.9357 15.4251 36.5579 15.0302 36.2937 14.5245C36.0295 14.016 35.8974 13.4279 35.8974 12.7603C35.8974 12.0898 36.0295 11.5018 36.2937 10.9961C36.5607 10.4876 36.94 10.0913 37.4315 9.80717C37.9258 9.52308 38.5153 9.38104 39.1999 9.38104C39.805 9.38104 40.332 9.49041 40.7809 9.70916C41.2326 9.92791 41.5849 10.2376 41.8377 10.6381C42.0934 11.0359 42.2283 11.5032 42.2425 12.0401H40.2951C40.2553 11.7049 40.1417 11.4421 39.9542 11.2518C39.7695 11.0614 39.5281 10.9663 39.2298 10.9663C38.9883 10.9663 38.7766 11.0344 38.5948 11.1708C38.413 11.3043 38.271 11.5032 38.1687 11.7674C38.0692 12.0288 38.0195 12.3526 38.0195 12.739C38.0195 13.1254 38.0692 13.4521 38.1687 13.7191C38.271 13.9833 38.413 14.1836 38.5948 14.32C38.7766 14.4535 38.9883 14.5202 39.2298 14.5202C39.4229 14.5202 39.5934 14.479 39.7411 14.3967C39.8917 14.3143 40.0153 14.1935 40.1119 14.0344C40.2085 13.8725 40.2695 13.6765 40.2951 13.4464H42.2425C42.2227 13.9862 42.0877 14.4577 41.8377 14.8612C41.5906 15.2646 41.2425 15.5785 40.7937 15.8029C40.3477 16.0245 39.8178 16.1353 39.2042 16.1353ZM46.3643 16.1353C45.674 16.1353 45.0817 15.9933 44.5874 15.7092C44.0959 15.4251 43.718 15.0302 43.4538 14.5245C43.1896 14.016 43.0575 13.4279 43.0575 12.7603C43.0575 12.0898 43.1896 11.5018 43.4538 10.9961C43.7209 10.4876 44.1001 10.0913 44.5916 9.80717C45.0859 9.52308 45.6754 9.38104 46.3601 9.38104C46.9652 9.38104 47.4922 9.49041 47.9411 9.70916C48.3928 9.92791 48.745 10.2376 48.9979 10.6381C49.2536 11.0359 49.3885 11.5032 49.4027 12.0401H47.4553C47.4155 11.7049 47.3018 11.4421 47.1143 11.2518C46.9297 11.0614 46.6882 10.9663 46.3899 10.9663C46.1484 10.9663 45.9368 11.0344 45.755 11.1708C45.5732 11.3043 45.4311 11.5032 45.3288 11.7674C45.2294 12.0288 45.1797 12.3526 45.1797 12.739C45.1797 13.1254 45.2294 13.4521 45.3288 13.7191C45.4311 13.9833 45.5732 14.1836 45.755 14.32C45.9368 14.4535 46.1484 14.5202 46.3899 14.5202C46.5831 14.5202 46.7536 14.479 46.9013 14.3967C47.0518 14.3143 47.1754 14.1935 47.272 14.0344C47.3686 13.8725 47.4297 13.6765 47.4553 13.4464H49.4027C49.3828 13.9862 49.2479 14.4577 48.9979 14.8612C48.7507 15.2646 48.4027 15.5785 47.9538 15.8029C47.5078 16.0245 46.978 16.1353 46.3643 16.1353ZM50.4691 16.0117V9.46626H52.5529V16.0117H50.4691ZM51.5131 8.70348C51.2205 8.70348 50.9691 8.60689 50.7589 8.41371C50.5487 8.21768 50.4435 7.98189 50.4435 7.70632C50.4435 7.43359 50.5487 7.20064 50.7589 7.00746C50.9691 6.81143 51.2205 6.71342 51.5131 6.71342C51.8086 6.71342 52.06 6.81143 52.2674 7.00746C52.4776 7.20064 52.5827 7.43359 52.5827 7.70632C52.5827 7.98189 52.4776 8.21768 52.2674 8.41371C52.06 8.60689 51.8086 8.70348 51.5131 8.70348ZM56.9347 16.1353C56.2472 16.1353 55.6563 15.9947 55.1619 15.7134C54.6705 15.4293 54.2912 15.0344 54.0241 14.5288C53.7599 14.0202 53.6278 13.4308 53.6278 12.7603C53.6278 12.087 53.7599 11.4975 54.0241 10.9918C54.2912 10.4833 54.6705 10.0884 55.1619 9.80717C55.6563 9.52308 56.2472 9.38104 56.9347 9.38104C57.6222 9.38104 58.2116 9.52308 58.7031 9.80717C59.1974 10.0884 59.5767 10.4833 59.8409 10.9918C60.108 11.4975 60.2415 12.087 60.2415 12.7603C60.2415 13.4308 60.108 14.0202 59.8409 14.5288C59.5767 15.0344 59.1974 15.4293 58.7031 15.7134C58.2116 15.9947 57.6222 16.1353 56.9347 16.1353ZM56.9474 14.5629C57.1974 14.5629 57.4091 14.4862 57.5824 14.3327C57.7557 14.1793 57.8878 13.9663 57.9787 13.6935C58.0724 13.4208 58.1193 13.1055 58.1193 12.7475C58.1193 12.3839 58.0724 12.0657 57.9787 11.793C57.8878 11.5202 57.7557 11.3072 57.5824 11.1538C57.4091 11.0004 57.1974 10.9237 56.9474 10.9237C56.6889 10.9237 56.4702 11.0004 56.2912 11.1538C56.1151 11.3072 55.9801 11.5202 55.8864 11.793C55.7955 12.0657 55.75 12.3839 55.75 12.7475C55.75 13.1055 55.7955 13.4208 55.8864 13.6935C55.9801 13.9663 56.1151 14.1793 56.2912 14.3327C56.4702 14.4862 56.6889 14.5629 56.9474 14.5629ZM56.2145 8.6353L57.0753 6.71342H58.9205L57.6335 8.6353H56.2145ZM63.3928 12.2788V16.0117H61.3089V9.46626H63.2905V10.668H63.3629C63.5078 10.2674 63.755 9.95348 64.1044 9.72621C64.4538 9.49609 64.87 9.38104 65.353 9.38104C65.8132 9.38104 66.2124 9.48473 66.5504 9.69212C66.8913 9.89666 67.1555 10.1836 67.343 10.5529C67.5334 10.9194 67.6271 11.3484 67.6243 11.8398V16.0117H65.5405V12.2489C65.5433 11.8853 65.451 11.6012 65.2635 11.3967C65.0788 11.1921 64.8217 11.0898 64.4922 11.0898C64.2734 11.0898 64.0803 11.1381 63.9126 11.2347C63.7479 11.3285 63.62 11.4634 63.5291 11.6396C63.4411 11.8157 63.3956 12.0288 63.3928 12.2788Z" fill="#414141"/>
</svg>
