<svg width="111" height="23" viewBox="0 0 111 23" fill="none" xmlns="http://www.w3.org/2000/svg">
<path d="M16.1817 22.0732L93.2056 22.0732L110.035 0.00019914L2.44878e-06 0.000202086L16.1817 22.0732Z" fill="#FAFAFA"/>
<path d="M30.5483 15.0146L28.2812 15.0146L31.2259 6.28738L34.0341 6.28738L36.9787 15.0146L34.7116 15.0146L32.6619 8.48624L32.5937 8.48624L30.5483 15.0146ZM30.2457 11.58L34.9844 11.58L34.9844 13.1823L30.2457 13.1823L30.2457 11.58ZM43.4474 8.46919L41.2017 15.0146L38.8153 15.0146L36.5739 8.46919L38.7685 8.46919L39.9744 12.9777L40.0426 12.9777L41.2528 8.46919L43.4474 8.46919ZM47.0952 15.1382C46.4105 15.1382 45.8196 15.0033 45.3224 14.7334C44.8281 14.4607 44.4474 14.0729 44.1804 13.57C43.9162 13.0644 43.7841 12.4635 43.7841 11.7675C43.7841 11.0914 43.9176 10.5004 44.1847 9.99476C44.4517 9.48624 44.8281 9.09135 45.3139 8.8101C45.7997 8.52601 46.3722 8.38397 47.0312 8.38397C47.4972 8.38397 47.9233 8.45641 48.3097 8.6013C48.696 8.74618 49.0298 8.96067 49.3111 9.24476C49.5923 9.52885 49.8111 9.8797 49.9673 10.2973C50.1236 10.7121 50.2017 11.1879 50.2017 11.7249L50.2017 12.2448L44.5128 12.2448L44.5128 11.0345L48.2628 11.0345C48.2599 10.8129 48.2074 10.6155 48.1051 10.4422C48.0028 10.2689 47.8622 10.134 47.6832 10.0374C47.5071 9.93794 47.304 9.88823 47.0739 9.88823C46.8409 9.88823 46.6321 9.94078 46.4474 10.0459C46.2628 10.1482 46.1165 10.2888 46.0085 10.4678C45.9006 10.6439 45.8437 10.8442 45.8381 11.0686L45.8381 12.3002C45.8381 12.5672 45.8906 12.8016 45.9957 13.0033C46.1009 13.2021 46.25 13.357 46.4432 13.4678C46.6364 13.5786 46.8665 13.634 47.1335 13.634C47.3182 13.634 47.4858 13.6084 47.6364 13.5573C47.7869 13.5061 47.9162 13.4308 48.0241 13.3314C48.1321 13.232 48.2131 13.1098 48.267 12.9649L50.1804 13.0203C50.1009 13.4493 49.9261 13.8229 49.6562 14.1411C49.3892 14.4564 49.0384 14.7021 48.6037 14.8783C48.169 15.0516 47.6662 15.1382 47.0952 15.1382ZM53.3498 11.2817L53.3498 15.0146L51.266 15.0146L51.266 8.46919L53.2475 8.46919L53.2475 9.6709L53.32 9.6709C53.4648 9.27033 53.712 8.95641 54.0614 8.72914C54.4109 8.49902 54.8271 8.38397 55.31 8.38397C55.7702 8.38397 56.1694 8.48766 56.5075 8.69504C56.8484 8.89959 57.1126 9.18652 57.3001 9.55584C57.4904 9.92232 57.5842 10.3513 57.5813 10.8428L57.5813 15.0146L55.4975 15.0146L55.4975 11.2519C55.5004 10.8882 55.408 10.6041 55.2205 10.3996C55.0359 10.195 54.7788 10.0928 54.4492 10.0928C54.2305 10.0928 54.0373 10.1411 53.8697 10.2377C53.7049 10.3314 53.5771 10.4664 53.4862 10.6425C53.3981 10.8186 53.3526 11.0317 53.3498 11.2817ZM62.5661 8.46919L62.5661 10.0033L58.4368 10.0033L58.4368 8.46919L62.5661 8.46919ZM59.3018 6.90101L61.3857 6.90101L61.3857 12.9564C61.3857 13.0842 61.4055 13.1879 61.4453 13.2675C61.4879 13.3442 61.549 13.3996 61.6286 13.4337C61.7081 13.4649 61.8033 13.4806 61.9141 13.4806C61.9936 13.4806 62.0774 13.4735 62.1655 13.4592C62.2564 13.4422 62.3246 13.428 62.37 13.4166L62.6854 14.9209C62.5859 14.9493 62.4453 14.9848 62.2635 15.0274C62.0845 15.07 61.87 15.097 61.62 15.1084C61.1314 15.1311 60.7124 15.0743 60.3629 14.9379C60.0163 14.7987 59.7507 14.5828 59.5661 14.2902C59.3842 13.9976 59.2962 13.6297 59.3018 13.1865L59.3018 6.90101ZM67.8523 12.1894L67.8523 8.46919L69.9318 8.46919L69.9318 15.0146L67.946 15.0146L67.946 13.7959L67.8778 13.7959C67.733 14.1965 67.4858 14.5146 67.1364 14.7504C66.7898 14.9834 66.3707 15.0999 65.8793 15.0999C65.4332 15.0999 65.0412 14.9976 64.7031 14.7931C64.3651 14.5885 64.1023 14.303 63.9148 13.9365C63.7273 13.5672 63.6321 13.1354 63.6293 12.6411L63.6293 8.46919L65.7131 8.46919L65.7131 12.232C65.7159 12.5871 65.8097 12.8669 65.9943 13.0715C66.179 13.276 66.4304 13.3783 66.7486 13.3783C66.956 13.3783 67.142 13.3328 67.3068 13.2419C67.4744 13.1482 67.6065 13.0132 67.7031 12.8371C67.8026 12.6581 67.8523 12.4422 67.8523 12.1894ZM71.2582 15.0146L71.2582 8.46919L73.2823 8.46919L73.2823 9.66237L73.3505 9.66237C73.4698 9.23056 73.6644 8.90953 73.9343 8.69931C74.2042 8.48624 74.5181 8.3797 74.8761 8.3797C74.9727 8.3797 75.0721 8.38681 75.1744 8.40101C75.2766 8.41237 75.3718 8.43084 75.4599 8.45641L75.4599 10.2675C75.3604 10.2334 75.2298 10.2064 75.0678 10.1865C74.9087 10.1666 74.7667 10.1567 74.6417 10.1567C74.3945 10.1567 74.1715 10.2121 73.9727 10.3229C73.7766 10.4308 73.6218 10.5828 73.5082 10.7789C73.3974 10.972 73.342 11.1993 73.342 11.4607L73.342 15.0146L71.2582 15.0146ZM77.908 15.1254C77.4904 15.1254 77.1197 15.0558 76.7958 14.9166C76.4748 14.7746 76.2205 14.5615 76.033 14.2774C75.8484 13.9905 75.756 13.6311 75.756 13.1993C75.756 12.8357 75.82 12.5289 75.9478 12.2789C76.0756 12.0289 76.2518 11.8257 76.4762 11.6695C76.7006 11.5132 76.9592 11.3953 77.2518 11.3158C77.5444 11.2334 77.8569 11.178 78.1893 11.1496C78.5614 11.1155 78.8612 11.08 79.0884 11.0431C79.3157 11.0033 79.4805 10.9479 79.5827 10.8769C79.6879 10.803 79.7404 10.6993 79.7404 10.5658L79.7404 10.5445C79.7404 10.3257 79.6651 10.1567 79.5146 10.0374C79.364 9.91806 79.1609 9.8584 78.9052 9.8584C78.6296 9.8584 78.408 9.91806 78.2404 10.0374C78.0728 10.1567 77.9663 10.3215 77.9208 10.5317L75.9989 10.4635C76.0558 10.0658 76.2021 9.71067 76.4379 9.39817C76.6765 9.08283 77.0032 8.83567 77.418 8.65669C77.8356 8.47487 78.337 8.38397 78.9222 8.38397C79.3398 8.38397 79.7248 8.43368 80.0771 8.53311C80.4293 8.6297 80.7362 8.77175 80.9975 8.95925C81.2589 9.14391 81.4606 9.37118 81.6026 9.64107C81.7475 9.91095 81.82 10.2192 81.82 10.5658L81.82 15.0146L79.8597 15.0146L79.8597 14.1027L79.8086 14.1027C79.6921 14.3243 79.543 14.5118 79.3612 14.6652C79.1822 14.8186 78.9705 14.9337 78.7262 15.0104C78.4847 15.0871 78.212 15.1254 77.908 15.1254ZM78.5515 13.7618C78.7759 13.7618 78.9776 13.7164 79.1566 13.6254C79.3384 13.5345 79.4833 13.4095 79.5913 13.2504C79.6992 13.0885 79.7532 12.901 79.7532 12.6879L79.7532 12.0658C79.6935 12.097 79.6211 12.1254 79.5359 12.151C79.4535 12.1766 79.3626 12.2007 79.2631 12.2235C79.1637 12.2462 79.0614 12.2661 78.9563 12.2831C78.8512 12.3002 78.7504 12.3158 78.6538 12.33C78.4577 12.3612 78.2901 12.4095 78.1509 12.4749C78.0146 12.5402 77.9094 12.6254 77.8356 12.7306C77.7646 12.8328 77.729 12.955 77.729 13.097C77.729 13.3129 77.8058 13.4777 77.9592 13.5914C78.1154 13.705 78.3129 13.7618 78.5515 13.7618Z" fill="#414141"/>
</svg>
