<svg width="149" height="23" viewBox="0 0 149 23" fill="none" xmlns="http://www.w3.org/2000/svg">
<path d="M133.366 0L18.0426 0L0.00325513 22.0741L148.828 22.0741L133.366 0Z" fill="white"/>
<path d="M31.6605 15.0098L31.6605 6.28249L33.7699 6.28249L33.7699 9.78533L37.2088 9.78533L37.2088 6.28249L39.3139 6.28249L39.3139 15.0098L37.2088 15.0098L37.2088 11.5027L33.7699 11.5027L33.7699 15.0098L31.6605 15.0098ZM42.4822 15.1206C42.0646 15.1206 41.6939 15.051 41.37 14.9118C41.049 14.7697 40.7947 14.5566 40.6072 14.2725C40.4226 13.9856 40.3303 13.6262 40.3303 13.1944C40.3303 12.8308 40.3942 12.524 40.522 12.274C40.6499 12.024 40.826 11.8208 41.0504 11.6646C41.2749 11.5083 41.5334 11.3904 41.826 11.3109C42.1186 11.2285 42.4311 11.1731 42.7635 11.1447C43.1357 11.1106 43.4354 11.0751 43.6626 11.0382C43.8899 10.9984 44.0547 10.943 44.157 10.872C44.2621 10.7981 44.3146 10.6944 44.3146 10.5609L44.3146 10.5396C44.3146 10.3208 44.2393 10.1518 44.0888 10.0325C43.9382 9.91317 43.7351 9.85351 43.4794 9.85351C43.2038 9.85351 42.9822 9.91317 42.8146 10.0325C42.647 10.1518 42.5405 10.3166 42.495 10.5268L40.5732 10.4586C40.63 10.0609 40.7763 9.70579 41.0121 9.39329C41.2507 9.07795 41.5774 8.83079 41.9922 8.65181C42.4098 8.46999 42.9112 8.37908 43.4964 8.37908C43.9141 8.37908 44.299 8.4288 44.6513 8.52823C45.0036 8.62482 45.3104 8.76687 45.5717 8.95437C45.8331 9.13902 46.0348 9.3663 46.1768 9.63618C46.3217 9.90607 46.3942 10.2143 46.3942 10.5609L46.3942 15.0098L44.434 15.0098L44.434 14.0978L44.3828 14.0978C44.2663 14.3194 44.1172 14.5069 43.9354 14.6603C43.7564 14.8137 43.5447 14.9288 43.3004 15.0055C43.059 15.0822 42.7862 15.1206 42.4822 15.1206ZM43.1257 13.7569C43.3501 13.7569 43.5518 13.7115 43.7308 13.6206C43.9126 13.5297 44.0575 13.4046 44.1655 13.2456C44.2734 13.0836 44.3274 12.8961 44.3274 12.6831L44.3274 12.0609C44.2678 12.0921 44.1953 12.1206 44.1101 12.1461C44.0277 12.1717 43.9368 12.1958 43.8374 12.2186C43.7379 12.2413 43.6357 12.2612 43.5305 12.2782C43.4254 12.2953 43.3246 12.3109 43.228 12.3251C43.032 12.3564 42.8643 12.4047 42.7251 12.47C42.5888 12.5353 42.4837 12.6206 42.4098 12.7257C42.3388 12.8279 42.3033 12.9501 42.3033 13.0922C42.3033 13.3081 42.38 13.4728 42.5334 13.5865C42.6896 13.7001 42.8871 13.7569 43.1257 13.7569ZM50.7237 15.1333C50.0334 15.1333 49.4411 14.9913 48.9467 14.7072C48.4553 14.4231 48.0774 14.0282 47.8132 13.5225C47.549 13.014 47.4169 12.426 47.4169 11.7583C47.4169 11.0879 47.549 10.4998 47.8132 9.99414C48.0803 9.48562 48.4595 9.08931 48.951 8.80522C49.4453 8.52113 50.0348 8.37908 50.7195 8.37908C51.3246 8.37908 51.8516 8.48846 52.3004 8.70721C52.7521 8.92596 53.1044 9.23561 53.3572 9.63618C53.6129 10.0339 53.7479 10.5012 53.7621 11.0382L51.8146 11.0382C51.7749 10.7029 51.6612 10.4402 51.4737 10.2498C51.2891 10.0595 51.0476 9.96431 50.7493 9.96431C50.5078 9.96431 50.2962 10.0325 50.1143 10.1689C49.9325 10.3024 49.7905 10.5012 49.6882 10.7654C49.5888 11.0268 49.5391 11.3507 49.5391 11.737C49.5391 12.1234 49.5888 12.4501 49.6882 12.7171C49.7905 12.9814 49.9325 13.1816 50.1143 13.318C50.2962 13.4515 50.5078 13.5183 50.7493 13.5183C50.9425 13.5183 51.1129 13.4771 51.2607 13.3947C51.4112 13.3123 51.5348 13.1916 51.6314 13.0325C51.728 12.8706 51.7891 12.6745 51.8146 12.4444L53.7621 12.4444C53.7422 12.9842 53.6072 13.4558 53.3572 13.8592C53.1101 14.2626 52.7621 14.5765 52.3132 14.801C51.8672 15.0225 51.3374 15.1333 50.7237 15.1333ZM56.7077 13.2924L56.7163 10.8081L57.006 10.8081L58.8469 8.46431L61.2077 8.46431L58.4719 11.8223L57.9222 11.8223L56.7077 13.2924ZM54.8285 15.0098L54.8285 6.28249L56.9123 6.28249L56.9123 15.0098L54.8285 15.0098ZM58.8938 15.0098L57.1808 12.291L58.5529 10.8123L61.3015 15.0098L58.8938 15.0098ZM66.3768 15.1206C65.9592 15.1206 65.5884 15.051 65.2646 14.9117C64.9435 14.7697 64.6893 14.5566 64.5018 14.2725C64.3171 13.9856 64.2248 13.6262 64.2248 13.1944C64.2248 12.8308 64.2887 12.524 64.4165 12.274C64.5444 12.024 64.7205 11.8208 64.945 11.6646C65.1694 11.5083 65.4279 11.3904 65.7205 11.3109C66.0131 11.2285 66.3256 11.1731 66.658 11.1447C67.0302 11.1106 67.3299 11.0751 67.5572 11.0382C67.7844 10.9984 67.9492 10.943 68.0515 10.872C68.1566 10.7981 68.2092 10.6944 68.2092 10.5609L68.2092 10.5396C68.2092 10.3208 68.1339 10.1518 67.9833 10.0325C67.8327 9.91317 67.6296 9.85351 67.3739 9.85351C67.0984 9.85351 66.8768 9.91317 66.7092 10.0325C66.5415 10.1518 66.435 10.3166 66.3896 10.5268L64.4677 10.4586C64.5245 10.0609 64.6708 9.70578 64.9066 9.39328C65.1452 9.07794 65.4719 8.83078 65.8867 8.65181C66.3043 8.46999 66.8058 8.37908 67.391 8.37908C67.8086 8.37908 68.1935 8.42879 68.5458 8.52823C68.8981 8.62482 69.2049 8.76686 69.4663 8.95436C69.7276 9.13902 69.9293 9.36629 70.0714 9.63618C70.2163 9.90607 70.2887 10.2143 70.2887 10.5609L70.2887 15.0098L68.3285 15.0098L68.3285 14.0978L68.2773 14.0978C68.1609 14.3194 68.0117 14.5069 67.8299 14.6603C67.6509 14.8137 67.4393 14.9288 67.195 15.0055C66.9535 15.0822 66.6808 15.1206 66.3768 15.1206ZM67.0202 13.7569C67.2447 13.7569 67.4464 13.7115 67.6254 13.6206C67.8072 13.5296 67.9521 13.4046 68.06 13.2456C68.168 13.0836 68.2219 12.8961 68.2219 12.6831L68.2219 12.0609C68.1623 12.0921 68.0898 12.1206 68.0046 12.1461C67.9222 12.1717 67.8313 12.1958 67.7319 12.2186C67.6325 12.2413 67.5302 12.2612 67.4251 12.2782C67.32 12.2953 67.2191 12.3109 67.1225 12.3251C66.9265 12.3564 66.7589 12.4046 66.6197 12.47C66.4833 12.5353 66.3782 12.6206 66.3043 12.7257C66.2333 12.8279 66.1978 12.9501 66.1978 13.0921C66.1978 13.3081 66.2745 13.4728 66.4279 13.5865C66.5842 13.7001 66.7816 13.7569 67.0202 13.7569ZM73.6467 11.2768L73.6467 15.0098L71.5629 15.0098L71.5629 8.4643L73.5444 8.4643L73.5444 9.66601L73.6168 9.66601C73.7617 9.26544 74.0089 8.95152 74.3583 8.72425C74.7077 8.49413 75.1239 8.37908 75.6069 8.37908C76.0671 8.37908 76.4663 8.48277 76.8043 8.69016C77.1452 8.8947 77.4094 9.18163 77.5969 9.55095C77.7873 9.91743 77.881 10.3464 77.8782 10.8379L77.8782 15.0098L75.7944 15.0098L75.7944 11.247C75.7972 10.8833 75.7049 10.5992 75.5174 10.3947C75.3327 10.1902 75.0756 10.0879 74.7461 10.0879C74.5273 10.0879 74.3342 10.1362 74.1665 10.2328C74.0018 10.3265 73.8739 10.4615 73.783 10.6376C73.695 10.8137 73.6495 11.0268 73.6467 11.2768ZM81.559 15.1035C81.076 15.1035 80.6371 14.9785 80.2422 14.7285C79.8473 14.4785 79.532 14.1035 79.2962 13.6035C79.0604 13.1035 78.9425 12.4828 78.9425 11.7413C78.9425 10.9714 79.0646 10.3379 79.3089 9.84072C79.5533 9.34356 79.8729 8.97567 80.2678 8.73703C80.6655 8.49839 81.093 8.37908 81.5504 8.37908C81.8942 8.37908 82.1882 8.43874 82.4325 8.55805C82.6768 8.67453 82.8786 8.8251 83.0376 9.00976C83.1967 9.19442 83.3175 9.38618 83.3999 9.58504L83.4425 9.58504L83.4425 6.28248L85.5263 6.28248L85.5263 15.0098L83.4638 15.0098L83.4638 13.9487L83.3999 13.9487C83.3118 14.1504 83.1868 14.3393 83.0249 14.5154C82.8629 14.6916 82.6598 14.8336 82.4155 14.9416C82.174 15.0495 81.8885 15.1035 81.559 15.1035ZM82.2834 13.4799C82.5362 13.4799 82.7521 13.4089 82.9311 13.2669C83.1101 13.122 83.2479 12.9188 83.3445 12.6575C83.4411 12.3961 83.4893 12.0893 83.4893 11.737C83.4893 11.3791 83.4411 11.0708 83.3445 10.8123C83.2507 10.5538 83.1129 10.3549 82.9311 10.2157C82.7521 10.0765 82.5362 10.0069 82.2834 10.0069C82.0249 10.0069 81.8061 10.0779 81.6271 10.22C81.4482 10.362 81.3118 10.5623 81.218 10.8208C81.1271 11.0794 81.0817 11.3848 81.0817 11.737C81.0817 12.0893 81.1286 12.3961 81.2223 12.6575C81.3161 12.9188 81.451 13.122 81.6271 13.2669C81.8061 13.4089 82.0249 13.4799 82.2834 13.4799ZM95.1367 10.4629L93.2234 10.514C93.2035 10.3777 93.1495 10.2569 93.0614 10.1518C92.9734 10.0438 92.8583 9.96004 92.7163 9.90038C92.5771 9.83788 92.4151 9.80663 92.2305 9.80663C91.989 9.80663 91.783 9.85493 91.6126 9.95152C91.445 10.0481 91.3626 10.1788 91.3654 10.3436C91.3626 10.4714 91.4137 10.5822 91.5188 10.6759C91.6268 10.7697 91.8185 10.845 92.0941 10.9018L93.3555 11.1404C94.0089 11.2654 94.4947 11.4728 94.8129 11.7626C95.1339 12.0524 95.2958 12.4359 95.2987 12.9132C95.2958 13.362 95.1623 13.7527 94.8981 14.085C94.6367 14.4174 94.2788 14.6759 93.8242 14.8606C93.3697 15.0424 92.8498 15.1333 92.2646 15.1333C91.3299 15.1333 90.5927 14.9416 90.0529 14.5581C89.516 14.1717 89.2092 13.6546 89.1325 13.0069L91.1907 12.9558C91.2362 13.1944 91.354 13.3762 91.5444 13.5012C91.7347 13.6262 91.9776 13.6887 92.2731 13.6887C92.5401 13.6887 92.7575 13.639 92.9251 13.5396C93.0927 13.4402 93.1779 13.3081 93.1808 13.1433C93.1779 12.9956 93.1126 12.8777 92.9847 12.7896C92.8569 12.6987 92.6566 12.6277 92.3839 12.5765L91.2418 12.3592C90.5856 12.2399 90.0969 12.0197 89.7759 11.6987C89.4549 11.3748 89.2958 10.9629 89.2987 10.4629C89.2958 10.0254 89.4123 9.6518 89.6481 9.34214C89.8839 9.02964 90.2191 8.79101 90.6538 8.62623C91.0884 8.46146 91.6012 8.37907 92.1921 8.37907C93.0785 8.37907 93.7773 8.56515 94.2887 8.93731C94.8001 9.30663 95.0827 9.81515 95.1367 10.4629ZM98.4084 6.28248L98.4084 15.0098L96.3246 15.0098L96.3246 6.28248L98.4084 6.28248ZM101.58 15.1206C101.162 15.1206 100.792 15.0509 100.468 14.9117C100.147 14.7697 99.8924 14.5566 99.7049 14.2725C99.5202 13.9856 99.4279 13.6262 99.4279 13.1944C99.4279 12.8308 99.4918 12.524 99.6197 12.274C99.7475 12.024 99.9237 11.8208 100.148 11.6646C100.373 11.5083 100.631 11.3904 100.924 11.3109C101.216 11.2285 101.529 11.1731 101.861 11.1447C102.233 11.1106 102.533 11.0751 102.76 11.0382C102.988 10.9984 103.152 10.943 103.255 10.872C103.36 10.7981 103.412 10.6944 103.412 10.5609L103.412 10.5396C103.412 10.3208 103.337 10.1518 103.186 10.0325C103.036 9.91316 102.833 9.8535 102.577 9.8535C102.301 9.8535 102.08 9.91316 101.912 10.0325C101.745 10.1518 101.638 10.3166 101.593 10.5268L99.6708 10.4586C99.7276 10.0609 99.8739 9.70578 100.11 9.39328C100.348 9.07794 100.675 8.83078 101.09 8.6518C101.507 8.46998 102.009 8.37907 102.594 8.37907C103.012 8.37907 103.397 8.42879 103.749 8.52822C104.101 8.62481 104.408 8.76686 104.669 8.95436C104.931 9.13902 105.132 9.36629 105.275 9.63617C105.419 9.90606 105.492 10.2143 105.492 10.5609L105.492 15.0098L103.532 15.0098L103.532 14.0978L103.48 14.0978C103.364 14.3194 103.215 14.5069 103.033 14.6603C102.854 14.8137 102.642 14.9288 102.398 15.0055C102.157 15.0822 101.884 15.1206 101.58 15.1206ZM102.223 13.7569C102.448 13.7569 102.65 13.7115 102.828 13.6206C103.01 13.5296 103.155 13.4046 103.263 13.2456C103.371 13.0836 103.425 12.8961 103.425 12.6831L103.425 12.0609C103.365 12.0921 103.293 12.1206 103.208 12.1461C103.125 12.1717 103.034 12.1958 102.935 12.2186C102.836 12.2413 102.733 12.2612 102.628 12.2782C102.523 12.2953 102.422 12.3109 102.326 12.3251C102.13 12.3563 101.962 12.4046 101.823 12.47C101.686 12.5353 101.581 12.6206 101.507 12.7257C101.436 12.8279 101.401 12.9501 101.401 13.0921C101.401 13.3081 101.478 13.4728 101.631 13.5865C101.787 13.7001 101.985 13.7569 102.223 13.7569ZM112.48 10.4629L110.567 10.514C110.547 10.3777 110.493 10.2569 110.405 10.1518C110.317 10.0438 110.202 9.96004 110.06 9.90038C109.921 9.83788 109.759 9.80663 109.574 9.80663C109.333 9.80663 109.127 9.85492 108.956 9.95152C108.789 10.0481 108.706 10.1788 108.709 10.3436C108.706 10.4714 108.757 10.5822 108.863 10.6759C108.971 10.7697 109.162 10.845 109.438 10.9018L110.699 11.1404C111.353 11.2654 111.838 11.4728 112.157 11.7626C112.478 12.0524 112.64 12.4359 112.642 12.9132C112.64 13.362 112.506 13.7527 112.242 14.085C111.98 14.4174 111.623 14.6759 111.168 14.8606C110.713 15.0424 110.194 15.1333 109.608 15.1333C108.674 15.1333 107.936 14.9416 107.397 14.558C106.86 14.1717 106.553 13.6546 106.476 13.0069L108.534 12.9558C108.58 13.1944 108.698 13.3762 108.888 13.5012C109.078 13.6262 109.321 13.6887 109.617 13.6887C109.884 13.6887 110.101 13.639 110.269 13.5396C110.436 13.4402 110.522 13.308 110.525 13.1433C110.522 12.9955 110.456 12.8777 110.328 12.7896C110.201 12.6987 110 12.6277 109.728 12.5765L108.586 12.3592C107.929 12.2399 107.441 12.0197 107.12 11.6987C106.799 11.3748 106.64 10.9629 106.642 10.4629C106.64 10.0254 106.756 9.6518 106.992 9.34214C107.228 9.02964 107.563 8.791 107.998 8.62623C108.432 8.46146 108.945 8.37907 109.536 8.37907C110.422 8.37907 111.121 8.56515 111.632 8.93731C112.144 9.30663 112.426 9.81515 112.48 10.4629ZM115.752 11.2768L115.752 15.0098L113.668 15.0098L113.668 6.28248L115.684 6.28248L115.684 9.666L115.756 9.666C115.904 9.26259 116.146 8.94725 116.481 8.71998C116.819 8.49271 117.232 8.37907 117.721 8.37907C118.181 8.37907 118.582 8.48134 118.923 8.68589C119.263 8.88759 119.528 9.1731 119.715 9.54242C119.906 9.91174 119.999 10.3436 119.996 10.8379L119.996 15.0098L117.913 15.0098L117.913 11.247C117.915 10.8833 117.825 10.5992 117.64 10.3947C117.455 10.1902 117.195 10.0879 116.86 10.0879C116.641 10.0879 116.448 10.1362 116.281 10.2328C116.116 10.3265 115.987 10.4615 115.893 10.6376C115.802 10.8137 115.755 11.0268 115.752 11.2768Z" fill="black"/>
</svg>
