<svg width="414" height="35" viewBox="0 0 414 35" fill="none" xmlns="http://www.w3.org/2000/svg">
<path d="M0 0H414L385 35H0V0Z" fill="#D80D1C"/>
<path d="M152.56 10.4545V25H149.485V10.4545H152.56ZM158.059 18.6932V25H155.034V14.0909H157.917V16.0156H158.045C158.286 15.3812 158.691 14.8793 159.259 14.5099C159.828 14.1359 160.517 13.9489 161.326 13.9489C162.084 13.9489 162.744 14.1146 163.308 14.446C163.871 14.7775 164.309 15.2509 164.622 15.8665C164.934 16.4773 165.09 17.2064 165.09 18.054V25H162.065V18.5938C162.07 17.9261 161.899 17.4053 161.553 17.0312C161.208 16.6525 160.732 16.4631 160.126 16.4631C159.719 16.4631 159.359 16.5507 159.046 16.7259C158.739 16.901 158.497 17.1567 158.322 17.4929C158.151 17.8243 158.064 18.2244 158.059 18.6932ZM173.341 14.0909V16.3636H166.608V14.0909H173.341ZM168.15 25V13.3026C168.15 12.5118 168.304 11.8561 168.611 11.3352C168.924 10.8144 169.35 10.4238 169.89 10.1634C170.43 9.90293 171.043 9.77273 171.729 9.77273C172.193 9.77273 172.617 9.80824 173.001 9.87926C173.389 9.95028 173.678 10.0142 173.867 10.071L173.327 12.3438C173.209 12.3059 173.062 12.2704 172.887 12.2372C172.716 12.2041 172.541 12.1875 172.361 12.1875C171.916 12.1875 171.606 12.2917 171.431 12.5C171.256 12.7036 171.168 12.9901 171.168 13.3594V25H168.15ZM179.728 25.2131C178.625 25.2131 177.671 24.9787 176.866 24.5099C176.066 24.0365 175.448 23.3783 175.012 22.5355C174.577 21.688 174.359 20.7055 174.359 19.5881C174.359 18.4612 174.577 17.4763 175.012 16.6335C175.448 15.786 176.066 15.1278 176.866 14.6591C177.671 14.1856 178.625 13.9489 179.728 13.9489C180.831 13.9489 181.783 14.1856 182.583 14.6591C183.388 15.1278 184.008 15.786 184.444 16.6335C184.88 17.4763 185.097 18.4612 185.097 19.5881C185.097 20.7055 184.88 21.688 184.444 22.5355C184.008 23.3783 183.388 24.0365 182.583 24.5099C181.783 24.9787 180.831 25.2131 179.728 25.2131ZM179.742 22.8693C180.244 22.8693 180.663 22.7273 180.999 22.4432C181.336 22.1544 181.589 21.7614 181.759 21.2642C181.935 20.767 182.022 20.2012 182.022 19.5668C182.022 18.9323 181.935 18.3665 181.759 17.8693C181.589 17.3722 181.336 16.9792 180.999 16.6903C180.663 16.4015 180.244 16.2571 179.742 16.2571C179.236 16.2571 178.81 16.4015 178.464 16.6903C178.123 16.9792 177.865 17.3722 177.69 17.8693C177.519 18.3665 177.434 18.9323 177.434 19.5668C177.434 20.2012 177.519 20.767 177.69 21.2642C177.865 21.7614 178.123 22.1544 178.464 22.4432C178.81 22.7273 179.236 22.8693 179.742 22.8693ZM187.065 25V14.0909H189.998V15.9943H190.112C190.311 15.3172 190.644 14.8059 191.113 14.4602C191.582 14.1098 192.122 13.9347 192.732 13.9347C192.884 13.9347 193.047 13.9441 193.222 13.9631C193.398 13.982 193.552 14.008 193.684 14.0412V16.7259C193.542 16.6832 193.346 16.6454 193.095 16.6122C192.844 16.5791 192.614 16.5625 192.406 16.5625C191.961 16.5625 191.563 16.6596 191.213 16.8537C190.867 17.0431 190.592 17.3082 190.389 17.6491C190.19 17.9901 190.09 18.383 190.09 18.8281V25H187.065ZM195.248 25V14.0909H198.132V16.0156H198.26C198.487 15.3764 198.866 14.8722 199.396 14.5028C199.926 14.1335 200.561 13.9489 201.3 13.9489C202.048 13.9489 202.684 14.1359 203.21 14.5099C203.736 14.8793 204.086 15.3812 204.261 16.0156H204.375C204.597 15.3906 205 14.8911 205.582 14.517C206.169 14.1383 206.863 13.9489 207.663 13.9489C208.681 13.9489 209.507 14.2732 210.142 14.9219C210.781 15.5658 211.101 16.4796 211.101 17.6634V25H208.082V18.2599C208.082 17.6539 207.921 17.1993 207.599 16.8963C207.277 16.5933 206.875 16.4418 206.392 16.4418C205.843 16.4418 205.414 16.617 205.106 16.9673C204.799 17.313 204.645 17.7699 204.645 18.3381V25H201.711V18.196C201.711 17.661 201.558 17.2348 201.25 16.9176C200.947 16.6004 200.547 16.4418 200.05 16.4418C199.713 16.4418 199.41 16.527 199.14 16.6974C198.875 16.8632 198.665 17.0975 198.508 17.4006C198.352 17.6989 198.274 18.0492 198.274 18.4517V25H195.248ZM216.601 25.206C215.905 25.206 215.285 25.0852 214.741 24.8438C214.196 24.5975 213.765 24.2353 213.448 23.7571C213.135 23.2741 212.979 22.6728 212.979 21.9531C212.979 21.3471 213.09 20.8381 213.313 20.4261C213.536 20.0142 213.839 19.6828 214.222 19.4318C214.606 19.1809 215.041 18.9915 215.529 18.8636C216.021 18.7358 216.537 18.6458 217.077 18.5938C217.712 18.5275 218.223 18.4659 218.611 18.4091C219 18.3475 219.281 18.2576 219.456 18.1392C219.632 18.0208 219.719 17.8456 219.719 17.6136V17.571C219.719 17.1212 219.577 16.7732 219.293 16.527C219.014 16.2808 218.616 16.1577 218.1 16.1577C217.555 16.1577 217.122 16.2784 216.8 16.5199C216.478 16.7566 216.265 17.0549 216.161 17.4148L213.363 17.1875C213.505 16.5246 213.784 15.9517 214.201 15.4688C214.617 14.9811 215.155 14.607 215.813 14.3466C216.476 14.0814 217.243 13.9489 218.114 13.9489C218.72 13.9489 219.3 14.0199 219.854 14.1619C220.413 14.304 220.908 14.5241 221.339 14.8224C221.774 15.1207 222.117 15.5043 222.368 15.973C222.619 16.437 222.745 16.9934 222.745 17.642V25H219.876V23.4872H219.79C219.615 23.8281 219.381 24.1288 219.087 24.3892C218.794 24.6449 218.441 24.8461 218.029 24.9929C217.617 25.1349 217.141 25.206 216.601 25.206ZM217.468 23.1179C217.913 23.1179 218.306 23.0303 218.647 22.8551C218.988 22.6752 219.255 22.4337 219.449 22.1307C219.644 21.8277 219.741 21.4844 219.741 21.1009V19.9432C219.646 20.0047 219.516 20.0616 219.35 20.1136C219.189 20.161 219.007 20.206 218.803 20.2486C218.599 20.2865 218.396 20.322 218.192 20.3551C217.989 20.3835 217.804 20.4096 217.638 20.4332C217.283 20.4853 216.973 20.5682 216.708 20.6818C216.443 20.7955 216.237 20.9493 216.09 21.1435C215.943 21.3329 215.87 21.5696 215.87 21.8537C215.87 22.2656 216.019 22.5805 216.317 22.7983C216.62 23.0114 217.004 23.1179 217.468 23.1179ZM230.021 25.2131C228.904 25.2131 227.943 24.9763 227.138 24.5028C226.337 24.0246 225.722 23.3617 225.291 22.5142C224.865 21.6667 224.652 20.6913 224.652 19.5881C224.652 18.4706 224.867 17.4905 225.298 16.6477C225.734 15.8002 226.352 15.1397 227.152 14.6662C227.952 14.188 228.904 13.9489 230.007 13.9489C230.959 13.9489 231.792 14.1217 232.507 14.4673C233.222 14.813 233.788 15.2983 234.204 15.9233C234.621 16.5483 234.851 17.2822 234.893 18.125H232.038C231.958 17.5805 231.745 17.1425 231.399 16.8111C231.058 16.4749 230.611 16.3068 230.057 16.3068C229.588 16.3068 229.178 16.4347 228.828 16.6903C228.482 16.9413 228.212 17.3082 228.018 17.7912C227.824 18.2741 227.727 18.8589 227.727 19.5455C227.727 20.2415 227.822 20.8333 228.011 21.321C228.205 21.8087 228.478 22.1804 228.828 22.4361C229.178 22.6918 229.588 22.8196 230.057 22.8196C230.402 22.8196 230.712 22.7486 230.987 22.6065C231.266 22.4645 231.496 22.2585 231.676 21.9886C231.861 21.714 231.981 21.3849 232.038 21.0014H234.893C234.846 21.8348 234.619 22.5687 234.211 23.2031C233.809 23.8329 233.253 24.3253 232.542 24.6804C231.832 25.0355 230.992 25.2131 230.021 25.2131ZM236.83 25V14.0909H239.856V25H236.83ZM238.35 12.6847C237.901 12.6847 237.515 12.5355 237.193 12.2372C236.875 11.9342 236.717 11.572 236.717 11.1506C236.717 10.7339 236.875 10.3764 237.193 10.0781C237.515 9.77509 237.901 9.62358 238.35 9.62358C238.8 9.62358 239.184 9.77509 239.501 10.0781C239.823 10.3764 239.984 10.7339 239.984 11.1506C239.984 11.572 239.823 11.9342 239.501 12.2372C239.184 12.5355 238.8 12.6847 238.35 12.6847ZM247.209 25.2131C246.105 25.2131 245.151 24.9787 244.346 24.5099C243.546 24.0365 242.928 23.3783 242.493 22.5355C242.057 21.688 241.839 20.7055 241.839 19.5881C241.839 18.4612 242.057 17.4763 242.493 16.6335C242.928 15.786 243.546 15.1278 244.346 14.6591C245.151 14.1856 246.105 13.9489 247.209 13.9489C248.312 13.9489 249.264 14.1856 250.064 14.6591C250.869 15.1278 251.489 15.786 251.925 16.6335C252.36 17.4763 252.578 18.4612 252.578 19.5881C252.578 20.7055 252.36 21.688 251.925 22.5355C251.489 23.3783 250.869 24.0365 250.064 24.5099C249.264 24.9787 248.312 25.2131 247.209 25.2131ZM247.223 22.8693C247.725 22.8693 248.144 22.7273 248.48 22.4432C248.816 22.1544 249.069 21.7614 249.24 21.2642C249.415 20.767 249.503 20.2012 249.503 19.5668C249.503 18.9323 249.415 18.3665 249.24 17.8693C249.069 17.3722 248.816 16.9792 248.48 16.6903C248.144 16.4015 247.725 16.2571 247.223 16.2571C246.716 16.2571 246.29 16.4015 245.944 16.6903C245.604 16.9792 245.345 17.3722 245.17 17.8693C245 18.3665 244.915 18.9323 244.915 19.5668C244.915 20.2012 245 20.767 245.17 21.2642C245.345 21.7614 245.604 22.1544 245.944 22.4432C246.29 22.7273 246.716 22.8693 247.223 22.8693ZM246.122 12.6847L247.628 9.45312H250.426L248.26 12.6847H246.122ZM257.571 18.6932V25H254.545V14.0909H257.429V16.0156H257.557C257.798 15.3812 258.203 14.8793 258.771 14.5099C259.339 14.1359 260.028 13.9489 260.838 13.9489C261.595 13.9489 262.256 14.1146 262.819 14.446C263.383 14.7775 263.821 15.2509 264.133 15.8665C264.446 16.4773 264.602 17.2064 264.602 18.054V25H261.577V18.5938C261.581 17.9261 261.411 17.4053 261.065 17.0312C260.72 16.6525 260.244 16.4631 259.638 16.4631C259.23 16.4631 258.871 16.5507 258.558 16.7259C258.25 16.901 258.009 17.1567 257.834 17.4929C257.663 17.8243 257.576 18.2244 257.571 18.6932Z" fill="white"/>
</svg>
