<svg width="405" height="26" viewBox="0 0 405 26" fill="none" xmlns="http://www.w3.org/2000/svg">
<rect y="0.449219" width="194" height="25" rx="2" fill="#EFF2F5"/>
<path d="M37.2065 12.6895H35.3911L35.3857 12.1201H36.9595C37.2674 12.1201 37.5324 12.0646 37.7544 11.9536C37.9764 11.8426 38.1447 11.6797 38.2593 11.4648C38.3774 11.2464 38.4365 10.9779 38.4365 10.6592C38.4365 10.3333 38.3792 10.063 38.2646 9.84814C38.1536 9.62972 37.9836 9.46859 37.7544 9.36475C37.5288 9.25732 37.2459 9.20361 36.9058 9.20361H35.5469V16.4492H34.9292V8.62891H36.9004C37.237 8.62891 37.5378 8.67008 37.8027 8.75244C38.0677 8.83122 38.2933 8.95475 38.4795 9.12305C38.6657 9.28776 38.8071 9.49902 38.9038 9.75684C39.0041 10.0146 39.0542 10.3208 39.0542 10.6753C39.0542 10.9976 38.9915 11.2876 38.8662 11.5454C38.7409 11.8032 38.5654 12.0145 38.3398 12.1792C38.1178 12.3439 37.8529 12.446 37.5449 12.4854L37.2065 12.6895ZM37.1636 16.4492H35.1816L35.5093 15.8745H37.1636C37.4787 15.8745 37.7472 15.8101 37.9692 15.6812C38.1912 15.5487 38.3613 15.3607 38.4795 15.1172C38.6012 14.8737 38.6621 14.5837 38.6621 14.2471C38.6621 13.957 38.6102 13.6938 38.5063 13.4575C38.4025 13.2212 38.2414 13.035 38.0229 12.8989C37.8081 12.7593 37.536 12.6895 37.2065 12.6895H36.0356L36.0464 12.1201H37.6846L37.8027 12.3242C38.1035 12.3636 38.3631 12.4728 38.5815 12.6519C38.8035 12.8309 38.9754 13.0583 39.0972 13.334C39.2189 13.6097 39.2798 13.9123 39.2798 14.2417C39.2798 14.7179 39.1903 15.1208 39.0112 15.4502C38.8358 15.776 38.5887 16.0249 38.27 16.1968C37.9513 16.3651 37.5825 16.4492 37.1636 16.4492ZM43.8022 15.1064V10.6377H44.3984V16.4492H43.8184L43.8022 15.1064ZM43.9097 14.0215L44.1997 14.0107C44.1997 14.376 44.1621 14.7144 44.0869 15.0259C44.0153 15.3338 43.9025 15.6024 43.7485 15.8315C43.5981 16.0607 43.4012 16.2397 43.1577 16.3687C42.9178 16.494 42.626 16.5566 42.2822 16.5566C42.0423 16.5566 41.8221 16.5155 41.6216 16.4331C41.4246 16.3507 41.2563 16.2236 41.1167 16.0518C40.9771 15.8763 40.8678 15.6507 40.7891 15.375C40.7139 15.0957 40.6763 14.7573 40.6763 14.3599V10.6377H41.2725V14.3706C41.2725 14.675 41.3011 14.9328 41.3584 15.144C41.4157 15.3517 41.4945 15.5164 41.5947 15.6382C41.6986 15.7599 41.8149 15.8477 41.9438 15.9014C42.0728 15.9551 42.2106 15.9819 42.3574 15.9819C42.7477 15.9819 43.0539 15.8906 43.2759 15.708C43.5015 15.5254 43.6626 15.2855 43.7593 14.9883C43.8595 14.6911 43.9097 14.3688 43.9097 14.0215ZM48.9048 15.0205C48.9048 14.8594 48.8618 14.7126 48.7759 14.5801C48.6935 14.4476 48.5557 14.3169 48.3623 14.188C48.1725 14.0591 47.9129 13.9194 47.5835 13.769C47.3221 13.6509 47.0876 13.5363 46.8799 13.4253C46.6722 13.3143 46.4967 13.1961 46.3535 13.0708C46.2139 12.9455 46.1047 12.804 46.0259 12.6465C45.9507 12.4854 45.9131 12.2956 45.9131 12.0771C45.9131 11.8587 45.9543 11.6564 46.0366 11.4702C46.119 11.284 46.2354 11.1211 46.3857 10.9814C46.5397 10.8382 46.7223 10.7272 46.9336 10.6484C47.1484 10.5697 47.3883 10.5303 47.6533 10.5303C48.0329 10.5303 48.3569 10.6037 48.6255 10.7505C48.894 10.8937 49.1017 11.0924 49.2485 11.3467C49.3953 11.6009 49.4688 11.8945 49.4688 12.2275H48.8672C48.8672 12.027 48.8188 11.8408 48.7222 11.6689C48.6291 11.4971 48.493 11.3574 48.314 11.25C48.1349 11.1426 47.9147 11.0889 47.6533 11.0889C47.3848 11.0889 47.1646 11.1372 46.9927 11.2339C46.8244 11.327 46.7008 11.4469 46.6221 11.5938C46.5469 11.7406 46.5093 11.8945 46.5093 12.0557C46.5093 12.1738 46.5272 12.2795 46.563 12.3726C46.6024 12.4621 46.6668 12.5498 46.7563 12.6357C46.8494 12.7181 46.9784 12.8058 47.1431 12.8989C47.3114 12.9884 47.519 13.0959 47.7661 13.2212C48.1242 13.3752 48.4321 13.5291 48.6899 13.6831C48.9478 13.8335 49.1465 14.0107 49.2861 14.2148C49.4258 14.4154 49.4956 14.6696 49.4956 14.9775C49.4956 15.2174 49.4526 15.4359 49.3667 15.6328C49.2808 15.8262 49.159 15.9927 49.0015 16.1323C48.8439 16.2684 48.6523 16.374 48.4268 16.4492C48.2048 16.5208 47.9577 16.5566 47.6855 16.5566C47.2702 16.5566 46.9175 16.4779 46.6274 16.3203C46.341 16.1628 46.1226 15.9551 45.9722 15.6973C45.8254 15.4395 45.752 15.1602 45.752 14.8594H46.3481C46.3625 15.1637 46.4377 15.3983 46.5737 15.563C46.7134 15.7277 46.8835 15.8405 47.084 15.9014C47.2845 15.9622 47.485 15.9927 47.6855 15.9927C47.9469 15.9927 48.1689 15.9497 48.3516 15.8638C48.5342 15.7778 48.672 15.6615 48.7651 15.5146C48.8582 15.3643 48.9048 15.1995 48.9048 15.0205ZM52.7451 15.998C52.9671 15.998 53.1748 15.9569 53.3682 15.8745C53.5651 15.7922 53.7262 15.6525 53.8516 15.4556C53.9769 15.2586 54.0485 14.9883 54.0664 14.6445H54.6357C54.6214 15.0599 54.5265 15.4108 54.3511 15.6973C54.1756 15.9801 53.9482 16.195 53.6689 16.3418C53.3896 16.4886 53.0817 16.562 52.7451 16.562C52.3978 16.562 52.0934 16.5047 51.832 16.3901C51.5706 16.2756 51.3522 16.1055 51.1768 15.8799C51.0013 15.6507 50.8688 15.3696 50.7793 15.0366C50.6898 14.7 50.645 14.3115 50.645 13.8711V13.2104C50.645 12.7736 50.6898 12.3887 50.7793 12.0557C50.8688 11.7191 51.0013 11.438 51.1768 11.2124C51.3522 10.9868 51.5706 10.8167 51.832 10.7021C52.0934 10.5876 52.3978 10.5303 52.7451 10.5303C53.0996 10.5303 53.4165 10.6055 53.6958 10.7559C53.9751 10.9027 54.1971 11.1283 54.3618 11.4326C54.5301 11.737 54.6214 12.1255 54.6357 12.5981H54.0664C54.0521 12.2365 53.984 11.9465 53.8623 11.728C53.7441 11.506 53.5884 11.3449 53.395 11.2446C53.2017 11.1408 52.985 11.0889 52.7451 11.0889C52.4694 11.0889 52.2349 11.1372 52.0415 11.2339C51.8517 11.327 51.6978 11.4648 51.5796 11.6475C51.4614 11.8301 51.3755 12.0521 51.3218 12.3135C51.2681 12.5749 51.2412 12.8739 51.2412 13.2104V13.8711C51.2412 14.2113 51.2681 14.5138 51.3218 14.7788C51.3755 15.0438 51.4614 15.2676 51.5796 15.4502C51.7013 15.6292 51.8571 15.7653 52.0469 15.8584C52.2402 15.9515 52.473 15.998 52.7451 15.998ZM58.8628 15.4072V12.2437C58.8628 11.9715 58.8162 11.7513 58.7231 11.583C58.63 11.4111 58.494 11.2858 58.3149 11.207C58.1359 11.1283 57.9157 11.0889 57.6543 11.0889C57.4072 11.0889 57.187 11.139 56.9937 11.2393C56.8039 11.3359 56.6553 11.472 56.5479 11.6475C56.444 11.8193 56.3921 12.0181 56.3921 12.2437L55.7959 12.2383C55.7959 12.0163 55.8407 11.8032 55.9302 11.5991C56.0197 11.3914 56.1468 11.2088 56.3115 11.0513C56.4762 10.8901 56.6732 10.763 56.9023 10.6699C57.1351 10.5768 57.3929 10.5303 57.6758 10.5303C58.0231 10.5303 58.3311 10.5858 58.5996 10.6968C58.8682 10.8078 59.0776 10.9904 59.228 11.2446C59.382 11.4989 59.459 11.8354 59.459 12.2544V15.2246C59.459 15.4287 59.4715 15.6382 59.4966 15.853C59.5252 16.0679 59.5628 16.2433 59.6094 16.3794V16.4492H58.9756C58.9362 16.3239 58.9076 16.1646 58.8896 15.9712C58.8717 15.7743 58.8628 15.5863 58.8628 15.4072ZM58.9863 13.0547L59.0024 13.5649H57.9712C57.6919 13.5649 57.4466 13.5954 57.2354 13.6562C57.0241 13.7171 56.8468 13.8049 56.7036 13.9194C56.564 14.034 56.4583 14.1701 56.3867 14.3276C56.3151 14.4852 56.2793 14.6642 56.2793 14.8647C56.2793 15.1226 56.3205 15.3338 56.4028 15.4985C56.4852 15.6597 56.6051 15.7796 56.7627 15.8584C56.9238 15.9336 57.1154 15.9712 57.3374 15.9712C57.631 15.9712 57.8888 15.9139 58.1108 15.7993C58.3364 15.6812 58.5208 15.5254 58.6641 15.332C58.8073 15.1351 58.9004 14.9274 58.9434 14.709L59.1045 15.0742C59.0687 15.2389 59.0024 15.4072 58.9058 15.5791C58.8091 15.751 58.6838 15.9121 58.5298 16.0625C58.3758 16.2093 58.1932 16.3293 57.9819 16.4224C57.7707 16.5155 57.5326 16.562 57.2676 16.562C56.9489 16.562 56.6696 16.5011 56.4297 16.3794C56.1934 16.2576 56.009 16.0732 55.8765 15.8262C55.7476 15.5791 55.6831 15.2747 55.6831 14.9131C55.6831 14.6445 55.7279 14.3975 55.8174 14.1719C55.9105 13.9463 56.0483 13.7511 56.231 13.5864C56.4136 13.4181 56.6427 13.2874 56.9185 13.1943C57.1942 13.1012 57.5146 13.0547 57.8799 13.0547H58.9863ZM64.1748 11.8784V16.4492H63.5786V10.6377H64.1479L64.1748 11.8784ZM64.0405 13.1836L63.7773 13.0278C63.7917 12.6841 63.8472 12.3618 63.9438 12.061C64.0441 11.7603 64.1802 11.4953 64.3521 11.2661C64.5239 11.0334 64.7262 10.8525 64.959 10.7236C65.1917 10.5947 65.4495 10.5303 65.7324 10.5303C65.9723 10.5303 66.189 10.5697 66.3823 10.6484C66.5757 10.7272 66.7386 10.8507 66.8711 11.019C67.0072 11.1873 67.111 11.4076 67.1826 11.6797C67.2542 11.9518 67.29 12.2795 67.29 12.6626V16.4492H66.6938V12.6572C66.6938 12.2598 66.6491 11.9482 66.5596 11.7227C66.4701 11.4971 66.3411 11.3377 66.1729 11.2446C66.0081 11.1479 65.8094 11.0996 65.5767 11.0996C65.3296 11.0996 65.1112 11.1659 64.9214 11.2983C64.7352 11.4308 64.5758 11.6027 64.4434 11.814C64.3145 12.0252 64.216 12.2526 64.1479 12.4961C64.0799 12.736 64.0441 12.9652 64.0405 13.1836ZM68.6597 13.8442V13.2427C68.6597 12.8022 68.7098 12.4137 68.8101 12.0771C68.9139 11.7406 69.0589 11.4577 69.2451 11.2285C69.4349 10.9958 69.6605 10.8221 69.9219 10.7075C70.1833 10.5894 70.4697 10.5303 70.7812 10.5303C71.0999 10.5303 71.3882 10.5894 71.646 10.7075C71.9074 10.8221 72.1312 10.9958 72.3174 11.2285C72.5072 11.4577 72.654 11.7406 72.7578 12.0771C72.8617 12.4137 72.9136 12.8022 72.9136 13.2427V13.8442C72.9136 14.2847 72.8617 14.675 72.7578 15.0151C72.654 15.3517 72.5072 15.6346 72.3174 15.8638C72.1312 16.0929 71.9074 16.2666 71.646 16.3848C71.3882 16.5029 71.1017 16.562 70.7866 16.562C70.4715 16.562 70.1833 16.5029 69.9219 16.3848C69.6641 16.2666 69.4403 16.0929 69.2505 15.8638C69.0607 15.631 68.9139 15.3464 68.8101 15.0098C68.7098 14.6732 68.6597 14.2847 68.6597 13.8442ZM69.2612 13.2427V13.8442C69.2612 14.1772 69.2935 14.4762 69.3579 14.7412C69.4259 15.0062 69.5262 15.2318 69.6587 15.418C69.7912 15.6042 69.9505 15.7474 70.1367 15.8477C70.3265 15.9479 70.5431 15.998 70.7866 15.998C71.0444 15.998 71.2682 15.9479 71.458 15.8477C71.6514 15.7474 71.8107 15.6042 71.936 15.418C72.0649 15.2318 72.1598 15.0062 72.2207 14.7412C72.2852 14.4762 72.3174 14.1772 72.3174 13.8442V13.2427C72.3174 12.9168 72.2834 12.6214 72.2153 12.3564C72.1473 12.0915 72.0452 11.8659 71.9092 11.6797C71.7767 11.4899 71.6156 11.3449 71.4258 11.2446C71.236 11.1408 71.0212 11.0889 70.7812 11.0889C70.5449 11.0889 70.3319 11.1408 70.1421 11.2446C69.9523 11.3449 69.7912 11.4899 69.6587 11.6797C69.5298 11.8659 69.4313 12.0915 69.3633 12.3564C69.2952 12.6214 69.2612 12.9168 69.2612 13.2427ZM76.1738 10.6377V11.1748H73.6924V10.6377H76.1738ZM74.584 9.1499H75.1855V15.0312C75.1855 15.2998 75.2142 15.5021 75.2715 15.6382C75.3288 15.7743 75.404 15.8656 75.4971 15.9121C75.5902 15.9551 75.6904 15.9766 75.7979 15.9766C75.8802 15.9766 75.9572 15.9712 76.0288 15.9604C76.104 15.9497 76.1702 15.9354 76.2275 15.9175L76.249 16.4653C76.181 16.494 76.0933 16.5155 75.9858 16.5298C75.882 16.5477 75.771 16.5566 75.6528 16.5566C75.4523 16.5566 75.2715 16.5101 75.1104 16.417C74.9492 16.3203 74.8203 16.161 74.7236 15.939C74.6305 15.717 74.584 15.4126 74.584 15.0259V9.1499ZM78.1504 10.6377V16.4492H77.5542V10.6377H78.1504ZM77.4629 8.96729C77.4629 8.83838 77.4969 8.73275 77.5649 8.65039C77.6366 8.56445 77.735 8.52148 77.8604 8.52148C77.9821 8.52148 78.077 8.56445 78.145 8.65039C78.2166 8.73275 78.2524 8.83838 78.2524 8.96729C78.2524 9.08545 78.2166 9.18571 78.145 9.26807C78.077 9.35042 77.9821 9.3916 77.8604 9.3916C77.735 9.3916 77.6366 9.35042 77.5649 9.26807C77.4969 9.18571 77.4629 9.08545 77.4629 8.96729ZM81.6523 15.998C81.8743 15.998 82.082 15.9569 82.2754 15.8745C82.4723 15.7922 82.6335 15.6525 82.7588 15.4556C82.8841 15.2586 82.9557 14.9883 82.9736 14.6445H83.543C83.5286 15.0599 83.4338 15.4108 83.2583 15.6973C83.0828 15.9801 82.8555 16.195 82.5762 16.3418C82.2969 16.4886 81.9889 16.562 81.6523 16.562C81.305 16.562 81.0007 16.5047 80.7393 16.3901C80.4779 16.2756 80.2594 16.1055 80.084 15.8799C79.9085 15.6507 79.776 15.3696 79.6865 15.0366C79.597 14.7 79.5522 14.3115 79.5522 13.8711V13.2104C79.5522 12.7736 79.597 12.3887 79.6865 12.0557C79.776 11.7191 79.9085 11.438 80.084 11.2124C80.2594 10.9868 80.4779 10.8167 80.7393 10.7021C81.0007 10.5876 81.305 10.5303 81.6523 10.5303C82.0068 10.5303 82.3237 10.6055 82.603 10.7559C82.8823 10.9027 83.1043 11.1283 83.269 11.4326C83.4373 11.737 83.5286 12.1255 83.543 12.5981H82.9736C82.9593 12.2365 82.8913 11.9465 82.7695 11.728C82.6514 11.506 82.4956 11.3449 82.3022 11.2446C82.1089 11.1408 81.8923 11.0889 81.6523 11.0889C81.3766 11.0889 81.1421 11.1372 80.9487 11.2339C80.759 11.327 80.605 11.4648 80.4868 11.6475C80.3687 11.8301 80.2827 12.0521 80.229 12.3135C80.1753 12.5749 80.1484 12.8739 80.1484 13.2104V13.8711C80.1484 14.2113 80.1753 14.5138 80.229 14.7788C80.2827 15.0438 80.3687 15.2676 80.4868 15.4502C80.6086 15.6292 80.7643 15.7653 80.9541 15.8584C81.1475 15.9515 81.3802 15.998 81.6523 15.998ZM85.4766 10.6377V16.4492H84.8804V10.6377H85.4766ZM84.7891 8.96729C84.7891 8.83838 84.8231 8.73275 84.8911 8.65039C84.9627 8.56445 85.0612 8.52148 85.1865 8.52148C85.3083 8.52148 85.4032 8.56445 85.4712 8.65039C85.5428 8.73275 85.5786 8.83838 85.5786 8.96729C85.5786 9.08545 85.5428 9.18571 85.4712 9.26807C85.4032 9.35042 85.3083 9.3916 85.1865 9.3916C85.0612 9.3916 84.9627 9.35042 84.8911 9.26807C84.8231 9.18571 84.7891 9.08545 84.7891 8.96729ZM90.1011 15.4072V12.2437C90.1011 11.9715 90.0545 11.7513 89.9614 11.583C89.8683 11.4111 89.7323 11.2858 89.5532 11.207C89.3742 11.1283 89.154 11.0889 88.8926 11.0889C88.6455 11.0889 88.4253 11.139 88.2319 11.2393C88.0422 11.3359 87.8936 11.472 87.7861 11.6475C87.6823 11.8193 87.6304 12.0181 87.6304 12.2437L87.0342 12.2383C87.0342 12.0163 87.0789 11.8032 87.1685 11.5991C87.258 11.3914 87.3851 11.2088 87.5498 11.0513C87.7145 10.8901 87.9115 10.763 88.1406 10.6699C88.3734 10.5768 88.6312 10.5303 88.9141 10.5303C89.2614 10.5303 89.5693 10.5858 89.8379 10.6968C90.1064 10.8078 90.3159 10.9904 90.4663 11.2446C90.6203 11.4989 90.6973 11.8354 90.6973 12.2544V15.2246C90.6973 15.4287 90.7098 15.6382 90.7349 15.853C90.7635 16.0679 90.8011 16.2433 90.8477 16.3794V16.4492H90.2139C90.1745 16.3239 90.1458 16.1646 90.1279 15.9712C90.11 15.7743 90.1011 15.5863 90.1011 15.4072ZM90.2246 13.0547L90.2407 13.5649H89.2095C88.9302 13.5649 88.6849 13.5954 88.4736 13.6562C88.2624 13.7171 88.0851 13.8049 87.9419 13.9194C87.8022 14.034 87.6966 14.1701 87.625 14.3276C87.5534 14.4852 87.5176 14.6642 87.5176 14.8647C87.5176 15.1226 87.5588 15.3338 87.6411 15.4985C87.7235 15.6597 87.8434 15.7796 88.001 15.8584C88.1621 15.9336 88.3537 15.9712 88.5757 15.9712C88.8693 15.9712 89.1271 15.9139 89.3491 15.7993C89.5747 15.6812 89.7591 15.5254 89.9023 15.332C90.0456 15.1351 90.1387 14.9274 90.1816 14.709L90.3428 15.0742C90.307 15.2389 90.2407 15.4072 90.144 15.5791C90.0474 15.751 89.922 15.9121 89.7681 16.0625C89.6141 16.2093 89.4315 16.3293 89.2202 16.4224C89.009 16.5155 88.7708 16.562 88.5059 16.562C88.1872 16.562 87.9079 16.5011 87.668 16.3794C87.4316 16.2576 87.2472 16.0732 87.1147 15.8262C86.9858 15.5791 86.9214 15.2747 86.9214 14.9131C86.9214 14.6445 86.9661 14.3975 87.0557 14.1719C87.1488 13.9463 87.2866 13.7511 87.4692 13.5864C87.6519 13.4181 87.881 13.2874 88.1567 13.1943C88.4325 13.1012 88.7529 13.0547 89.1182 13.0547H90.2246ZM95.2466 15.0205C95.2466 14.8594 95.2036 14.7126 95.1177 14.5801C95.0353 14.4476 94.8975 14.3169 94.7041 14.188C94.5143 14.0591 94.2547 13.9194 93.9253 13.769C93.6639 13.6509 93.4294 13.5363 93.2217 13.4253C93.014 13.3143 92.8385 13.1961 92.6953 13.0708C92.5557 12.9455 92.4465 12.804 92.3677 12.6465C92.2925 12.4854 92.2549 12.2956 92.2549 12.0771C92.2549 11.8587 92.2961 11.6564 92.3784 11.4702C92.4608 11.284 92.5771 11.1211 92.7275 10.9814C92.8815 10.8382 93.0641 10.7272 93.2754 10.6484C93.4902 10.5697 93.7301 10.5303 93.9951 10.5303C94.3747 10.5303 94.6987 10.6037 94.9673 10.7505C95.2358 10.8937 95.4435 11.0924 95.5903 11.3467C95.7371 11.6009 95.8105 11.8945 95.8105 12.2275H95.209C95.209 12.027 95.1606 11.8408 95.064 11.6689C94.9709 11.4971 94.8348 11.3574 94.6558 11.25C94.4767 11.1426 94.2565 11.0889 93.9951 11.0889C93.7266 11.0889 93.5063 11.1372 93.3345 11.2339C93.1662 11.327 93.0426 11.4469 92.9639 11.5938C92.8887 11.7406 92.8511 11.8945 92.8511 12.0557C92.8511 12.1738 92.869 12.2795 92.9048 12.3726C92.9442 12.4621 93.0086 12.5498 93.0981 12.6357C93.1912 12.7181 93.3201 12.8058 93.4849 12.8989C93.6532 12.9884 93.8608 13.0959 94.1079 13.2212C94.466 13.3752 94.7739 13.5291 95.0317 13.6831C95.2896 13.8335 95.4883 14.0107 95.6279 14.2148C95.7676 14.4154 95.8374 14.6696 95.8374 14.9775C95.8374 15.2174 95.7944 15.4359 95.7085 15.6328C95.6226 15.8262 95.5008 15.9927 95.3433 16.1323C95.1857 16.2684 94.9941 16.374 94.7686 16.4492C94.5465 16.5208 94.2995 16.5566 94.0273 16.5566C93.612 16.5566 93.2593 16.4779 92.9692 16.3203C92.6828 16.1628 92.4644 15.9551 92.314 15.6973C92.1672 15.4395 92.0938 15.1602 92.0938 14.8594H92.6899C92.7043 15.1637 92.7795 15.3983 92.9155 15.563C93.0552 15.7277 93.2253 15.8405 93.4258 15.9014C93.6263 15.9622 93.8268 15.9927 94.0273 15.9927C94.2887 15.9927 94.5107 15.9497 94.6934 15.8638C94.876 15.7778 95.0138 15.6615 95.1069 15.5146C95.2 15.3643 95.2466 15.1995 95.2466 15.0205ZM101.171 15.8638L102.664 10.6377H103.303L101.257 17.3784C101.214 17.5109 101.158 17.6577 101.09 17.8188C101.026 17.9836 100.94 18.1393 100.833 18.2861C100.729 18.4365 100.598 18.5583 100.44 18.6514C100.286 18.748 100.098 18.7964 99.8765 18.7964C99.8192 18.7964 99.744 18.7874 99.6509 18.7695C99.5578 18.7552 99.4915 18.7409 99.4521 18.7266L99.4468 18.1787C99.479 18.1859 99.5256 18.193 99.5864 18.2002C99.6473 18.2074 99.6903 18.2109 99.7153 18.2109C99.9087 18.2109 100.072 18.1715 100.204 18.0928C100.337 18.014 100.448 17.8958 100.537 17.7383C100.63 17.5843 100.711 17.3927 100.779 17.1636L101.171 15.8638ZM99.8389 10.6377L101.332 15.6113L101.493 16.2935L101.058 16.562L99.1836 10.6377H99.8389ZM107.401 11.8301V16.4492H106.8V10.6377H107.375L107.401 11.8301ZM107.289 13.1836L107.004 13.0278C107.018 12.6841 107.07 12.3618 107.16 12.061C107.253 11.7603 107.38 11.4953 107.541 11.2661C107.706 11.0334 107.906 10.8525 108.143 10.7236C108.379 10.5947 108.647 10.5303 108.948 10.5303C109.185 10.5303 109.398 10.5697 109.587 10.6484C109.781 10.7236 109.947 10.8436 110.087 11.0083C110.227 11.1694 110.334 11.3807 110.409 11.6421C110.484 11.8999 110.522 12.2132 110.522 12.582V16.4492H109.926V12.6035C109.926 12.2204 109.876 11.9196 109.775 11.7012C109.679 11.4827 109.543 11.3288 109.367 11.2393C109.195 11.1462 108.993 11.0996 108.76 11.0996C108.492 11.0996 108.264 11.1659 108.078 11.2983C107.892 11.4308 107.742 11.6027 107.627 11.814C107.516 12.0252 107.434 12.2526 107.38 12.4961C107.326 12.736 107.296 12.9652 107.289 13.1836ZM110.517 12.6787L110.114 12.7002C110.128 12.4173 110.182 12.147 110.275 11.8892C110.368 11.6278 110.497 11.3968 110.662 11.1963C110.826 10.9922 111.023 10.8311 111.252 10.7129C111.485 10.5911 111.748 10.5303 112.042 10.5303C112.296 10.5303 112.524 10.5715 112.724 10.6538C112.925 10.7326 113.093 10.8579 113.229 11.0298C113.369 11.2017 113.474 11.4219 113.546 11.6904C113.618 11.959 113.653 12.2812 113.653 12.6572V16.4492H113.052V12.6519C113.052 12.2472 113.002 11.9321 112.901 11.7065C112.805 11.481 112.669 11.3234 112.493 11.2339C112.321 11.1408 112.121 11.096 111.892 11.0996C111.666 11.0996 111.467 11.1497 111.295 11.25C111.127 11.3503 110.986 11.4792 110.871 11.6367C110.76 11.7907 110.674 11.9608 110.613 12.147C110.556 12.3296 110.524 12.5068 110.517 12.6787ZM118.17 15.4072V12.2437C118.17 11.9715 118.124 11.7513 118.031 11.583C117.938 11.4111 117.802 11.2858 117.623 11.207C117.444 11.1283 117.223 11.0889 116.962 11.0889C116.715 11.0889 116.495 11.139 116.301 11.2393C116.111 11.3359 115.963 11.472 115.855 11.6475C115.752 11.8193 115.7 12.0181 115.7 12.2437L115.104 12.2383C115.104 12.0163 115.148 11.8032 115.238 11.5991C115.327 11.3914 115.454 11.2088 115.619 11.0513C115.784 10.8901 115.981 10.763 116.21 10.6699C116.443 10.5768 116.701 10.5303 116.983 10.5303C117.331 10.5303 117.639 10.5858 117.907 10.6968C118.176 10.8078 118.385 10.9904 118.536 11.2446C118.69 11.4989 118.767 11.8354 118.767 12.2544V15.2246C118.767 15.4287 118.779 15.6382 118.804 15.853C118.833 16.0679 118.87 16.2433 118.917 16.3794V16.4492H118.283C118.244 16.3239 118.215 16.1646 118.197 15.9712C118.179 15.7743 118.17 15.5863 118.17 15.4072ZM118.294 13.0547L118.31 13.5649H117.279C117 13.5649 116.754 13.5954 116.543 13.6562C116.332 13.7171 116.154 13.8049 116.011 13.9194C115.872 14.034 115.766 14.1701 115.694 14.3276C115.623 14.4852 115.587 14.6642 115.587 14.8647C115.587 15.1226 115.628 15.3338 115.71 15.4985C115.793 15.6597 115.913 15.7796 116.07 15.8584C116.231 15.9336 116.423 15.9712 116.645 15.9712C116.939 15.9712 117.196 15.9139 117.418 15.7993C117.644 15.6812 117.828 15.5254 117.972 15.332C118.115 15.1351 118.208 14.9274 118.251 14.709L118.412 15.0742C118.376 15.2389 118.31 15.4072 118.213 15.5791C118.117 15.751 117.991 15.9121 117.837 16.0625C117.683 16.2093 117.501 16.3293 117.29 16.4224C117.078 16.5155 116.84 16.562 116.575 16.562C116.257 16.562 115.977 16.5011 115.737 16.3794C115.501 16.2576 115.317 16.0732 115.184 15.8262C115.055 15.5791 114.991 15.2747 114.991 14.9131C114.991 14.6445 115.035 14.3975 115.125 14.1719C115.218 13.9463 115.356 13.7511 115.539 13.5864C115.721 13.4181 115.95 13.2874 116.226 13.1943C116.502 13.1012 116.822 13.0547 117.188 13.0547H118.294ZM116.758 9.7085L117.784 8.20459H118.562L117.316 9.7085H116.758ZM123.316 15.0205C123.316 14.8594 123.273 14.7126 123.187 14.5801C123.105 14.4476 122.967 14.3169 122.773 14.188C122.584 14.0591 122.324 13.9194 121.995 13.769C121.733 13.6509 121.499 13.5363 121.291 13.4253C121.083 13.3143 120.908 13.1961 120.765 13.0708C120.625 12.9455 120.516 12.804 120.437 12.6465C120.362 12.4854 120.324 12.2956 120.324 12.0771C120.324 11.8587 120.365 11.6564 120.448 11.4702C120.53 11.284 120.646 11.1211 120.797 10.9814C120.951 10.8382 121.133 10.7272 121.345 10.6484C121.56 10.5697 121.799 10.5303 122.064 10.5303C122.444 10.5303 122.768 10.6037 123.037 10.7505C123.305 10.8937 123.513 11.0924 123.66 11.3467C123.806 11.6009 123.88 11.8945 123.88 12.2275H123.278C123.278 12.027 123.23 11.8408 123.133 11.6689C123.04 11.4971 122.904 11.3574 122.725 11.25C122.546 11.1426 122.326 11.0889 122.064 11.0889C121.796 11.0889 121.576 11.1372 121.404 11.2339C121.236 11.327 121.112 11.4469 121.033 11.5938C120.958 11.7406 120.92 11.8945 120.92 12.0557C120.92 12.1738 120.938 12.2795 120.974 12.3726C121.014 12.4621 121.078 12.5498 121.167 12.6357C121.261 12.7181 121.389 12.8058 121.554 12.8989C121.722 12.9884 121.93 13.0959 122.177 13.2212C122.535 13.3752 122.843 13.5291 123.101 13.6831C123.359 13.8335 123.558 14.0107 123.697 14.2148C123.837 14.4154 123.907 14.6696 123.907 14.9775C123.907 15.2174 123.864 15.4359 123.778 15.6328C123.692 15.8262 123.57 15.9927 123.413 16.1323C123.255 16.2684 123.063 16.374 122.838 16.4492C122.616 16.5208 122.369 16.5566 122.097 16.5566C121.681 16.5566 121.329 16.4779 121.039 16.3203C120.752 16.1628 120.534 15.9551 120.383 15.6973C120.236 15.4395 120.163 15.1602 120.163 14.8594H120.759C120.774 15.1637 120.849 15.3983 120.985 15.563C121.125 15.7277 121.295 15.8405 121.495 15.9014C121.696 15.9622 121.896 15.9927 122.097 15.9927C122.358 15.9927 122.58 15.9497 122.763 15.8638C122.945 15.7778 123.083 15.6615 123.176 15.5146C123.269 15.3643 123.316 15.1995 123.316 15.0205ZM125.309 16.0518C125.309 15.9264 125.348 15.819 125.427 15.7295C125.506 15.64 125.617 15.5952 125.76 15.5952C125.903 15.5952 126.016 15.64 126.098 15.7295C126.181 15.8154 126.222 15.9229 126.222 16.0518C126.222 16.1735 126.181 16.2791 126.098 16.3687C126.016 16.4546 125.903 16.4976 125.76 16.4976C125.617 16.4976 125.506 16.4546 125.427 16.3687C125.348 16.2791 125.309 16.1735 125.309 16.0518ZM127.94 16.0518C127.94 15.9264 127.98 15.819 128.059 15.7295C128.137 15.64 128.248 15.5952 128.392 15.5952C128.535 15.5952 128.648 15.64 128.73 15.7295C128.812 15.8154 128.854 15.9229 128.854 16.0518C128.854 16.1735 128.812 16.2791 128.73 16.3687C128.648 16.4546 128.535 16.4976 128.392 16.4976C128.248 16.4976 128.137 16.4546 128.059 16.3687C127.98 16.2791 127.94 16.1735 127.94 16.0518ZM130.572 16.0518C130.572 15.9264 130.612 15.819 130.69 15.7295C130.769 15.64 130.88 15.5952 131.023 15.5952C131.167 15.5952 131.279 15.64 131.362 15.7295C131.444 15.8154 131.485 15.9229 131.485 16.0518C131.485 16.1735 131.444 16.2791 131.362 16.3687C131.279 16.4546 131.167 16.4976 131.023 16.4976C130.88 16.4976 130.769 16.4546 130.69 16.3687C130.612 16.2791 130.572 16.1735 130.572 16.0518Z" fill="#404040" fill-opacity="0.62"/>
<path d="M18.6996 15.3105C19.2161 14.4622 19.4892 13.4882 19.4892 12.495C19.4892 9.48633 17.0547 7.05003 14.0454 7.04883C11.0388 7.04973 8.60156 9.48633 8.60156 12.4944C8.60156 15.4998 11.0391 17.9361 14.0472 17.9361C15.0792 17.9361 16.0407 17.6445 16.8624 17.1462L20.5653 20.8488L22.4016 19.0116L18.6996 15.3105ZM14.0466 15.8628C12.186 15.8583 10.6818 14.3547 10.6785 12.498C10.6797 11.6051 11.035 10.7491 11.6663 10.1176C12.2977 9.48615 13.1536 9.13076 14.0466 9.12933C15.9063 9.13413 17.4111 10.6377 17.415 12.498C17.4111 14.3526 15.9057 15.8583 14.0466 15.8628Z" fill="#404040" fill-opacity="0.62"/>
<path fill-rule="evenodd" clip-rule="evenodd" d="M255.5 20.1281C255.831 20.1281 256.712 19.8277 257.638 18.1151C258.077 17.3014 258.447 16.2935 258.704 15.1421H252.296C252.553 16.2935 252.923 17.3014 253.362 18.1151C254.288 19.8277 255.169 20.1281 255.5 20.1281ZM251.984 13.1476C251.88 12.0417 251.88 10.9295 251.984 9.82358H259.016C259.12 10.9295 259.12 12.0417 259.016 13.1476H251.984ZM260.901 15.1421C260.579 16.7695 260.048 18.2108 259.368 19.3543C261.393 18.4991 263.023 17.0062 263.968 15.1421H260.901ZM264.671 13.1476H261.178C261.272 12.0413 261.272 10.9299 261.178 9.82358H264.67C264.902 10.9212 264.902 12.0501 264.67 13.1476H264.671ZM249.82 13.1476H246.329C246.096 12.0501 246.096 10.9212 246.329 9.82358H249.822C249.728 10.9299 249.728 12.0413 249.822 13.1476H249.82ZM247.032 15.1421H250.099C250.421 16.7695 250.952 18.2108 251.632 19.3543C249.607 18.4991 247.977 17.0062 247.032 15.1421ZM252.296 7.82915H258.704C258.447 6.67769 258.077 5.66984 257.638 4.85611C256.712 3.14356 255.831 2.84307 255.5 2.84307C255.169 2.84307 254.288 3.14356 253.362 4.85611C252.923 5.66984 252.553 6.67769 252.296 7.82915ZM260.901 7.82915H263.968C263.023 5.96501 261.393 4.47211 259.368 3.6169C260.048 4.76038 260.579 6.20169 260.901 7.82915ZM251.633 3.6169C250.953 4.76038 250.423 6.20169 250.101 7.82915H247.032C247.977 5.96501 249.608 4.47211 251.633 3.6169ZM255.5 0.848633C258.55 0.848633 261.475 1.96931 263.632 3.96413C265.788 5.95895 267 8.6645 267 11.4856C267 14.3067 265.788 17.0123 263.632 19.0071C261.475 21.0019 258.55 22.1226 255.5 22.1226C252.45 22.1226 249.525 21.0019 247.368 19.0071C245.212 17.0123 244 14.3067 244 11.4856C244 8.6645 245.212 5.95895 247.368 3.96413C249.525 1.96931 252.45 0.848633 255.5 0.848633Z" fill="white"/>
<path d="M276.864 7.0898H282.128V8.7698H278.784V11.6658H281.68V13.3458H278.784V16.3698H282.128V18.0498H276.864V7.0898ZM282.962 9.5218C282.962 8.7218 283.228 8.10314 283.762 7.6658C284.295 7.22847 285.058 7.0098 286.05 7.0098C287.052 7.0098 287.831 7.11114 288.386 7.3138V9.1538C287.767 8.90847 287.036 8.7858 286.194 8.7858C285.351 8.7858 284.93 9.1058 284.93 9.7458V10.1778C284.93 10.4978 284.988 10.7485 285.106 10.9298C285.223 11.1005 285.452 11.2765 285.794 11.4578L287.634 12.4978C288.498 12.9671 288.93 13.6818 288.93 14.6418V15.5858C288.93 16.3965 288.636 17.0258 288.05 17.4738C287.463 17.9111 286.626 18.1298 285.538 18.1298C284.45 18.1298 283.634 18.0125 283.09 17.7778V15.9218C283.772 16.2098 284.546 16.3538 285.41 16.3538C286.466 16.3538 286.994 16.0231 286.994 15.3618V14.9458C286.994 14.6685 286.935 14.4551 286.818 14.3058C286.711 14.1458 286.508 13.9858 286.21 13.8258L284.45 12.8658C283.458 12.3218 282.962 11.5378 282.962 10.5138V9.5218ZM294.209 9.7298C294.209 9.0898 293.873 8.7698 293.201 8.7698H292.113V12.9938H293.201C293.873 12.9938 294.209 12.6685 294.209 12.0178V9.7298ZM290.177 7.0898H293.409C294.273 7.0898 294.939 7.30314 295.409 7.7298C295.889 8.15647 296.129 8.75914 296.129 9.5378V12.2098C296.129 12.9885 295.889 13.5911 295.409 14.0178C294.939 14.4445 294.273 14.6578 293.409 14.6578H292.113V18.0498H290.177V7.0898ZM302.145 18.0498L301.617 15.3138H299.153L298.641 18.0498H296.801L299.073 7.0898H301.745L304.001 18.0498H302.145ZM299.457 13.6818H301.297L300.369 8.8178L299.457 13.6818ZM309.532 4.7378H310.62V4.8818C310.62 5.34047 310.508 5.70314 310.284 5.9698C310.071 6.23647 309.788 6.3698 309.436 6.3698C309.095 6.3698 308.743 6.26314 308.38 6.0498C308.018 5.83647 307.778 5.7298 307.66 5.7298C307.426 5.7298 307.308 5.91647 307.308 6.2898V6.3858H306.22V6.2898C306.22 5.82047 306.327 5.45247 306.54 5.1858C306.754 4.90847 307.042 4.7698 307.404 4.7698C307.778 4.7698 308.14 4.87647 308.492 5.0898C308.855 5.29247 309.09 5.3938 309.196 5.3938C309.42 5.3938 309.532 5.21247 309.532 4.8498V4.7378ZM309.708 7.0898H311.612V18.0498H309.676C308.108 14.0498 307.212 11.7245 306.988 11.0738C306.764 10.4125 306.642 10.0498 306.62 9.9858C306.62 10.0071 306.647 10.2045 306.7 10.5778C306.839 11.5485 306.908 12.7485 306.908 14.1778V18.0498H305.02V7.0898H306.988C308.343 10.5138 309.127 12.5298 309.34 13.1378C309.554 13.7458 309.708 14.2151 309.804 14.5458C309.911 14.8658 309.975 15.0525 309.996 15.1058C309.996 15.0631 309.97 14.8605 309.916 14.4978C309.778 13.4311 309.708 12.2205 309.708 10.8658V7.0898ZM317.477 9.7618C317.477 9.03647 317.077 8.6738 316.277 8.6738C315.487 8.6738 315.093 9.03647 315.093 9.7618V15.3778C315.093 16.1031 315.487 16.4658 316.277 16.4658C317.077 16.4658 317.477 16.1031 317.477 15.3778V9.7618ZM313.173 9.6658C313.173 8.8338 313.434 8.17247 313.957 7.6818C314.479 7.18047 315.253 6.9298 316.277 6.9298C317.301 6.9298 318.074 7.18047 318.597 7.6818C319.13 8.17247 319.397 8.8338 319.397 9.6658V15.4738C319.397 16.3058 319.13 16.9725 318.597 17.4738C318.074 17.9645 317.301 18.2098 316.277 18.2098C315.253 18.2098 314.479 17.9645 313.957 17.4738C313.434 16.9725 313.173 16.3058 313.173 15.4738V9.6658ZM320.958 7.0898H322.894V16.4178H325.982V18.0498H320.958V7.0898Z" fill="white"/>
<path fill-rule="evenodd" clip-rule="evenodd" d="M391 0C383.268 0 377 5.79743 377 12.9494C377 20.1013 383.268 25.8987 391 25.8987C398.732 25.8987 405 20.1013 405 12.9494C405 5.79743 398.732 0 391 0ZM386.1 9.71202C386.1 9.11683 386.227 8.52747 386.473 7.97759C386.719 7.42771 387.08 6.92808 387.535 6.50722C387.99 6.08635 388.53 5.75251 389.125 5.52474C389.719 5.29697 390.357 5.17974 391 5.17974C391.643 5.17974 392.281 5.29697 392.875 5.52474C393.47 5.75251 394.01 6.08635 394.465 6.50722C394.92 6.92808 395.281 7.42771 395.527 7.97759C395.773 8.52747 395.9 9.11683 395.9 9.71202C395.9 10.9141 395.384 12.0669 394.465 12.9168C393.546 13.7668 392.3 14.2443 391 14.2443C389.7 14.2443 388.454 13.7668 387.535 12.9168C386.616 12.0669 386.1 10.9141 386.1 9.71202ZM399.761 19.4033C398.713 20.6223 397.381 21.6066 395.864 22.2829C394.346 22.9591 392.684 23.3098 391 23.3088C389.316 23.3098 387.654 22.9591 386.136 22.2829C384.619 21.6066 383.287 20.6223 382.239 19.4033C384.508 17.8973 387.605 16.8342 391 16.8342C394.395 16.8342 397.492 17.8973 399.761 19.4033Z" fill="white"/>
</svg>
