<svg width="433" height="35" viewBox="0 0 433 35" fill="none" xmlns="http://www.w3.org/2000/svg">
<path d="M22 0H433V35H0L22 0Z" fill="#D80D1C"/>
<path d="M190.932 23V8.45455H196.671C197.769 8.45455 198.707 8.65104 199.483 9.04403C200.265 9.43229 200.859 9.9839 201.266 10.6989C201.678 11.4091 201.884 12.2448 201.884 13.206C201.884 14.1719 201.676 15.0028 201.259 15.6989C200.842 16.3902 200.239 16.9205 199.448 17.2898C198.662 17.6591 197.71 17.8438 196.593 17.8438H192.75V15.3722H196.096C196.683 15.3722 197.17 15.2917 197.559 15.1307C197.947 14.9697 198.236 14.7282 198.425 14.4062C198.619 14.0843 198.716 13.6842 198.716 13.206C198.716 12.723 198.619 12.3158 198.425 11.9844C198.236 11.6529 197.944 11.402 197.551 11.2315C197.163 11.0563 196.673 10.9688 196.081 10.9688H194.007V23H190.932ZM198.787 16.3807L202.402 23H199.007L195.471 16.3807H198.787ZM208.796 23.2131C207.674 23.2131 206.708 22.9858 205.898 22.5312C205.094 22.072 204.473 21.4233 204.038 20.5852C203.602 19.7424 203.384 18.7457 203.384 17.5952C203.384 16.473 203.602 15.4882 204.038 14.6406C204.473 13.7931 205.086 13.1326 205.877 12.6591C206.673 12.1856 207.605 11.9489 208.675 11.9489C209.395 11.9489 210.065 12.0649 210.685 12.2969C211.31 12.5241 211.855 12.8674 212.319 13.3267C212.788 13.786 213.152 14.3636 213.413 15.0597C213.673 15.7509 213.803 16.5606 213.803 17.4886V18.3196H204.592V16.4446H210.955C210.955 16.009 210.861 15.6231 210.671 15.2869C210.482 14.9508 210.219 14.688 209.883 14.4986C209.551 14.3045 209.165 14.2074 208.725 14.2074C208.266 14.2074 207.859 14.3139 207.504 14.527C207.153 14.7353 206.879 15.017 206.68 15.3722C206.481 15.7225 206.379 16.1132 206.374 16.544V18.3267C206.374 18.8665 206.474 19.3329 206.673 19.7259C206.876 20.1188 207.163 20.4219 207.532 20.6349C207.901 20.848 208.339 20.9545 208.846 20.9545C209.182 20.9545 209.49 20.9072 209.769 20.8125C210.049 20.7178 210.288 20.5758 210.487 20.3864C210.685 20.197 210.837 19.965 210.941 19.6903L213.739 19.875C213.597 20.5473 213.306 21.1345 212.866 21.6364C212.43 22.1335 211.867 22.5218 211.175 22.8011C210.489 23.0758 209.696 23.2131 208.796 23.2131ZM225.655 12.0909L221.841 23H218.432L214.618 12.0909H217.814L220.08 19.8963H220.194L222.452 12.0909H225.655ZM227.203 23V12.0909H230.229V23H227.203ZM228.723 10.6847C228.274 10.6847 227.888 10.5355 227.566 10.2372C227.248 9.93419 227.09 9.57197 227.09 9.15057C227.09 8.7339 227.248 8.37642 227.566 8.07812C227.888 7.77509 228.274 7.62358 228.723 7.62358C229.173 7.62358 229.557 7.77509 229.874 8.07812C230.196 8.37642 230.357 8.7339 230.357 9.15057C230.357 9.57197 230.196 9.93419 229.874 10.2372C229.557 10.5355 229.173 10.6847 228.723 10.6847ZM237.624 23.2131C236.502 23.2131 235.536 22.9858 234.727 22.5312C233.922 22.072 233.301 21.4233 232.866 20.5852C232.43 19.7424 232.212 18.7457 232.212 17.5952C232.212 16.473 232.43 15.4882 232.866 14.6406C233.301 13.7931 233.915 13.1326 234.705 12.6591C235.501 12.1856 236.433 11.9489 237.504 11.9489C238.223 11.9489 238.893 12.0649 239.513 12.2969C240.138 12.5241 240.683 12.8674 241.147 13.3267C241.616 13.786 241.98 14.3636 242.241 15.0597C242.501 15.7509 242.631 16.5606 242.631 17.4886V18.3196H233.42V16.4446H239.783C239.783 16.009 239.689 15.6231 239.499 15.2869C239.31 14.9508 239.047 14.688 238.711 14.4986C238.379 14.3045 237.994 14.2074 237.553 14.2074C237.094 14.2074 236.687 14.3139 236.332 14.527C235.981 14.7353 235.707 15.017 235.508 15.3722C235.309 15.7225 235.207 16.1132 235.202 16.544V18.3267C235.202 18.8665 235.302 19.3329 235.501 19.7259C235.704 20.1188 235.991 20.4219 236.36 20.6349C236.729 20.848 237.167 20.9545 237.674 20.9545C238.01 20.9545 238.318 20.9072 238.597 20.8125C238.877 20.7178 239.116 20.5758 239.315 20.3864C239.513 20.197 239.665 19.965 239.769 19.6903L242.567 19.875C242.425 20.5473 242.134 21.1345 241.694 21.6364C241.258 22.1335 240.695 22.5218 240.004 22.8011C239.317 23.0758 238.524 23.2131 237.624 23.2131ZM246.68 23L243.711 12.0909H246.772L248.462 19.4205H248.562L250.323 12.0909H253.327L255.117 19.3778H255.21L256.871 12.0909H259.925L256.964 23H253.761L251.886 16.1392H251.751L249.876 23H246.68Z" fill="white"/>
</svg>
