<svg width="77" height="32" viewBox="0 0 77 32" fill="none" xmlns="http://www.w3.org/2000/svg">
<path d="M13.4801 4.45455V19H10.4972L4.70881 10.6051H4.61648V19H1.10085V4.45455H4.12642L9.85085 12.8352H9.97159V4.45455H13.4801ZM29.4194 11.7273C29.4194 13.3277 29.1116 14.6842 28.4961 15.7969C27.8806 16.9096 27.0472 17.7547 25.9961 18.3324C24.9497 18.91 23.7755 19.1989 22.4734 19.1989C21.1665 19.1989 19.9899 18.9077 18.9435 18.3253C17.8971 17.7429 17.0662 16.8977 16.4506 15.7898C15.8398 14.6771 15.5344 13.3229 15.5344 11.7273C15.5344 10.1269 15.8398 8.77036 16.4506 7.65767C17.0662 6.54498 17.8971 5.69981 18.9435 5.12216C19.9899 4.54451 21.1665 4.25568 22.4734 4.25568C23.7755 4.25568 24.9497 4.54451 25.9961 5.12216C27.0472 5.69981 27.8806 6.54498 28.4961 7.65767C29.1116 8.77036 29.4194 10.1269 29.4194 11.7273ZM25.8256 11.7273C25.8256 10.7803 25.6907 9.98011 25.4208 9.3267C25.1557 8.67329 24.7721 8.1785 24.2702 7.84233C23.7731 7.50615 23.1741 7.33807 22.4734 7.33807C21.7773 7.33807 21.1784 7.50615 20.6765 7.84233C20.1746 8.1785 19.7887 8.67329 19.5188 9.3267C19.2537 9.98011 19.1211 10.7803 19.1211 11.7273C19.1211 12.6742 19.2537 13.4744 19.5188 14.1278C19.7887 14.7812 20.1746 15.276 20.6765 15.6122C21.1784 15.9484 21.7773 16.1165 22.4734 16.1165C23.1741 16.1165 23.7731 15.9484 24.2702 15.6122C24.7721 15.276 25.1557 14.7812 25.4208 14.1278C25.6907 13.4744 25.8256 12.6742 25.8256 11.7273Z" fill="white"/>
<path d="M70.6364 19.2H77V0L70.6364 0M64.2727 0L49.9545 0C48.6341 0 47.5045 0.8 47.0273 1.952L42.2227 13.232C42.0795 13.6 42 13.984 42 14.4V17.6C42 18.4487 42.3352 19.2626 42.9319 19.8627C43.5286 20.4629 44.3379 20.8 45.1818 20.8H55.2205L53.7091 28.112C53.6773 28.272 53.6614 28.432 53.6614 28.608C53.6614 29.28 53.9318 29.872 54.3614 30.304L56.0477 32L66.5159 21.456C67.1045 20.88 67.4545 20.08 67.4545 19.2V3.2C67.4545 2.35131 67.1193 1.53737 66.5226 0.937258C65.9259 0.337142 65.1166 0 64.2727 0Z" fill="white"/>
</svg>
