<svg width="65" height="35" viewBox="0 0 65 35" fill="none" xmlns="http://www.w3.org/2000/svg">
<path d="M8.96307 19.8153C8.91572 19.2945 8.70502 18.8897 8.33097 18.6009C7.96165 18.3073 7.43371 18.1605 6.74716 18.1605C6.29261 18.1605 5.91383 18.2197 5.6108 18.3381C5.30777 18.4564 5.08049 18.6198 4.92898 18.8281C4.77746 19.0317 4.69934 19.2661 4.6946 19.5312C4.68513 19.7491 4.72775 19.9408 4.82244 20.1065C4.92188 20.2723 5.06392 20.419 5.24858 20.5469C5.43797 20.67 5.66525 20.7789 5.9304 20.8736C6.19555 20.9683 6.49384 21.0511 6.82528 21.1222L8.07528 21.4062C8.79498 21.5625 9.42945 21.7708 9.97869 22.0312C10.5327 22.2917 10.9967 22.6018 11.3707 22.9616C11.7495 23.3215 12.036 23.7358 12.2301 24.2045C12.4242 24.6733 12.5237 25.1989 12.5284 25.7812C12.5237 26.6998 12.2917 27.4882 11.8324 28.1463C11.3731 28.8045 10.7126 29.3087 9.85085 29.6591C8.99384 30.0095 7.95928 30.1847 6.74716 30.1847C5.5303 30.1847 4.4697 30.0024 3.56534 29.6378C2.66098 29.2732 1.95786 28.7192 1.45597 27.9759C0.954072 27.2325 0.696023 26.2926 0.681818 25.1562H4.0483C4.0767 25.625 4.20218 26.0156 4.42472 26.3281C4.64725 26.6406 4.95265 26.8774 5.34091 27.0384C5.7339 27.1993 6.18845 27.2798 6.70455 27.2798C7.17803 27.2798 7.58049 27.2159 7.91193 27.0881C8.24811 26.9602 8.50616 26.7827 8.68608 26.5554C8.866 26.3281 8.95833 26.0677 8.96307 25.7741C8.95833 25.4995 8.87311 25.2652 8.70739 25.071C8.54167 24.8722 8.28598 24.7017 7.94034 24.5597C7.59943 24.4129 7.16383 24.2779 6.63352 24.1548L5.11364 23.7997C3.85417 23.5109 2.86222 23.0445 2.13778 22.4006C1.41335 21.7519 1.0535 20.8759 1.05824 19.7727C1.0535 18.8731 1.29498 18.0848 1.78267 17.4077C2.27036 16.7306 2.94508 16.2027 3.80682 15.8239C4.66856 15.4451 5.65104 15.2557 6.75426 15.2557C7.88116 15.2557 8.8589 15.4474 9.6875 15.831C10.5208 16.2098 11.1671 16.7424 11.6264 17.429C12.0857 18.1155 12.3201 18.911 12.3295 19.8153H8.96307ZM17.8196 15.4545V30H14.304V15.4545H17.8196Z" fill="white"/>
<path d="M36.3636 12.8L30 12.8L30 32L36.3636 32M42.7273 32L57.0455 32C58.3659 32 59.4955 31.2 59.9727 30.048L64.7773 18.768C64.9205 18.4 65 18.016 65 17.6L65 14.4C65 13.5513 64.6648 12.7374 64.0681 12.1373C63.4714 11.5371 62.6621 11.2 61.8182 11.2L51.7795 11.2L53.2909 3.888C53.3227 3.728 53.3386 3.568 53.3386 3.392C53.3386 2.72 53.0682 2.128 52.6386 1.696L50.9523 -2.58661e-06L40.4841 10.544C39.8955 11.12 39.5455 11.92 39.5455 12.8L39.5455 28.8C39.5455 29.6487 39.8807 30.4626 40.4774 31.0627C41.0741 31.6629 41.8834 32 42.7273 32Z" fill="white"/>
</svg>
