<svg width="66" height="130" viewBox="0 0 66 130" fill="none" xmlns="http://www.w3.org/2000/svg">
<mask id="mask0_2315_1220" style="mask-type:luminance" maskUnits="userSpaceOnUse" x="3" y="6" width="57" height="121">
<path d="M59.0115 6.66211H3.52344V126.3H59.0115V6.66211Z" fill="white"/>
<path d="M50.6962 14.3115V118.763H27.8238V41.7434L11.4219 53.8011V28.9318L31.1343 14.3115H50.6962Z" fill="black"/>
</mask>
<g mask="url(#mask0_2315_1220)">
<path d="M50.6965 14.3116H58.2203V6.77539H50.6965V14.3116ZM50.6965 118.764V126.3H58.2203V118.764H50.6965ZM27.8242 118.764H20.3003V126.3H27.8242V118.764ZM27.8242 41.7435H35.348V26.8641L23.3724 35.668L27.8242 41.7435ZM11.4222 53.8012H3.89844V68.6805L15.874 59.8773L11.4222 53.8012ZM11.4222 28.9319L6.94497 22.8752L3.89844 25.1348V28.9319H11.4222ZM31.1346 14.3116V6.77539H28.6523L26.6574 8.25494L31.1346 14.3116ZM43.1727 14.3116V118.764H58.2203V14.3116H43.1727ZM50.6965 111.227H27.8242V126.3H50.6965V111.227ZM35.348 118.764V41.7435H20.3003V118.764H35.348ZM23.3724 35.668L6.97053 47.726L15.874 59.8773L32.2759 47.8189L23.3724 35.668ZM18.9461 53.8012V28.9319H3.89844V53.8012H18.9461ZM15.8995 34.9885L35.6119 20.3682L26.6574 8.25494L6.94497 22.8752L15.8995 34.9885ZM31.1346 21.8479H50.6965V6.77539H31.1346V21.8479Z" fill="#D80D1C" fill-opacity="0.9"/>
</g>
<g filter="url(#filter0_d_2315_1220)">
<mask id="mask1_2315_1220" style="mask-type:luminance" maskUnits="userSpaceOnUse" x="8" y="3" width="53" height="117">
<path d="M60.0035 3.76855H8.27734V119.638H60.0035V3.76855Z" fill="white"/>
<path d="M53.5673 9.53418V113.986H30.6949V36.9661L14.293 49.024V24.1545L34.0054 9.53418H53.5673Z" fill="black"/>
</mask>
<g mask="url(#mask1_2315_1220)">
<path d="M53.5695 9.53401H59.2124V3.88184H53.5695V9.53401ZM53.5695 113.986V119.638H59.2124V113.986H53.5695ZM30.6971 113.986H25.0543V119.638H30.6971V113.986ZM30.6971 36.9659H36.34V25.8063L27.3583 32.4093L30.6971 36.9659ZM14.2952 49.0239H8.65234V60.1831L17.634 53.5805L14.2952 49.0239ZM14.2952 24.1543L10.9372 19.6118L8.65234 21.3065V24.1543H14.2952ZM34.0076 9.53401V3.88184H32.1458L30.6496 4.99155L34.0076 9.53401ZM47.9266 9.53401V113.986H59.2124V9.53401H47.9266ZM53.5695 108.334H30.6971V119.638H53.5695V108.334ZM36.34 113.986V36.9659H25.0543V113.986H36.34ZM27.3583 32.4093L10.9564 44.4673L17.634 53.5805L34.0359 41.5225L27.3583 32.4093ZM19.9381 49.0239V24.1543H8.65234V49.0239H19.9381ZM17.6532 28.6968L37.3656 14.0765L30.6496 4.99155L10.9372 19.6118L17.6532 28.6968ZM34.0076 15.1862H53.5695V3.88184H34.0076V15.1862Z" fill="white"/>
</g>
</g>
<defs>
<filter id="filter0_d_2315_1220" x="5.25234" y="3.88184" width="53.9586" height="123.156" filterUnits="userSpaceOnUse" color-interpolation-filters="sRGB">
<feFlood flood-opacity="0" result="BackgroundImageFix"/>
<feColorMatrix in="SourceAlpha" type="matrix" values="0 0 0 0 0 0 0 0 0 0 0 0 0 0 0 0 0 0 127 0" result="hardAlpha"/>
<feOffset dx="-2" dy="6"/>
<feGaussianBlur stdDeviation="0.7"/>
<feComposite in2="hardAlpha" operator="out"/>
<feColorMatrix type="matrix" values="0 0 0 0 0 0 0 0 0 0 0 0 0 0 0 0 0 0 0.3 0"/>
<feBlend mode="normal" in2="BackgroundImageFix" result="effect1_dropShadow_2315_1220"/>
<feBlend mode="normal" in="SourceGraphic" in2="effect1_dropShadow_2315_1220" result="shape"/>
</filter>
</defs>
</svg>
